<svg width="400" height="296" viewBox="0 0 400 296" fill="none" xmlns="http://www.w3.org/2000/svg">
<g clip-path="url(#clip0)">
<g opacity="0.1">
<path opacity="0.1" d="M320.284 209.698C320.284 209.698 291.729 205.99 313.025 252.207C313.025 252.207 332.433 243.89 333.206 225.132C333.363 221.481 332.176 217.9 329.869 215.066C327.562 212.232 324.296 210.343 320.689 209.757L320.284 209.698Z" fill="#4D69B4"/>
<path opacity="0.1" d="M320.704 209.629C320.704 209.629 327.168 235.399 313.047 252.21" stroke="#535461" stroke-miterlimit="10"/>
<path opacity="0.1" d="M312.661 254.591C312.661 254.591 322.942 229.252 342.142 219.852C350.227 215.961 356.83 209.551 360.959 201.586C362.889 197.792 364.467 193.829 365.673 189.748" stroke="#535461" stroke-width="2" stroke-miterlimit="10"/>
<path opacity="0.1" d="M377.738 183.757C375.736 186.273 365.378 189.955 365.378 189.955C365.378 189.955 366.625 179.017 368.627 176.52C369.083 175.868 369.668 175.316 370.346 174.899C371.024 174.482 371.78 174.207 372.568 174.093C373.355 173.979 374.158 174.027 374.927 174.235C375.695 174.442 376.413 174.805 377.036 175.301C377.659 175.796 378.174 176.414 378.549 177.115C378.924 177.817 379.152 178.589 379.218 179.382C379.284 180.175 379.187 180.973 378.934 181.728C378.68 182.482 378.274 183.176 377.742 183.768L377.738 183.757Z" fill="#4D69B4"/>
<path opacity="0.1" d="M374.183 203.683C371.135 204.707 360.445 202.158 360.445 202.158C360.445 202.158 367.427 193.671 370.475 192.646C371.213 192.344 372.006 192.196 372.804 192.212C373.601 192.227 374.387 192.407 375.113 192.739C375.839 193.07 376.488 193.548 377.022 194.141C377.556 194.734 377.963 195.43 378.217 196.186C378.471 196.942 378.567 197.743 378.5 198.538C378.432 199.333 378.202 200.106 377.824 200.808C377.446 201.511 376.928 202.129 376.302 202.623C375.675 203.117 374.954 203.478 374.183 203.683Z" fill="#4D69B4"/>
<path opacity="0.1" d="M354.91 227.239C351.764 226.586 343.819 218.988 343.819 218.988C343.819 218.988 354.13 215.186 357.28 215.838C358.706 216.235 359.927 217.16 360.697 218.423C361.466 219.687 361.727 221.196 361.425 222.645C361.124 224.094 360.284 225.374 359.074 226.226C357.864 227.079 356.376 227.439 354.91 227.235V227.239Z" fill="#4D69B4"/>
<path opacity="0.1" d="M336.316 241.779C333.104 241.666 323.989 235.523 323.989 235.523C323.989 235.523 333.512 230.025 336.724 230.141C338.197 230.291 339.557 230.995 340.53 232.111C341.503 233.227 342.015 234.67 341.963 236.15C341.911 237.629 341.299 239.033 340.25 240.078C339.202 241.122 337.795 241.729 336.316 241.776V241.779Z" fill="#4D69B4"/>
<path opacity="0.1" d="M350.491 195.023C350.903 198.213 357.863 206.716 357.863 206.716C357.863 206.716 362.446 196.726 362.038 193.536C361.988 192.739 361.775 191.961 361.412 191.25C361.049 190.539 360.545 189.91 359.929 189.402C359.313 188.894 358.6 188.518 357.833 188.297C357.066 188.076 356.262 188.014 355.471 188.116C354.679 188.218 353.917 188.481 353.231 188.89C352.545 189.298 351.951 189.843 351.484 190.49C351.017 191.138 350.688 191.874 350.517 192.654C350.347 193.434 350.338 194.24 350.491 195.023Z" fill="#4D69B4"/>
<path opacity="0.1" d="M328.958 212.32C330.304 215.237 339.491 221.271 339.491 221.271C339.491 221.271 340.877 210.366 339.531 207.449C339.245 206.704 338.808 206.027 338.25 205.457C337.691 204.888 337.021 204.44 336.282 204.14C335.543 203.84 334.75 203.695 333.952 203.713C333.155 203.732 332.37 203.913 331.645 204.247C330.921 204.581 330.273 205.06 329.741 205.655C329.209 206.249 328.804 206.946 328.552 207.703C328.301 208.46 328.207 209.261 328.276 210.055C328.346 210.85 328.578 211.622 328.958 212.323V212.32Z" fill="#4D69B4"/>
<path opacity="0.1" d="M310.334 231.986C311.166 235.093 319.205 242.589 319.205 242.589C319.205 242.589 322.414 232.077 321.579 228.971C321.423 228.188 321.109 227.444 320.655 226.787C320.2 226.13 319.616 225.574 318.938 225.152C318.26 224.73 317.502 224.452 316.712 224.335C315.922 224.217 315.117 224.264 314.345 224.47C313.574 224.677 312.853 225.04 312.228 225.537C311.603 226.034 311.086 226.654 310.71 227.358C310.334 228.063 310.106 228.837 310.042 229.633C309.977 230.429 310.077 231.23 310.334 231.986Z" fill="#4D69B4"/>
<path opacity="0.25" d="M377.738 183.757C375.736 186.273 365.378 189.955 365.378 189.955C365.378 189.955 366.625 179.017 368.627 176.52C369.083 175.868 369.668 175.316 370.346 174.899C371.024 174.482 371.78 174.207 372.568 174.093C373.355 173.979 374.158 174.027 374.927 174.235C375.695 174.442 376.413 174.805 377.036 175.301C377.659 175.796 378.174 176.414 378.549 177.115C378.924 177.817 379.152 178.589 379.218 179.382C379.284 180.175 379.187 180.973 378.934 181.728C378.68 182.482 378.274 183.176 377.742 183.768L377.738 183.757Z" fill="#222222"/>
<path opacity="0.25" d="M374.183 203.683C371.135 204.707 360.445 202.158 360.445 202.158C360.445 202.158 367.427 193.671 370.475 192.646C371.213 192.344 372.006 192.196 372.804 192.212C373.601 192.227 374.387 192.407 375.113 192.739C375.839 193.07 376.488 193.548 377.022 194.141C377.556 194.734 377.963 195.43 378.217 196.186C378.471 196.942 378.567 197.743 378.5 198.538C378.432 199.333 378.202 200.106 377.824 200.808C377.446 201.511 376.928 202.129 376.302 202.623C375.675 203.117 374.954 203.478 374.183 203.683Z" fill="#222222"/>
<path opacity="0.25" d="M354.91 227.239C351.764 226.586 343.819 218.988 343.819 218.988C343.819 218.988 354.13 215.186 357.28 215.838C358.706 216.235 359.927 217.16 360.697 218.423C361.466 219.687 361.727 221.196 361.425 222.645C361.124 224.094 360.284 225.374 359.074 226.226C357.864 227.079 356.376 227.439 354.91 227.235V227.239Z" fill="#222222"/>
<path opacity="0.25" d="M336.316 241.779C333.104 241.666 323.989 235.523 323.989 235.523C323.989 235.523 333.512 230.025 336.724 230.141C338.197 230.291 339.557 230.995 340.53 232.111C341.503 233.227 342.015 234.67 341.963 236.15C341.911 237.629 341.299 239.033 340.25 240.078C339.202 241.122 337.795 241.729 336.316 241.776V241.779Z" fill="#222222"/>
<path opacity="0.25" d="M350.491 195.023C350.903 198.213 357.863 206.716 357.863 206.716C357.863 206.716 362.446 196.726 362.038 193.536C361.988 192.739 361.775 191.961 361.412 191.25C361.049 190.539 360.545 189.91 359.929 189.402C359.313 188.894 358.6 188.518 357.833 188.297C357.066 188.076 356.262 188.014 355.471 188.116C354.679 188.218 353.917 188.481 353.231 188.89C352.545 189.298 351.951 189.843 351.484 190.49C351.017 191.138 350.688 191.874 350.517 192.654C350.347 193.434 350.338 194.24 350.491 195.023Z" fill="#222222"/>
<path opacity="0.25" d="M328.958 212.32C330.304 215.237 339.491 221.271 339.491 221.271C339.491 221.271 340.877 210.366 339.531 207.449C339.245 206.704 338.808 206.027 338.25 205.457C337.691 204.888 337.021 204.44 336.282 204.14C335.543 203.84 334.75 203.695 333.952 203.713C333.155 203.732 332.37 203.913 331.645 204.247C330.921 204.581 330.273 205.06 329.741 205.655C329.209 206.249 328.804 206.946 328.552 207.703C328.301 208.46 328.207 209.261 328.276 210.055C328.346 210.85 328.578 211.622 328.958 212.323V212.32Z" fill="#222222"/>
<path opacity="0.25" d="M310.334 231.986C311.166 235.093 319.205 242.589 319.205 242.589C319.205 242.589 322.414 232.077 321.579 228.971C321.423 228.188 321.109 227.444 320.655 226.787C320.2 226.13 319.616 225.574 318.938 225.152C318.26 224.73 317.502 224.452 316.712 224.335C315.922 224.217 315.117 224.264 314.345 224.47C313.574 224.677 312.853 225.04 312.228 225.537C311.603 226.034 311.086 226.654 310.71 227.358C310.334 228.063 310.106 228.837 310.042 229.633C309.977 230.429 310.077 231.23 310.334 231.986Z" fill="#222222"/>
<path opacity="0.1" d="M326.355 266.12C326.355 266.12 336.637 240.78 355.836 231.381C363.917 227.487 370.516 221.076 374.642 213.111C376.572 209.317 378.15 205.354 379.357 201.272" stroke="#535461" stroke-width="2" stroke-miterlimit="10"/>
<path opacity="0.1" d="M391.414 195.279C389.412 197.794 379.054 201.477 379.054 201.477C379.054 201.477 380.301 190.539 382.303 188.041C383.296 186.937 384.674 186.253 386.155 186.13C387.635 186.006 389.107 186.452 390.27 187.377C391.433 188.302 392.199 189.635 392.412 191.106C392.626 192.576 392.27 194.072 391.417 195.289L391.414 195.279Z" fill="#4D69B4"/>
<path opacity="0.1" d="M387.866 215.204C384.818 216.228 374.128 213.68 374.128 213.68C374.128 213.68 381.11 205.192 384.158 204.167C385.59 203.787 387.113 203.967 388.418 204.669C389.723 205.371 390.712 206.543 391.184 207.948C391.656 209.353 391.575 210.884 390.959 212.232C390.343 213.579 389.237 214.642 387.866 215.204Z" fill="#4D69B4"/>
<path opacity="0.1" d="M368.594 238.775C365.447 238.122 357.502 230.524 357.502 230.524C357.502 230.524 367.813 226.721 370.963 227.374C372.389 227.771 373.61 228.695 374.38 229.959C375.149 231.223 375.41 232.732 375.109 234.181C374.807 235.63 373.967 236.91 372.757 237.762C371.548 238.614 370.059 238.975 368.594 238.771V238.775Z" fill="#4D69B4"/>
<path opacity="0.1" d="M349.995 253.297C346.783 253.184 337.668 247.04 337.668 247.04C337.668 247.04 347.192 241.55 350.404 241.663C351.876 241.812 353.237 242.517 354.21 243.632C355.183 244.748 355.695 246.191 355.643 247.671C355.591 249.15 354.979 250.554 353.93 251.599C352.881 252.644 351.475 253.251 349.995 253.297Z" fill="#4D69B4"/>
<path opacity="0.1" d="M364.171 206.559C364.583 209.749 371.543 218.252 371.543 218.252C371.543 218.252 376.126 208.262 375.718 205.072C375.668 204.275 375.455 203.497 375.092 202.786C374.729 202.075 374.225 201.446 373.609 200.938C372.993 200.43 372.28 200.054 371.513 199.833C370.746 199.611 369.942 199.55 369.151 199.652C368.359 199.754 367.597 200.017 366.911 200.426C366.225 200.834 365.631 201.379 365.164 202.026C364.697 202.674 364.368 203.41 364.197 204.19C364.027 204.969 364.018 205.776 364.171 206.559Z" fill="#4D69B4"/>
<path opacity="0.1" d="M342.642 223.827C343.987 226.743 353.175 232.777 353.175 232.777C353.175 232.777 354.56 221.872 353.215 218.955C352.509 217.652 351.334 216.667 349.927 216.199C348.521 215.731 346.989 215.816 345.643 216.436C344.297 217.057 343.238 218.166 342.68 219.54C342.123 220.913 342.109 222.447 342.642 223.83V223.827Z" fill="#4D69B4"/>
<path opacity="0.1" d="M324.018 243.515C324.849 246.621 332.889 254.117 332.889 254.117C332.889 254.117 336.097 243.606 335.262 240.5C334.785 239.098 333.793 237.931 332.487 237.234C331.181 236.537 329.659 236.363 328.229 236.746C326.8 237.13 325.569 238.042 324.787 239.299C324.005 240.556 323.73 242.063 324.018 243.515Z" fill="#4D69B4"/>
</g>
<path opacity="0.1" d="M4.32042 156.766C10.6498 183.819 24.0488 207.204 45.2246 218.54C89.2316 242.096 188.479 229.948 262.55 215.988C299.976 208.959 333.948 189.542 358.997 160.86L4.32042 156.766Z" fill="#4D69B4"/>
<path opacity="0.1" d="M392.744 29.4267H352.103C351.171 29.4267 350.277 29.0566 349.619 28.3978C348.96 27.739 348.59 26.8455 348.59 25.9138C348.59 24.9821 348.96 24.0886 349.619 23.4298C350.277 22.771 351.171 22.4009 352.103 22.4009H359.128C358.197 22.4009 357.303 22.0308 356.645 21.372C355.986 20.7132 355.616 19.8197 355.616 18.888C355.616 17.9563 355.986 17.0628 356.645 16.404C357.303 15.7452 358.197 15.3751 359.128 15.3751H354.112C353.18 15.3751 352.286 15.005 351.628 14.3462C350.969 13.6874 350.599 12.7939 350.599 11.8622C350.599 10.9305 350.969 10.037 351.628 9.37819C352.286 8.71939 353.18 8.34929 354.112 8.34929H375.324C370.617 6.1617 365.115 4.60487 358.778 3.78817C300.939 -3.64233 280.288 1.27245 273.003 6.34035C264.016 12.575 253.99 17.1616 243.274 19.3711C207.584 26.725 140.844 35.5847 80.3536 16.5272C50.2888 7.04767 27.9427 23.0608 14.551 49.8077H399.799C399.296 42.0345 397.79 34.8592 395.027 28.5735C394.393 29.1227 393.583 29.4255 392.744 29.4267Z" fill="#4D69B4"/>
<path opacity="0.1" d="M0.871405 100.301C-0.688885 116.035 -0.158033 131.907 2.45011 147.502L359.274 160.551C369.207 149.124 377.547 136.406 384.067 122.742L0.871405 100.301ZM142 133.971H134.974C135.906 133.971 136.799 134.342 137.458 135C138.117 135.659 138.487 136.553 138.487 137.484C138.487 138.416 138.117 139.31 137.458 139.968C136.799 140.627 135.906 140.997 134.974 140.997H94.3323C93.4007 140.997 92.5072 140.627 91.8484 139.968C91.1896 139.31 90.8195 138.416 90.8195 137.484C90.8195 136.553 91.1896 135.659 91.8484 135C92.5072 134.342 93.4007 133.971 94.3323 133.971H101.358C100.426 133.971 99.5329 133.601 98.8741 132.942C98.2154 132.284 97.8452 131.39 97.8452 130.459C97.8452 129.527 98.2154 128.633 98.8741 127.975C99.5329 127.316 100.426 126.946 101.358 126.946H96.3413C95.4096 126.946 94.5161 126.575 93.8573 125.917C93.1985 125.258 92.8284 124.364 92.8284 123.433C92.8284 122.501 93.1985 121.608 93.8573 120.949C94.5161 120.29 95.4096 119.92 96.3413 119.92H136.983C137.915 119.92 138.808 120.29 139.467 120.949C140.126 121.608 140.496 122.501 140.496 123.433C140.496 124.364 140.126 125.258 139.467 125.917C138.808 126.575 137.915 126.946 136.983 126.946H142C142.932 126.946 143.825 127.316 144.484 127.975C145.143 128.633 145.513 129.527 145.513 130.459C145.513 131.39 145.143 132.284 144.484 132.942C143.825 133.601 142.932 133.971 142 133.971Z" fill="#4D69B4"/>
<path opacity="0.1" d="M399.818 50.052L10.249 59.5315C5.51284 71.7127 2.38824 85.4835 0.929848 99.7575H392.993C395.552 91.3726 397.446 82.7986 398.655 74.1154C399.821 65.726 400.288 57.6101 399.818 50.052ZM80.0184 81.1047H72.9926C73.9242 81.1047 74.8178 81.4748 75.4766 82.1336C76.1353 82.7924 76.5055 83.686 76.5055 84.6176C76.5055 85.5493 76.1353 86.4428 75.4766 87.1016C74.8178 87.7604 73.9242 88.1305 72.9926 88.1305H32.3509C31.4192 88.1305 30.5257 87.7604 29.8669 87.1016C29.2081 86.4428 28.838 85.5493 28.838 84.6176C28.838 83.686 29.2081 82.7924 29.8669 82.1336C30.5257 81.4748 31.4192 81.1047 32.3509 81.1047H39.3767C38.445 81.1047 37.5515 80.7346 36.8927 80.0758C36.2339 79.417 35.8638 78.5235 35.8638 77.5918C35.8638 76.6602 36.2339 75.7666 36.8927 75.1078C37.5515 74.449 38.445 74.0789 39.3767 74.0789H34.3598C33.4281 74.0789 32.5346 73.7088 31.8758 73.05C31.217 72.3912 30.8469 71.4977 30.8469 70.566C30.8469 69.6344 31.217 68.7408 31.8758 68.082C32.5346 67.4233 33.4281 67.0531 34.3598 67.0531H75.0015C75.9332 67.0531 76.8267 67.4233 77.4855 68.082C78.1443 68.7408 78.5144 69.6344 78.5144 70.566C78.5144 71.4977 78.1443 72.3912 77.4855 73.05C76.8267 73.7088 75.9332 74.0789 75.0015 74.0789H80.0184C80.95 74.0789 81.8435 74.449 82.5023 75.1078C83.1611 75.7666 83.5312 76.6602 83.5312 77.5918C83.5312 78.5235 83.1611 79.417 82.5023 80.0758C81.8435 80.7346 80.95 81.1047 80.0184 81.1047Z" fill="#4D69B4"/>
<path d="M342.24 295.798C342.24 295.798 325.994 206.69 295.014 192.23C268.763 179.969 240.375 171.704 232.303 169.461C231.098 167.52 229.705 165.701 228.143 164.032C217.111 152.515 210.482 152.73 209.41 152.872C208.901 150.588 208.536 148.274 208.316 145.945C208.284 145.58 208.251 145.241 208.222 144.88L208.316 144.833C208.251 144.144 208.192 143.433 208.141 142.7C212.645 140.296 216.792 137.276 220.461 133.727C220.509 133.884 220.549 134.041 220.6 134.201C228.55 127.48 236.337 120.577 243.96 113.492C246.147 111.447 248.444 109.226 249.188 106.342C249.426 105.35 249.518 104.328 249.461 103.309C249.56 101.121 249.042 98.8862 248.954 96.6694C248.954 96.3048 248.995 95.9657 249.042 95.6194C249.552 91.9916 252.075 89.0129 254.146 85.9685C259.32 78.275 262.021 69.1847 261.887 59.9143C261.943 55.4723 261.329 51.0472 260.064 46.7888C258.449 41.3855 255.087 35.7087 249.49 34.5274C247.325 34.0716 245.075 34.356 242.866 34.2138C233.718 33.6305 226.871 26.1927 219.575 20.742C210.671 14.1216 200.141 10.0346 189.102 8.91441C185.657 8.54981 182.098 8.52429 178.82 9.61808C171.459 12.0682 166.989 19.6336 159.898 22.7436C154.655 25.0551 148.595 24.6796 143.126 26.4151C134.985 29.0037 128.076 37.353 127.894 45.932C127.894 46.2492 127.894 46.5664 127.894 46.8836C127.894 46.9383 127.894 46.993 127.894 47.044C127.802 51.3791 129.352 55.7944 129.476 60.2315C129.476 60.6326 129.482 61.0349 129.494 61.4384C129.454 66.2292 128.882 71.0346 127.135 75.5373C126.194 77.9619 124.984 80.7693 125.181 83.1939C125.072 84.6778 125.36 86.0706 126.391 87.2045L128.152 85.6513C127.562 88.8478 127.265 92.0917 127.266 95.3423C127.266 111.727 134.719 126.399 146.473 136.272C146.541 137.363 146.607 138.533 146.67 139.779C146.947 145.183 147.166 151.961 147.104 159.347L129.91 175.153L85.7059 195.206C85.7059 195.206 45.2793 203.744 53.9859 260.538L58.1423 295.802H95.0505L94.9667 295.988H149.747L149.78 295.802H280.117L280.091 295.988H285.195V295.802L342.24 295.798ZM209.735 153.776C210.852 156.088 211.732 158.506 212.36 160.995C211.07 158.6 210.117 156.038 209.527 153.383L209.582 153.481L209.735 153.776ZM147.09 161.068C147.09 161.763 147.077 162.465 147.053 163.172L146.966 163.296C146.96 162.545 147.001 161.795 147.09 161.05V161.068Z" fill="url(#paint0_linear)"/>
<path d="M224.154 170.012L216.863 239.65L177.851 252.046C177.851 252.046 127.172 242.567 140.297 215.222C149.634 195.771 149.376 161.01 148.449 142.561C148.085 135.072 147.589 130.271 147.589 130.271C147.589 130.271 213.946 72.2997 208.477 124.437C207.419 134.533 207.357 142.426 207.944 148.595C210.406 174.278 224.154 170.012 224.154 170.012Z" fill="#FDC2CC"/>
<path opacity="0.03" d="M224.154 170.012L216.863 239.65L177.851 252.046C177.851 252.046 127.172 242.567 140.297 215.222C149.634 195.771 149.376 161.01 148.449 142.561C148.085 135.072 147.589 130.271 147.589 130.271C147.589 130.271 213.946 72.2997 208.477 124.437C207.419 134.533 207.357 142.426 207.944 148.595C210.406 174.278 224.154 170.012 224.154 170.012Z" fill="#222222"/>
<path opacity="0.1" d="M208.477 123.343C207.42 133.439 207.358 141.333 207.945 147.502C198.577 152.616 187.881 154.777 177.263 153.7C166.644 152.623 156.6 148.359 148.45 141.468C148.085 133.979 147.589 129.177 147.589 129.177C147.589 129.177 213.946 71.2059 208.477 123.343Z" fill="#222222"/>
<path d="M182.591 151.786C211.788 151.786 235.457 128.116 235.457 98.919C235.457 69.7215 211.788 46.0523 182.591 46.0523C153.393 46.0523 129.724 69.7215 129.724 98.919C129.724 128.116 153.393 151.786 182.591 151.786Z" fill="#FDC2CC"/>
<path opacity="0.03" d="M182.591 151.786C211.788 151.786 235.457 128.116 235.457 98.919C235.457 69.7215 211.788 46.0523 182.591 46.0523C153.393 46.0523 129.724 69.7215 129.724 98.919C129.724 128.116 153.393 151.786 182.591 151.786Z" fill="#222222"/>
<path opacity="0.1" d="M95.4518 240.379C95.4518 240.379 112.588 275.381 113.499 295.98L95.4518 240.379Z" fill="#222222"/>
<path opacity="0.1" d="M282.126 260.436L277.204 295.984H282.126V260.436Z" fill="#222222"/>
<path opacity="0.1" d="M99.28 295.98L126.443 234.181C126.443 234.181 134.099 219.597 135.922 205.013C137.745 190.429 147.589 167.46 147.589 167.46C147.589 167.46 172.017 136.469 183.32 140.844C194.622 145.219 173.476 161.626 173.476 161.626C173.476 161.626 204.466 173.658 183.32 209.388C162.173 245.119 161.808 238.556 161.808 238.556L151.417 295.98H99.28Z" fill="#222222"/>
<path d="M98.5508 295.98L125.713 234.181C125.713 234.181 133.37 219.597 135.193 205.013C136.352 195.742 140.753 183.079 143.805 175.083C145.797 169.856 148.728 165.037 152.453 160.864C160.35 152.026 174.693 137.774 182.591 140.837C193.893 145.212 172.746 161.619 172.746 161.619C172.746 161.619 203.737 173.651 182.591 209.381C161.444 245.112 161.079 238.549 161.079 238.549L150.688 295.973L98.5508 295.98Z" fill="#FDC2CC"/>
<path opacity="0.15" d="M198.815 70.2981C199.419 70.2981 199.909 69.8084 199.909 69.2043C199.909 68.6002 199.419 68.1105 198.815 68.1105C198.211 68.1105 197.721 68.6002 197.721 69.2043C197.721 69.8084 198.211 70.2981 198.815 70.2981Z" fill="white"/>
<path opacity="0.15" d="M193.711 72.4856C194.315 72.4856 194.805 71.9959 194.805 71.3919C194.805 70.7878 194.315 70.2981 193.711 70.2981C193.107 70.2981 192.617 70.7878 192.617 71.3919C192.617 71.9959 193.107 72.4856 193.711 72.4856Z" fill="white"/>
<path opacity="0.1" d="M145.033 32.296C150.309 30.5897 156.165 30.958 161.225 28.6902C168.069 25.6203 172.382 18.1898 179.484 15.7834C182.649 14.7115 186.083 14.7516 189.405 15.0943C200.086 16.2059 210.257 20.2249 218.813 26.7141C225.854 32.07 232.46 39.3729 241.287 39.9453C243.42 40.0839 245.589 39.8031 247.679 40.2516C253.089 41.411 256.33 46.9857 257.887 52.2833C259.688 58.5616 260.111 65.1551 259.125 71.6118C258.14 78.0686 255.77 84.2359 252.178 89.691C250.18 92.6807 247.744 95.6084 247.252 99.1705C246.771 102.663 248.258 106.284 247.391 109.704C246.661 112.537 244.474 114.717 242.344 116.726C234.992 123.68 227.477 130.455 219.801 137.052C215.813 124.379 221.665 110.732 220.753 97.4788C220.388 92.3161 218.565 86.6794 214.012 84.2439C209.749 81.9688 204.302 83.1501 199.989 80.9625C195.176 78.538 193.2 72.7956 189.562 68.8214C183.364 62.0399 172.604 61.1649 163.938 64.2275C155.271 67.2901 148.187 73.5904 141.333 79.7338L128.874 90.9088C126.443 88.167 128.287 83.9595 129.604 80.5323C131.565 75.3951 131.995 69.8569 131.864 64.4025C131.758 60.0273 130.249 55.7069 130.336 51.4484C130.511 43.048 137.176 34.8373 145.033 32.296Z" fill="#222222"/>
<path d="M145.033 31.2023C150.309 29.4959 156.165 29.8642 161.225 27.5964C168.069 24.5265 172.382 17.096 179.484 14.6896C182.649 13.6177 186.083 13.6578 189.405 14.0005C200.086 15.1121 210.257 19.1311 218.813 25.6203C225.854 30.9762 232.46 38.2791 241.287 38.8515C243.42 38.9901 245.589 38.7093 247.679 39.1578C253.089 40.3172 256.33 45.8919 257.887 51.1895C259.688 57.4678 260.111 64.0613 259.125 70.518C258.14 76.9747 255.77 83.1421 252.178 88.5972C250.18 91.5869 247.744 94.5146 247.252 98.0767C246.771 101.57 248.258 105.19 247.391 108.61C246.661 111.443 244.474 113.623 242.344 115.632C234.992 122.586 227.477 129.362 219.801 135.958C215.813 123.285 221.665 109.638 220.753 96.385C220.388 91.2223 218.565 85.5856 214.012 83.1501C209.749 80.875 204.302 82.0563 199.989 79.8687C195.176 77.4442 193.2 71.7018 189.562 67.7276C183.364 60.9461 172.604 60.0711 163.938 63.1337C155.271 66.1963 148.187 72.4966 141.333 78.64L128.874 89.815C126.443 87.0732 128.287 82.8657 129.604 79.4385C131.565 74.3013 131.995 68.7631 131.864 63.3087C131.758 58.9335 130.249 54.6131 130.336 50.3546C130.511 41.9542 137.176 33.7435 145.033 31.2023Z" fill="#865A61"/>
</g>
<defs>
<linearGradient id="paint0_linear" x1="197.495" y1="295.98" x2="197.495" y2="8.67012" gradientUnits="userSpaceOnUse">
<stop stop-color="#808080" stop-opacity="0.25"/>
<stop offset="0.54" stop-color="#808080" stop-opacity="0.12"/>
<stop offset="1" stop-color="#808080" stop-opacity="0.1"/>
</linearGradient>
<clipPath id="clip0">
<rect width="400" height="295.984" fill="white"/>
</clipPath>
</defs>
</svg>
