<svg width="400" height="323" viewBox="0 0 400 323" fill="none" xmlns="http://www.w3.org/2000/svg">
<g clip-path="url(#clip0)">
<g opacity="0.5">
<path opacity="0.5" d="M378.903 80.2598H324.124V59.299C324.124 53.4762 321.811 47.892 317.693 43.7747C313.576 39.6574 307.992 37.3443 302.169 37.3443H51.3526C46.0701 37.3443 41.004 39.4428 37.2688 43.178C33.5335 46.9133 31.435 51.9794 31.435 57.2619V80.2722H23.1876C17.0436 80.27 11.1501 82.7072 6.8022 87.0481C2.45427 91.3891 0.0076509 97.2787 0 103.423V207.34C0.00445465 213.184 2.21629 218.81 6.19257 223.092C10.1689 227.374 15.616 229.996 21.4433 230.433V253.938H44.8577V230.503H74.3423V254.136H97.7567V230.503H308.478V254.136H331.893V230.503H351.406V253.918H374.845V230.503H379.064C381.813 230.504 384.535 229.963 387.076 228.911C389.616 227.859 391.924 226.317 393.868 224.374C395.812 222.43 397.354 220.122 398.406 217.582C399.458 215.043 400 212.32 400 209.571V101.361C400.001 98.59 399.455 95.8462 398.395 93.2861C397.335 90.7261 395.781 88.3999 393.822 86.4404C391.863 84.4809 389.537 82.9266 386.977 81.8661C384.418 80.8056 381.674 80.2598 378.903 80.2598ZM320 171.967V189.526H232.709C233.655 187.833 234.15 185.926 234.148 183.988V171.967H320Z" fill="url(#paint0_linear)"/>
</g>
<path d="M50.6349 221.72H28.0906V249.901H50.6349V221.72Z" fill="#4D69B4"/>
<path d="M327.027 221.93H304.482V250.111H327.027V221.93Z" fill="#4D69B4"/>
<path d="M368.359 221.72H345.814V249.901H368.359V221.72Z" fill="#4D69B4"/>
<path d="M101.571 221.93H79.0269V250.111H101.571V221.93Z" fill="#4D69B4"/>
<path opacity="0.3" d="M50.6349 221.72H28.0906V249.901H50.6349V221.72Z" fill="#222222"/>
<path opacity="0.3" d="M327.027 221.93H304.482V250.111H327.027V221.93Z" fill="#222222"/>
<path opacity="0.3" d="M368.359 221.72H345.814V249.901H368.359V221.72Z" fill="#222222"/>
<path opacity="0.3" d="M101.571 221.93H79.0269V250.111H101.571V221.93Z" fill="#222222"/>
<path d="M315.546 82.6887H372.264C377.651 82.6887 382.818 84.8288 386.628 88.6383C390.437 92.4478 392.577 97.6146 392.577 103.002V207.204C392.577 212.549 390.454 217.675 386.675 221.454C382.895 225.233 377.77 227.357 372.425 227.357H315.546V82.6887Z" fill="#4D69B4"/>
<path opacity="0.3" d="M315.546 82.6887H372.264C377.651 82.6887 382.818 84.8288 386.628 88.6383C390.437 92.4478 392.577 97.6146 392.577 103.002V207.204C392.577 212.549 390.454 217.675 386.675 221.454C382.895 225.233 377.77 227.357 372.425 227.357H315.546V82.6887Z" fill="#222222"/>
<path d="M56.8701 41.3567H165.451V170.994H37.6907V60.532C37.6918 55.446 39.7129 50.5687 43.3096 46.9728C46.9064 43.3768 51.7841 41.3567 56.8701 41.3567Z" fill="#4D69B4"/>
<path opacity="0.3" d="M57.4886 41.3567H165.451V170.994H37.6907V61.1505C37.6907 58.5508 38.2028 55.9766 39.1978 53.5748C40.1928 51.173 41.6511 48.9908 43.4896 47.1527C45.3281 45.3146 47.5106 43.8567 49.9126 42.8622C52.3146 41.8677 54.8889 41.3562 57.4886 41.3567Z" fill="#222222"/>
<path d="M86.2681 41.3567H191.546V170.994H63.7856V63.835C63.7856 57.8734 66.1539 52.156 70.3694 47.9405C74.5849 43.725 80.3024 41.3567 86.264 41.3567H86.2681Z" fill="#4D69B4"/>
<path d="M190.928 41.3567H298.371C303.978 41.3567 309.356 43.5842 313.321 47.5491C317.286 51.5141 319.513 56.8917 319.513 62.499V170.994H190.928V41.3567Z" fill="#4D69B4"/>
<path d="M351.245 82.6887H372.276C377.662 82.6919 382.825 84.8335 386.632 88.6427C390.439 92.4518 392.577 97.6167 392.577 103.002V207.204C392.577 212.549 390.454 217.675 386.675 221.454C382.895 225.233 377.77 227.357 372.425 227.357H351.245V82.6887Z" fill="#4D69B4"/>
<path d="M351.241 187.901H91.967V227.357H351.241V187.901Z" fill="#4D69B4"/>
<path d="M151.543 87.7747L123.212 96.0323C110.739 99.6681 103.574 112.728 107.21 125.201L116.595 157.4C120.23 169.874 133.29 177.038 145.764 173.402L174.094 165.145C186.568 161.509 193.733 148.45 190.097 135.976L180.712 103.777C177.076 91.3036 164.017 84.1389 151.543 87.7747Z" fill="url(#paint1_linear)"/>
<path d="M149.982 91.6209L123.564 99.3211C111.932 102.712 105.25 114.89 108.641 126.522L117.392 156.547C120.783 168.179 132.961 174.86 144.593 171.469L171.011 163.769C182.643 160.379 189.324 148.201 185.934 136.569L177.182 106.544C173.792 94.9116 161.614 88.2305 149.982 91.6209Z" fill="#F55F44"/>
<path opacity="0.1" d="M149.982 91.6209L123.564 99.3211C111.932 102.712 105.25 114.89 108.641 126.522L117.392 156.547C120.783 168.179 132.961 174.86 144.593 171.469L171.011 163.769C182.643 160.379 189.324 148.201 185.934 136.569L177.182 106.544C173.792 94.9116 161.614 88.2305 149.982 91.6209Z" fill="#222222"/>
<path d="M151.345 90.6629L124.927 98.3631C113.295 101.754 106.614 113.932 110.004 125.564L118.756 155.589C122.146 167.221 134.324 173.902 145.956 170.511L172.374 162.811C184.006 159.421 190.688 147.243 187.297 135.611L178.546 105.586C175.155 93.9537 162.977 87.2725 151.345 90.6629Z" fill="#F55F44"/>
<path d="M145.695 116.585C148.241 114.793 148.854 111.277 147.063 108.731C145.272 106.184 141.755 105.572 139.209 107.363C136.662 109.154 136.05 112.67 137.841 115.217C139.632 117.763 143.148 118.376 145.695 116.585Z" fill="url(#paint2_linear)"/>
<path d="M172.664 132.068C175.211 130.277 175.823 126.761 174.032 124.214C172.241 121.668 168.725 121.055 166.179 122.847C163.632 124.638 163.02 128.154 164.811 130.7C166.602 133.247 170.118 133.859 172.664 132.068Z" fill="url(#paint3_linear)"/>
<path d="M130.832 147.704C133.379 145.913 133.991 142.396 132.2 139.85C130.409 137.303 126.893 136.691 124.346 138.482C121.8 140.273 121.187 143.789 122.978 146.336C124.769 148.882 128.286 149.495 130.832 147.704Z" fill="url(#paint4_linear)"/>
<path d="M156.262 164.272C158.809 162.48 159.421 158.964 157.63 156.418C155.839 153.871 152.323 153.259 149.776 155.05C147.23 156.841 146.617 160.357 148.409 162.904C150.2 165.45 153.716 166.063 156.262 164.272Z" fill="url(#paint5_linear)"/>
<path d="M144.613 115.046C146.31 113.853 146.718 111.509 145.525 109.812C144.331 108.115 141.988 107.707 140.291 108.901C138.594 110.094 138.185 112.438 139.379 114.135C140.573 115.832 142.916 116.24 144.613 115.046Z" fill="#F99F8F"/>
<path d="M171.583 130.53C173.28 129.337 173.688 126.993 172.494 125.296C171.301 123.599 168.957 123.191 167.26 124.385C165.563 125.578 165.155 127.922 166.349 129.619C167.542 131.316 169.886 131.724 171.583 130.53Z" fill="#F99F8F"/>
<path d="M129.75 146.166C131.447 144.972 131.856 142.629 130.662 140.932C129.468 139.235 127.125 138.826 125.428 140.02C123.731 141.214 123.323 143.557 124.516 145.254C125.71 146.951 128.053 147.359 129.75 146.166Z" fill="#F99F8F"/>
<path d="M155.18 162.733C156.877 161.54 157.286 159.197 156.092 157.499C154.898 155.802 152.555 155.394 150.858 156.588C149.161 157.781 148.753 160.125 149.946 161.822C151.14 163.519 153.483 163.927 155.18 162.733Z" fill="#F99F8F"/>
<path d="M29.7443 82.6887H112.631V227.357H29.7443C23.8249 227.357 18.1479 225.006 13.9619 220.82C9.77592 216.635 7.4237 210.959 7.42261 205.039V105.01C7.42261 99.0902 9.77435 93.4126 13.9605 89.2265C18.1466 85.0404 23.8242 82.6887 29.7443 82.6887Z" fill="#4D69B4"/>
<path opacity="0.3" d="M29.901 82.6887H91.835C94.5678 82.6887 97.2739 83.2272 99.7986 84.2735C102.323 85.3199 104.617 86.8535 106.549 88.7867C108.48 90.7199 110.012 93.0148 111.056 95.5403C112.101 98.0657 112.637 100.772 112.635 103.505V206.557C112.635 212.073 110.444 217.364 106.543 221.265C102.642 225.165 97.3515 227.357 91.835 227.357H29.901C23.9393 227.357 18.2219 224.988 14.0064 220.773C9.79086 216.557 7.42261 210.84 7.42261 204.878V105.155C7.42589 99.1951 9.79558 93.4809 14.0107 89.268C18.2259 85.0552 23.9415 82.6887 29.901 82.6887Z" fill="#222222"/>
<path opacity="0.1" d="M71.5093 82.6887H107.711C109.571 82.6887 111.354 83.4272 112.668 84.7419C113.983 86.0566 114.722 87.8397 114.722 89.699V220.346C114.722 222.206 113.983 223.989 112.668 225.303C111.354 226.618 109.571 227.357 107.711 227.357H71.5093V82.6887Z" fill="#222222"/>
<path d="M69.4226 82.6887H105.625C107.484 82.6887 109.267 83.4272 110.582 84.7419C111.896 86.0566 112.635 87.8397 112.635 89.699V220.346C112.635 222.206 111.896 223.989 110.582 225.303C109.267 226.618 107.484 227.357 105.625 227.357H69.4226V82.6887Z" fill="#4D69B4"/>
<path d="M232.878 157.843H103.241V193.542H232.878V157.843Z" fill="#4D69B4"/>
<path d="M362.726 158.049H233.089V193.748H362.726V158.049Z" fill="#4D69B4"/>
<path opacity="0.15" d="M221.909 157.843H114.21C108.152 157.843 103.241 162.754 103.241 168.812V182.573C103.241 188.631 108.152 193.542 114.21 193.542H221.909C227.967 193.542 232.878 188.631 232.878 182.573V168.812C232.878 162.754 227.967 157.843 221.909 157.843Z" fill="white"/>
<path d="M248.012 92.1856C252.162 92.1856 255.526 88.8217 255.526 84.6722C255.526 80.5226 252.162 77.1588 248.012 77.1588C243.863 77.1588 240.499 80.5226 240.499 84.6722C240.499 88.8217 243.863 92.1856 248.012 92.1856Z" fill="#4D69B4"/>
<path opacity="0.3" d="M248.012 92.1856C252.162 92.1856 255.526 88.8217 255.526 84.6722C255.526 80.5226 252.162 77.1588 248.012 77.1588C243.863 77.1588 240.499 80.5226 240.499 84.6722C240.499 88.8217 243.863 92.1856 248.012 92.1856Z" fill="#222222"/>
<path d="M131.53 92.1856C135.68 92.1856 139.043 88.8217 139.043 84.6722C139.043 80.5226 135.68 77.1588 131.53 77.1588C127.38 77.1588 124.017 80.5226 124.017 84.6722C124.017 88.8217 127.38 92.1856 131.53 92.1856Z" fill="#4D69B4"/>
<path opacity="0.3" d="M131.53 92.1856C135.68 92.1856 139.043 88.8217 139.043 84.6722C139.043 80.5226 135.68 77.1588 131.53 77.1588C127.38 77.1588 124.017 80.5226 124.017 84.6722C124.017 88.8217 127.38 92.1856 131.53 92.1856Z" fill="#222222"/>
<path d="M127.769 45.0062C128.808 45.0062 129.649 43.7452 129.649 42.1897C129.649 40.6342 128.808 39.3732 127.769 39.3732C126.731 39.3732 125.889 40.6342 125.889 42.1897C125.889 43.7452 126.731 45.0062 127.769 45.0062Z" fill="#FDA57D"/>
<path opacity="0.15" d="M351.757 158.049H244.058C238 158.049 233.089 162.96 233.089 169.019V182.779C233.089 188.837 238 193.748 244.058 193.748H351.757C357.815 193.748 362.726 188.837 362.726 182.779V169.019C362.726 162.96 357.815 158.049 351.757 158.049Z" fill="white"/>
<g opacity="0.5">
<path opacity="0.5" d="M277.295 85.7773C276.433 81.0392 275.551 76.2474 273.584 71.8392C271.429 66.9966 268.055 62.7963 263.79 59.6495C263.156 59.1707 262.372 58.9365 261.579 58.9897C260.342 59.0969 259.963 59.8557 259.769 60.6392C259.744 60.734 259.724 60.8247 259.707 60.9196C259.221 63.3237 259.546 65.699 260.252 68.0412C261.13 70.9649 262.602 73.8144 263.827 76.6433C266.034 81.7123 267.496 87.0735 268.169 92.5608C268.26 93.2866 268.33 94.033 268.346 94.7794C268.358 95.2236 268.347 95.6682 268.313 96.1113C268.258 96.9804 268.06 97.8344 267.728 98.6392C267.67 98.7711 267.608 98.9086 267.542 99.0515C267.476 99.1945 267.405 99.321 267.328 99.4309C266.577 100.668 265.406 101.551 264.26 102.421C263.113 103.291 261.815 104.219 260.445 104.689H260.491C259.854 104.919 259.18 105.029 258.503 105.014C256.388 104.948 254.132 103.245 252.004 103.645L251.765 103.699C249.588 104.289 247.918 107.711 247.901 109.885C247.901 110.058 247.901 110.225 247.901 110.388C247.901 110.445 247.901 110.503 247.922 110.561C247.942 110.619 247.946 110.779 247.963 110.882C247.979 110.986 247.988 111.01 248.004 111.072C248.021 111.134 248.041 111.258 248.066 111.348C248.091 111.439 248.103 111.476 248.124 111.538C248.144 111.6 248.177 111.707 248.206 111.79C248.235 111.872 248.256 111.913 248.281 111.971C248.305 112.029 248.347 112.128 248.384 112.202L248.474 112.375C248.516 112.445 248.553 112.52 248.598 112.59L248.705 112.755L248.845 112.953L248.965 113.105L249.126 113.287L249.258 113.427L249.435 113.596L249.579 113.724L249.773 113.88L249.926 114L250.136 114.144L250.293 114.252L250.524 114.388L250.685 114.478L250.944 114.606L251.097 114.68C251.221 114.738 251.349 114.792 251.476 114.841L251.662 114.911L251.959 115.019L252.173 115.085L252.417 115.159L252.656 115.221L252.887 115.278L253.142 115.332L253.365 115.377L253.633 115.423L253.848 115.456L254.124 115.493L254.33 115.518L254.619 115.542H254.821H255.118H255.307H255.617H256.264H256.602H256.722L257.085 115.513H257.155C258.184 115.424 259.197 115.201 260.169 114.849C263.25 113.682 265.864 111.551 268.285 109.311C273.085 104.878 277.621 99.3773 278.004 92.8536C278.153 90.499 277.72 88.1237 277.295 85.7773Z" fill="url(#paint6_linear)"/>
</g>
<path opacity="0.1" d="M256.994 84.2103H218.12V95.4639H256.994V84.2103Z" fill="#222222"/>
<path d="M256.994 84.2103H218.12V94.4412H256.994V84.2103Z" fill="#4D69B4"/>
<path d="M240.627 85.5752C244.016 85.5752 246.763 82.828 246.763 79.4392C246.763 76.0503 244.016 73.3031 240.627 73.3031C237.238 73.3031 234.491 76.0503 234.491 79.4392C234.491 82.828 237.238 85.5752 240.627 85.5752Z" fill="#4D69B4"/>
<path d="M229.056 88.8825L228.981 88.8083C229.121 88.7029 229.234 88.5667 229.311 88.4104C229.389 88.254 229.43 88.0818 229.43 87.9072C229.43 87.7326 229.389 87.5604 229.311 87.4041C229.234 87.2477 229.121 87.1115 228.981 87.0062L229.047 86.9237C229.196 87.0394 229.317 87.1875 229.4 87.3569C229.483 87.5263 229.526 87.7124 229.526 87.901C229.526 88.0896 229.483 88.2758 229.4 88.4452C229.317 88.6145 229.196 88.7627 229.047 88.8784L229.056 88.8825Z" fill="#4D8AF0"/>
<path opacity="0.1" d="M229.056 88.8825L228.981 88.8083C229.121 88.7029 229.234 88.5667 229.311 88.4104C229.389 88.254 229.43 88.0818 229.43 87.9072C229.43 87.7326 229.389 87.5604 229.311 87.4041C229.234 87.2477 229.121 87.1115 228.981 87.0062L229.047 86.9237C229.196 87.0394 229.317 87.1875 229.4 87.3569C229.483 87.5263 229.526 87.7124 229.526 87.901C229.526 88.0896 229.483 88.2758 229.4 88.4452C229.317 88.6145 229.196 88.7627 229.047 88.8784L229.056 88.8825Z" fill="#222222"/>
<path d="M228.981 88.8825C228.832 88.7668 228.712 88.6187 228.629 88.4493C228.546 88.2799 228.503 88.0938 228.503 87.9052C228.503 87.7165 228.546 87.5304 228.629 87.361C228.712 87.1917 228.832 87.0435 228.981 86.9278L229.047 87.0103C228.908 87.1157 228.795 87.2518 228.717 87.4082C228.64 87.5645 228.599 87.7367 228.599 87.9113C228.599 88.0859 228.64 88.2582 228.717 88.4145C228.795 88.5708 228.908 88.707 229.047 88.8124L228.981 88.8825Z" fill="#4D8AF0"/>
<path d="M260.417 121.897C263.233 120.829 265.621 118.878 267.839 116.833C272.227 112.784 276.367 107.761 276.722 101.794C276.85 99.6165 276.458 97.4474 276.066 95.299C275.278 90.9691 274.474 86.5897 272.689 82.565C270.72 78.1417 267.636 74.3052 263.74 71.4309C263.16 70.9923 262.441 70.7784 261.716 70.8289C260.478 70.9402 260.165 71.7897 260 72.6021C258.998 77.5505 261.749 82.3505 263.761 86.9691C265.777 91.6008 267.113 96.4995 267.728 101.513C267.988 103.641 268.083 105.942 266.961 107.773C266.276 108.895 265.204 109.711 264.157 110.503C262.59 111.687 260.858 112.928 258.895 112.87C256.932 112.812 254.738 111.126 252.709 111.67C250.681 112.214 249.192 115.336 249.18 117.336C249.155 122.755 256.648 123.324 260.417 121.897Z" fill="#FFD180"/>
<g opacity="0.1">
<path opacity="0.1" d="M266.953 107.773C266.268 108.895 265.196 109.711 264.149 110.503C263.1 111.368 261.923 112.064 260.66 112.565C262.441 112.445 264.037 111.328 265.485 110.219C266.532 109.427 267.604 108.606 268.289 107.489C269.406 105.662 269.316 103.365 269.056 101.229C268.441 96.215 267.105 91.3163 265.089 86.6845C263.076 82.0619 260.322 77.2577 261.328 72.3175C261.356 72.0255 261.443 71.7422 261.585 71.4854C261.727 71.2286 261.92 71.0038 262.153 70.8247C262 70.8118 261.847 70.8118 261.695 70.8247C260.458 70.9361 260.144 71.7856 259.98 72.5979C258.977 77.5464 261.728 82.3464 263.74 86.9649C265.756 91.5967 267.092 96.4954 267.707 101.509C267.979 103.641 268.074 105.942 266.953 107.773Z" fill="#222222"/>
<path opacity="0.1" d="M250.524 117.064C250.524 115.216 251.839 112.408 253.608 111.567C253.307 111.559 253.006 111.594 252.714 111.67C250.722 112.21 249.196 115.336 249.184 117.336C249.159 122.392 255.67 123.216 259.608 122.157C255.695 122.726 250.499 121.567 250.524 117.064Z" fill="#222222"/>
</g>
<g opacity="0.5">
<path opacity="0.5" d="M221.802 60.6969C221.802 60.6969 233.035 58.4495 238.652 60.6969C238.652 60.6969 242.021 52.833 245.39 52.833C248.759 52.833 249.881 65.2041 249.881 65.2041L254.371 83.1753C254.371 83.1753 275.711 121.365 254.371 141.579C233.031 161.794 199.34 139.32 199.34 124.718C199.34 110.115 206.078 79.7938 206.078 79.7938C206.078 79.7938 212.817 55.0845 215.064 52.8371C217.311 50.5897 221.802 60.6969 221.802 60.6969Z" fill="url(#paint7_linear)"/>
</g>
<path d="M222.182 62.2598C222.182 62.2598 232.977 60.099 238.375 62.2598C238.375 62.2598 241.613 54.701 244.854 54.701C248.095 54.701 249.171 66.5773 249.171 66.5773L253.489 83.8515C253.489 83.8515 274.004 120.553 253.489 139.996C232.973 159.439 200.582 137.835 200.582 123.802C200.582 109.769 207.06 80.6144 207.06 80.6144C207.06 80.6144 213.538 56.8619 215.699 54.701C217.86 52.5402 222.182 62.2598 222.182 62.2598Z" fill="#FFD180"/>
<g opacity="0.1">
<path opacity="0.1" d="M261.031 104.033C259.375 97.0153 256.836 90.2356 253.476 83.8557L254.157 86.5856C257.082 92.1313 259.387 97.9824 261.031 104.033Z" fill="white"/>
<path opacity="0.1" d="M202.524 120.895C202.524 106.874 207.748 83.3443 207.748 83.3443C207.748 83.3443 214.227 59.5918 216.388 57.4309C218.548 55.2701 222.866 64.9897 222.866 64.9897C222.866 64.9897 233.662 62.8289 239.06 64.9897C239.06 64.9897 242.301 57.4309 245.538 57.4309C246.775 57.4309 247.728 59.2206 248.396 61.4103C247.736 58.2062 246.614 54.701 244.858 54.701C241.621 54.701 238.379 62.2598 238.379 62.2598C232.981 60.099 222.186 62.2598 222.186 62.2598C222.186 62.2598 217.868 52.5443 215.707 54.701C213.546 56.8577 207.068 80.6144 207.068 80.6144C207.068 80.6144 201.843 104.12 201.843 118.165C201.839 119.435 202.524 121.299 202.524 120.895Z" fill="white"/>
</g>
<path d="M243.237 83.3155C244.431 83.3155 245.398 82.348 245.398 81.1546C245.398 79.9612 244.431 78.9938 243.237 78.9938C242.044 78.9938 241.076 79.9612 241.076 81.1546C241.076 82.348 242.044 83.3155 243.237 83.3155Z" fill="#58555D"/>
<path d="M218.404 83.3155C219.597 83.3155 220.565 82.348 220.565 81.1546C220.565 79.9612 219.597 78.9938 218.404 78.9938C217.211 78.9938 216.243 79.9612 216.243 81.1546C216.243 82.348 217.211 83.3155 218.404 83.3155Z" fill="#58555D"/>
<path d="M231.361 85.4763C233.149 85.4763 234.598 84.5089 234.598 83.3155C234.598 82.1221 233.149 81.1546 231.361 81.1546C229.573 81.1546 228.124 82.1221 228.124 83.3155C228.124 84.5089 229.573 85.4763 231.361 85.4763Z" fill="#58555D"/>
<path d="M259.316 78.4505L249.598 80.6084L249.833 81.6632L259.55 79.5052L259.316 78.4505Z" fill="#FFD180"/>
<path d="M260.411 82.7707L249.613 84.9225L249.824 85.9821L260.622 83.8303L260.411 82.7707Z" fill="#FFD180"/>
<path d="M200.245 75.2517L199.844 76.2549L210.641 80.5735L211.043 79.5703L200.245 75.2517Z" fill="#FFD180"/>
<path d="M196.905 80.6305L196.741 81.6983L210.778 83.8588L210.942 82.7909L196.905 80.6305Z" fill="#FFD180"/>
<path opacity="0.1" d="M228.668 97.1299C225.842 97.1324 223.021 96.8924 220.235 96.4124C214.88 95.49 209.728 93.638 205.01 90.9402L205.386 89.1959C210.156 91.7792 215.306 93.5887 220.643 94.5567C228.417 95.8886 241.786 95.4886 255.373 87.9917L256.281 89.6412C246.417 95.0928 236.033 97.1299 228.668 97.1299Z" fill="#222222"/>
<path d="M255.373 87.5918C241.765 95.0887 228.412 95.4887 220.643 94.1567C215.306 93.1887 210.156 91.3793 205.386 88.7959L204.388 90.3876C209.331 93.1045 214.684 95 220.235 96C223.022 96.4816 225.844 96.7231 228.672 96.7217C236.037 96.7217 246.404 94.6887 256.301 89.2454L255.373 87.5918ZM229.019 96.5732C228.977 96.5732 228.936 96.5609 228.902 96.5378C228.867 96.5146 228.84 96.4818 228.824 96.4434C228.808 96.4049 228.804 96.3627 228.812 96.3219C228.82 96.2811 228.84 96.2436 228.87 96.2142C228.899 96.1848 228.937 96.1647 228.978 96.1566C229.018 96.1485 229.061 96.1527 229.099 96.1686C229.138 96.1845 229.17 96.2115 229.193 96.246C229.217 96.2806 229.229 96.3213 229.229 96.3629C229.228 96.4179 229.205 96.4704 229.166 96.5089C229.127 96.5475 229.074 96.5691 229.019 96.5691V96.5732Z" fill="#F55F44"/>
<path opacity="0.1" d="M226.928 99.4928C226.928 100.046 227.148 100.577 227.539 100.968C227.93 101.36 228.461 101.579 229.014 101.579C229.568 101.579 230.098 101.36 230.49 100.968C230.881 100.577 231.101 100.046 231.101 99.4928C231.101 98.9394 230.881 98.4086 230.49 98.0173C230.098 97.626 229.568 97.4062 229.014 97.4062C228.461 97.4062 227.93 97.626 227.539 98.0173C227.148 98.4086 226.928 98.9394 226.928 99.4928ZM229.014 98.4495C228.946 98.4495 228.879 98.4291 228.822 98.3911C228.765 98.353 228.721 98.2989 228.694 98.2356C228.668 98.1723 228.661 98.1027 228.675 98.0355C228.688 97.9683 228.721 97.9066 228.769 97.8581C228.818 97.8097 228.88 97.7767 228.947 97.7633C229.014 97.75 229.084 97.7568 229.147 97.783C229.21 97.8093 229.264 97.8537 229.302 97.9106C229.34 97.9676 229.361 98.0346 229.361 98.1031C229.361 98.1942 229.325 98.2817 229.261 98.3466C229.197 98.4114 229.11 98.4484 229.018 98.4495H229.014Z" fill="url(#paint8_linear)"/>
<path d="M227.138 99.4928C227.138 99.9915 227.336 100.47 227.689 100.822C228.042 101.175 228.52 101.373 229.019 101.373C229.517 101.373 229.996 101.175 230.348 100.822C230.701 100.47 230.899 99.9915 230.899 99.4928C230.899 98.994 230.701 98.5158 230.348 98.1631C229.996 97.8105 229.517 97.6124 229.019 97.6124C228.52 97.6124 228.042 97.8105 227.689 98.1631C227.336 98.5158 227.138 98.994 227.138 99.4928ZM229.019 98.5526C228.957 98.5526 228.896 98.5342 228.844 98.4997C228.793 98.4653 228.753 98.4164 228.729 98.3591C228.705 98.3018 228.699 98.2388 228.711 98.178C228.723 98.1172 228.753 98.0614 228.797 98.0175C228.841 97.9737 228.897 97.9439 228.957 97.9318C229.018 97.9197 229.081 97.9259 229.139 97.9496C229.196 97.9733 229.245 98.0135 229.279 98.065C229.314 98.1166 229.332 98.1772 229.332 98.2392C229.332 98.3223 229.299 98.402 229.24 98.4608C229.181 98.5195 229.102 98.5526 229.019 98.5526Z" fill="#4D8AF0"/>
<path d="M252.606 88.2186C223.868 105.126 207.307 89.4557 207.307 89.4557L252.606 88.2186Z" fill="#FFD180"/>
<path d="M331.443 171.282C329.682 166.289 310.825 180.355 310.825 180.355L306.466 180.095L298.078 172.326L303.934 166.47L254.763 124.305C253.45 123.181 251.917 122.343 250.262 121.846C248.606 121.349 246.865 121.203 245.15 121.419L204.272 126.515C204.095 124.173 202.651 121.39 200.61 118.548C196.416 111.67 187.588 103.905 184.33 101.146L179.332 67.5464L183.567 61.1917C182.783 60.9774 182.012 60.7186 181.258 60.4165L182.152 59.0722L181.823 58.9814L182.235 58.4948H182.185L192.734 46.2887C193.517 45.3828 193.919 44.2085 193.854 43.0126C193.79 41.8167 193.264 40.6925 192.388 39.8763L168.779 21.9381C169.495 20.2296 169.838 18.3878 169.785 16.5361C169.971 12.9732 168.375 9.3567 163.027 6.68041C159.717 5.1025 156.251 3.87787 152.684 3.0268C146.808 1.51473 140.633 1.60586 134.804 3.29072C134.709 3.17113 134.606 3.05154 134.499 2.92783C127.233 -5.37732 117.703 6.5567 117.332 7.05155L80.0865 48.4783C79.0738 50.0865 78.7033 52.0168 79.0486 53.8857C79.394 55.7545 80.4299 57.4249 81.9504 58.5649L101.666 73.3485L101.604 73.4763L102.717 74.301C101.893 75.9505 100.742 77.0639 99.237 77.233L102.256 78.7423C101.779 79.0759 101.226 79.2844 100.647 79.3484L114.47 86.2598C114.47 93.4433 115.212 126.33 126.891 142.474C128.087 144.461 129.511 146.302 131.134 147.959C131.134 147.959 132.128 147.419 133.942 146.544L136.029 150.722C138.322 155.308 142 159.056 146.542 161.436C151.084 163.815 156.26 164.705 161.336 163.979L226.223 154.709L225.534 156.771L225.905 156.718L204.874 219.81L208.346 220.969L208.28 221.093L208.771 221.303L204.396 229.551L190.627 240.14C190.627 240.14 230.87 260.26 235.105 257.085C239.34 253.909 220.26 240.14 220.26 240.14L219.2 235.905L223.831 226.128L227.711 227.423L258.895 165.056L259.955 162.936L281.06 189.328L287.01 183.381L287.653 184.033L287.707 183.979L295.955 192.326L301.93 208.635C301.93 208.635 333.196 176.276 331.443 171.282ZM167.732 50.0041L167.319 49.5258C164.804 52.6722 160.355 56.4784 155.394 59.0557V55.5876L155.629 55.3814V53.8722C158.764 50.9858 161.032 47.2813 162.176 43.1758C163.32 39.0703 163.294 34.727 162.103 30.6351L175.802 41.1546L167.732 50.0041ZM121.237 10.899L120.907 10.5691L121.241 10.899H121.237ZM110.289 32.9526C110.198 34.0522 110.161 35.1588 110.177 36.2722C110.153 37.8888 110.243 39.5052 110.445 41.1093C111.15 46.7134 113.159 51.2948 117.295 53.4804C120.899 55.3773 123.27 55.2742 124.779 53.9794L124.944 54.1278C125.071 56.3197 125.641 58.4631 126.618 60.4289C118.898 58.8168 111.524 55.847 104.841 51.6577C104.841 51.6577 104.866 51.9381 104.895 52.4412L99.2287 46.7753L110.289 32.9526Z" fill="url(#paint9_linear)"/>
<path d="M213.678 209.184L204.421 226.672L218.821 232.841L228.078 213.299L213.678 209.184Z" fill="#FDA57D"/>
<path d="M218.821 232.841L219.847 236.965C219.847 236.965 238.363 250.338 234.247 253.423C230.132 256.507 191.043 236.965 191.043 236.965L204.416 226.676L218.821 232.841Z" fill="#333333"/>
<path opacity="0.1" d="M227.093 215.113L212.524 210.26L208.19 218.441L222.59 224.614L227.093 215.113Z" fill="#222222"/>
<path d="M279.46 176.425L293.365 190.503L303.571 178.614L287.703 163.922L279.46 176.425Z" fill="#FDA57D"/>
<path opacity="0.1" d="M288.276 164.606L280.033 177.113L285.303 182.445L295.996 171.753L288.276 164.606Z" fill="#222222"/>
<path d="M303.571 178.61L307.806 178.862C307.806 178.862 326.116 165.208 327.827 170.058C329.538 174.907 299.171 206.346 299.171 206.346L293.369 190.503L303.571 178.61Z" fill="#333333"/>
<path d="M171.732 73.3484L193.101 48.6062C193.862 47.7259 194.253 46.5846 194.189 45.4225C194.126 44.2604 193.615 43.168 192.763 42.3753L146.264 7.13402L140.619 15.9423L176.656 43.6825L161.357 60.4577L171.732 73.3484Z" fill="#FDA57D"/>
<path opacity="0.1" d="M169.278 51.8021L161.802 60L172.19 72.9072L182.911 60.5113C177.681 58.8556 172.979 55.8518 169.278 51.8021Z" fill="#222222"/>
<path d="M109.691 78.7175L85.4969 60.5732C84.0203 59.4654 83.0144 57.8428 82.679 56.0276C82.3437 54.2124 82.7033 52.3375 83.6866 50.7753L119.889 10.4907L127.311 17.9134L102.268 49.1093L117.072 63.9134L109.691 78.7175Z" fill="#FDA57D"/>
<path opacity="0.1" d="M104.573 75.0639L108.532 78.033L115.955 63.2289L106.635 53.9381C106.833 57.0887 107.39 69.332 104.573 75.0639Z" fill="#222222"/>
<path d="M227.089 150.573L204.878 217.2L227.089 224.602L264.099 150.573L234.491 143.171L227.089 150.573Z" fill="#4D8AF0"/>
<path opacity="0.1" d="M226.058 152.631L224.948 155.963L248.268 152.631L257.377 164.021L263.072 152.631L233.46 145.229L226.058 152.631Z" fill="#222222"/>
<path d="M119.839 10.5361C119.839 10.5361 129.324 -1.69485 136.528 6.53607C143.732 14.767 125.213 15.7938 125.213 15.7938L119.839 10.5361Z" fill="#FDA57D"/>
<path d="M130.854 135.769L138.008 150.082C140.235 154.537 143.808 158.178 148.22 160.49C152.632 162.801 157.659 163.666 162.59 162.961L249.295 150.59L278.907 187.604L301.113 165.398L253.34 124.449C252.065 123.357 250.577 122.543 248.969 122.059C247.361 121.575 245.67 121.433 244.004 121.641L130.854 135.769Z" fill="#4D8AF0"/>
<path opacity="0.1" d="M109.097 55.9134C109.097 55.9134 111.047 79.9546 103.645 80.7794L118.449 88.2021C118.449 88.2021 117.625 131.794 133.254 147.423C133.254 147.423 162.041 131.794 192.474 132.619C222.907 133.443 185.051 103.006 185.051 103.006L180.054 69.3072L184.177 63.1217C178.602 61.4521 173.611 58.2433 169.777 53.8639C165.654 59.0062 156.227 65.9794 148.049 65.9794H144.511C132.322 65.9794 119.357 63.5052 109.084 56.9485L109.097 55.9134Z" fill="#222222"/>
<path d="M107.724 53.8557C107.724 53.8557 109.691 77.8969 102.268 78.7175L117.072 86.1402C117.072 86.1402 116.247 129.732 131.876 145.361C131.876 145.361 160.664 129.732 191.097 130.557C221.53 131.381 183.674 100.944 183.674 100.944L178.676 67.2454L182.8 61.0598C177.225 59.3903 172.233 56.1814 168.4 51.8021C164.276 56.9443 154.85 63.9175 146.672 63.9175H143.134C130.944 63.9175 117.979 60.4247 107.707 53.8557H107.724Z" fill="#3AD29F"/>
<path d="M127.225 47.0763V55.3237C127.225 59.5123 128.889 63.5292 131.851 66.4907L149.435 84.0742L155.286 72.367C156.306 70.3287 156.837 68.0811 156.837 65.8021V47.0763H127.225Z" fill="#FDA57D"/>
<path opacity="0.1" d="M127.451 56.5979C127.451 56.9031 127.451 57.2041 127.48 57.5093C131.553 61.1413 136.82 63.1465 142.277 63.1419C147.734 63.1374 152.997 61.1234 157.064 57.4845V48.334H127.451V56.5979Z" fill="#222222"/>
<path d="M142.029 61.8845C154.293 61.8845 164.235 51.9425 164.235 39.6784C164.235 27.4142 154.293 17.4722 142.029 17.4722C129.765 17.4722 119.823 27.4142 119.823 39.6784C119.823 51.9425 129.765 61.8845 142.029 61.8845Z" fill="#FDA57D"/>
<path opacity="0.1" d="M127.225 33.4144H164.239C164.239 33.4144 179.043 18.6103 164.239 11.2082C161.025 9.67647 157.658 8.48777 154.194 7.66185C131.683 1.95464 110.276 20.5732 113.171 43.6165C113.856 49.0598 115.806 53.5134 119.823 55.6206C135.448 63.835 127.225 33.4144 127.225 33.4144Z" fill="#222222"/>
<path d="M127.225 32.3876H164.239C164.239 32.3876 179.043 17.5835 164.239 10.1814C161.025 8.64967 157.658 7.46098 154.194 6.63506C131.683 0.927841 110.276 19.5464 113.171 42.5897C113.856 48.033 115.806 52.4866 119.823 54.5938C135.448 62.8206 127.225 32.3876 127.225 32.3876Z" fill="#333333"/>
<path d="M128.297 43.567C129.433 43.567 130.355 41.9552 130.355 39.967C130.355 37.9788 129.433 36.367 128.297 36.367C127.161 36.367 126.239 37.9788 126.239 39.967C126.239 41.9552 127.161 43.567 128.297 43.567Z" fill="#FDA57D"/>
<path opacity="0.1" d="M116.981 85.7443L118.012 82.6557L121.097 84.7134L116.981 85.7443Z" fill="#222222"/>
<path opacity="0.1" d="M183.732 100.948C183.732 100.948 172.532 106.309 169.443 111.464L183.732 100.948Z" fill="#222222"/>
<path opacity="0.1" d="M178.701 67.2289L177.674 70.3134L175.616 67.2289H178.701Z" fill="#222222"/>
<path d="M127.225 32.3876H164.239C164.239 32.3876 179.043 17.5835 164.239 10.1814C161.025 8.64967 157.658 7.46098 154.194 6.63506C131.683 0.927841 110.276 19.5464 113.171 42.5897C113.856 48.033 115.806 52.4866 119.823 54.5938C135.448 62.8206 127.225 32.3876 127.225 32.3876Z" fill="#333333"/>
<path opacity="0.1" d="M226.804 115.53C226.804 115.53 234.313 131.856 224.454 133.262C214.594 134.668 219.093 119.588 219.093 119.588C219.093 119.588 218.107 115.113 215.707 114.862" fill="#222222"/>
<path opacity="0.1" d="M235.876 115.134C235.876 115.134 226.948 130.73 236.643 132.99C246.338 135.249 243.196 119.847 243.196 119.847C243.196 119.847 244.573 115.48 246.99 115.439" fill="#222222"/>
<path d="M225.934 115.072C225.934 115.072 233.443 131.398 223.584 132.804C213.724 134.21 218.223 119.13 218.223 119.13C218.223 119.13 217.237 114.643 214.845 114.392" fill="#FFD180"/>
<path d="M236.573 114.445C236.573 114.445 227.629 130.045 237.34 132.289C247.052 134.532 243.893 119.146 243.893 119.146C243.893 119.146 245.27 114.779 247.687 114.738" fill="#FFD180"/>
<path opacity="0.5" d="M220.59 129.41H220.421V132.598H220.59V129.41Z" fill="#58555D"/>
<path opacity="0.5" d="M223.319 129.41H223.15V132.598H223.319V129.41Z" fill="#58555D"/>
<path opacity="0.5" d="M221.839 128.396H221.67V132.854H221.839V128.396Z" fill="#58555D"/>
<path opacity="0.5" d="M238.322 128.73H238.153V131.918H238.322V128.73Z" fill="#58555D"/>
<path opacity="0.5" d="M241.051 128.73H240.882V131.918H241.051V128.73Z" fill="#58555D"/>
<path opacity="0.5" d="M239.571 127.711H239.402V132.169H239.571V127.711Z" fill="#58555D"/>
<g opacity="0.5">
<path opacity="0.5" d="M232.786 315.928C243.062 312.481 248.598 301.357 245.152 291.081C241.706 280.805 230.582 275.269 220.306 278.715C210.03 282.161 204.493 293.285 207.94 303.561C211.386 313.837 222.51 319.374 232.786 315.928Z" fill="url(#paint10_linear)"/>
</g>
<path d="M232.387 314.739C242.007 311.513 247.19 301.099 243.963 291.48C240.737 281.86 230.324 276.677 220.704 279.904C211.085 283.13 205.902 293.543 209.128 303.163C212.354 312.782 222.768 317.965 232.387 314.739Z" fill="#F55F44"/>
<g opacity="0.5">
<path opacity="0.5" d="M177.654 321.93C175.014 322.817 171.728 322.186 170.503 319.654C169.798 318.19 169.967 316.553 170.132 314.969C170.313 313.233 170.466 311.736 169.489 310.767C168.984 310.337 168.389 310.026 167.748 309.856C166.924 309.579 166.033 309.348 165.183 309.126C163.669 308.778 162.189 308.292 160.763 307.674C157.959 306.359 156.165 304.136 155.967 301.728C155.798 299.666 156.792 297.786 157.74 295.984C158.689 294.181 159.645 292.392 159.192 290.623C158.577 288.235 155.711 287.101 153.188 286.087L152.775 285.93C149.691 284.693 146.383 282.082 147.208 278.734C147.497 277.567 148.235 276.672 148.948 275.847C149.432 275.311 149.848 274.717 150.185 274.078C151.299 271.732 149.773 269.019 149.093 267.959C148.561 267.134 147.93 266.375 147.32 265.621C146.363 264.512 145.516 263.313 144.792 262.041L144.676 261.827C143.002 258.66 142.969 258.528 143.109 255.076V254.664L144.569 254.722V255.134C144.445 258.264 144.445 258.264 145.967 261.142L146.082 261.357C146.763 262.546 147.557 263.666 148.454 264.701C149.084 265.48 149.736 266.289 150.309 267.15C152.078 269.827 152.511 272.577 151.501 274.701C151.106 275.447 150.618 276.14 150.049 276.763C149.414 277.522 148.812 278.239 148.606 279.08C147.963 281.682 151.249 283.753 153.295 284.569L153.687 284.726C156.396 285.798 159.769 287.134 160.569 290.239C161.163 292.544 160.062 294.623 158.994 296.635C158.099 298.326 157.249 299.934 157.385 301.583C157.567 303.798 159.55 305.485 161.344 306.33C162.69 306.91 164.085 307.365 165.513 307.691C166.388 307.918 167.291 308.157 168.173 308.449C169.031 308.685 169.821 309.117 170.482 309.711C171.955 311.171 171.748 313.171 171.55 315.105C171.402 316.548 171.258 317.913 171.785 319.002C172.738 320.973 175.691 321.262 177.744 320.293C179.427 319.501 180.75 318.153 182.152 316.73C182.606 316.268 183.076 315.794 183.555 315.34C186.169 312.866 188.812 311.786 191.204 312.202C191.963 312.36 192.703 312.599 193.41 312.915C193.961 313.157 194.53 313.353 195.113 313.501C196.414 313.733 197.753 313.466 198.865 312.753C199.977 312.041 200.78 310.936 201.113 309.658C201.167 309.414 201.204 309.159 201.245 308.891C201.373 308.033 201.517 307.06 202.202 306.305C202.887 305.551 203.971 305.274 204.742 305.097L212.701 303.258L213.031 304.68L205.072 306.52C204.317 306.693 203.662 306.874 203.287 307.287C202.911 307.699 202.8 308.388 202.697 309.105C202.656 309.386 202.61 309.678 202.548 309.967C202.13 311.622 201.095 313.056 199.657 313.975C198.218 314.895 196.482 315.231 194.804 314.915C194.142 314.75 193.495 314.53 192.87 314.256C192.257 313.98 191.617 313.77 190.961 313.629C188.536 313.216 186.148 314.895 184.569 316.388C184.111 316.821 183.649 317.291 183.204 317.74C181.773 319.192 180.297 320.697 178.379 321.6C178.144 321.724 177.902 321.834 177.654 321.93Z" fill="url(#paint11_linear)"/>
</g>
<path d="M177.852 321.204C175.212 322.091 171.926 321.46 170.701 318.928C169.996 317.464 170.165 315.827 170.33 314.243C170.511 312.507 170.664 311.01 169.687 310.041C169.182 309.612 168.587 309.3 167.946 309.13C167.122 308.854 166.231 308.623 165.381 308.4C163.867 308.052 162.387 307.566 160.961 306.948C158.157 305.633 156.363 303.41 156.165 301.002C155.996 298.94 156.99 297.06 157.938 295.258C158.887 293.456 159.843 291.666 159.39 289.897C158.775 287.509 155.909 286.375 153.386 285.361L152.973 285.204C149.889 283.967 146.581 281.357 147.406 278.008C147.695 276.841 148.433 275.946 149.146 275.122C149.63 274.585 150.046 273.991 150.383 273.353C151.497 271.006 149.971 268.293 149.291 267.233C148.759 266.408 148.128 265.649 147.518 264.895C146.561 263.786 145.714 262.588 144.99 261.315L144.874 261.101C143.2 257.934 143.167 257.802 143.307 254.35V253.938L144.767 253.996V254.408C144.643 257.538 144.643 257.538 146.165 260.416L146.28 260.631C146.961 261.82 147.755 262.94 148.652 263.975C149.282 264.755 149.934 265.563 150.507 266.425C152.276 269.101 152.709 271.852 151.699 273.975C151.304 274.721 150.816 275.414 150.247 276.037C149.612 276.796 149.01 277.513 148.804 278.355C148.161 280.957 151.447 283.027 153.493 283.843L153.885 284C156.594 285.072 159.967 286.408 160.767 289.513C161.361 291.819 160.26 293.897 159.192 295.909C158.297 297.6 157.447 299.208 157.583 300.858C157.765 303.072 159.748 304.759 161.542 305.604C162.888 306.184 164.283 306.639 165.711 306.965C166.586 307.192 167.489 307.431 168.371 307.724C169.229 307.959 170.019 308.391 170.68 308.986C172.153 310.445 171.946 312.445 171.748 314.379C171.6 315.823 171.456 317.188 171.983 318.276C172.936 320.247 175.889 320.536 177.942 319.567C179.625 318.775 180.948 317.427 182.351 316.004C182.804 315.542 183.274 315.068 183.753 314.614C186.367 312.14 189.01 311.06 191.402 311.476C192.161 311.634 192.901 311.873 193.608 312.19C194.159 312.431 194.728 312.627 195.311 312.775C196.612 313.007 197.951 312.74 199.063 312.027C200.175 311.315 200.978 310.21 201.311 308.932C201.365 308.689 201.402 308.433 201.443 308.165C201.571 307.307 201.715 306.334 202.4 305.579C203.085 304.825 204.169 304.548 204.94 304.371L212.899 302.532L213.229 303.955L205.27 305.794C204.515 305.967 203.86 306.148 203.485 306.561C203.109 306.973 202.998 307.662 202.895 308.379C202.854 308.66 202.808 308.953 202.746 309.241C202.328 310.897 201.293 312.33 199.855 313.25C198.416 314.169 196.68 314.505 195.002 314.19C194.34 314.024 193.693 313.804 193.068 313.53C192.455 313.254 191.815 313.044 191.159 312.903C188.734 312.491 186.346 314.169 184.767 315.662C184.309 316.095 183.847 316.565 183.402 317.014C181.971 318.466 180.495 319.971 178.577 320.874C178.342 320.998 178.1 321.108 177.852 321.204Z" fill="#F55F44"/>
<path opacity="0.2" d="M225.476 284.235C225.476 284.235 235.641 282.697 240.619 296.882" stroke="#222222" stroke-miterlimit="10"/>
<path opacity="0.2" d="M214.231 306.833C214.231 306.833 206.685 296.153 220.132 284.375" stroke="#222222" stroke-miterlimit="10"/>
<path opacity="0.2" d="M217.319 302.932C217.319 302.932 213.678 297.328 217.497 292.305" stroke="#222222" stroke-miterlimit="10"/>
<path opacity="0.2" d="M223.839 290.177C223.839 290.177 228.66 292.082 229.336 300.664" stroke="#222222" stroke-miterlimit="10"/>
<path opacity="0.2" d="M229.497 280.132C229.497 280.132 237.027 281.571 242.28 291.926" stroke="#222222" stroke-miterlimit="10"/>
<path opacity="0.2" d="M219.794 283.386C219.794 283.386 223.353 280.87 226.656 282.186" stroke="#222222" stroke-miterlimit="10"/>
<path opacity="0.2" d="M222.482 307.134C222.482 307.134 227.241 310.161 239.505 301.427" stroke="#222222" stroke-miterlimit="10"/>
<path opacity="0.2" d="M221.637 313.155C221.637 313.155 224.615 316.12 230.812 313.6" stroke="#222222" stroke-miterlimit="10"/>
<path opacity="0.2" d="M212.808 286.833C211.53 288.729 210.671 290.877 210.288 293.132C209.906 295.387 210.008 297.697 210.59 299.909" stroke="#222222" stroke-miterlimit="10"/>
<path opacity="0.2" d="M216.804 305.967C216.804 305.967 216.412 308.742 219.518 310.12" stroke="#222222" stroke-miterlimit="10"/>
<path opacity="0.2" d="M241.489 302.755C241.489 302.755 241.299 308.115 238.33 308.437" stroke="#222222" stroke-miterlimit="10"/>
<path opacity="0.2" d="M225.196 310.639C226.988 310.878 228.811 310.705 230.526 310.134C232.241 309.562 233.803 308.607 235.093 307.34" stroke="#222222" stroke-miterlimit="10"/>
<path opacity="0.2" d="M229.781 291.489C229.781 291.489 232.359 293.266 232.103 296.437" stroke="#222222" stroke-miterlimit="10"/>
<path opacity="0.2" d="M219.951 295.006C219.951 295.006 219.233 298.771 221.085 301.01" stroke="#222222" stroke-miterlimit="10"/>
<path opacity="0.2" d="M222.128 294.276C222.128 294.276 224.775 297.575 224.054 300.016" stroke="#222222" stroke-miterlimit="10"/>
</g>
<defs>
<linearGradient id="paint0_linear" x1="200" y1="254.132" x2="200" y2="37.332" gradientUnits="userSpaceOnUse">
<stop stop-color="#808080" stop-opacity="0.25"/>
<stop offset="0.54" stop-color="#808080" stop-opacity="0.12"/>
<stop offset="1" stop-color="#808080" stop-opacity="0.1"/>
</linearGradient>
<linearGradient id="paint1_linear" x1="31355.2" y1="-183208" x2="21423" y2="-197330" gradientUnits="userSpaceOnUse">
<stop stop-color="#808080" stop-opacity="0.25"/>
<stop offset="0.54" stop-color="#808080" stop-opacity="0.12"/>
<stop offset="1" stop-color="#808080" stop-opacity="0.1"/>
</linearGradient>
<linearGradient id="paint2_linear" x1="4589.2" y1="-26585.1" x2="4411.93" y2="-26837.1" gradientUnits="userSpaceOnUse">
<stop stop-color="#808080" stop-opacity="0.25"/>
<stop offset="0.54" stop-color="#808080" stop-opacity="0.12"/>
<stop offset="1" stop-color="#808080" stop-opacity="0.1"/>
</linearGradient>
<linearGradient id="paint3_linear" x1="5357.67" y1="-26164.5" x2="5180.35" y2="-26416.6" gradientUnits="userSpaceOnUse">
<stop stop-color="#808080" stop-opacity="0.25"/>
<stop offset="0.54" stop-color="#808080" stop-opacity="0.12"/>
<stop offset="1" stop-color="#808080" stop-opacity="0.1"/>
</linearGradient>
<linearGradient id="paint4_linear" x1="4188.77" y1="-25700.1" x2="4011.45" y2="-25952.2" gradientUnits="userSpaceOnUse">
<stop stop-color="#808080" stop-opacity="0.25"/>
<stop offset="0.54" stop-color="#808080" stop-opacity="0.12"/>
<stop offset="1" stop-color="#808080" stop-opacity="0.1"/>
</linearGradient>
<linearGradient id="paint5_linear" x1="4914.38" y1="-25248.2" x2="4737.05" y2="-25500.3" gradientUnits="userSpaceOnUse">
<stop stop-color="#808080" stop-opacity="0.25"/>
<stop offset="0.54" stop-color="#808080" stop-opacity="0.12"/>
<stop offset="1" stop-color="#808080" stop-opacity="0.1"/>
</linearGradient>
<linearGradient id="paint6_linear" x1="22928.6" y1="19264.5" x2="22928.6" y2="11497.1" gradientUnits="userSpaceOnUse">
<stop stop-color="#808080" stop-opacity="0.25"/>
<stop offset="0.54" stop-color="#808080" stop-opacity="0.12"/>
<stop offset="1" stop-color="#808080" stop-opacity="0.1"/>
</linearGradient>
<linearGradient id="paint7_linear" x1="43852.4" y1="41040" x2="43852.4" y2="18169.3" gradientUnits="userSpaceOnUse">
<stop stop-color="#808080" stop-opacity="0.25"/>
<stop offset="0.54" stop-color="#808080" stop-opacity="0.12"/>
<stop offset="1" stop-color="#808080" stop-opacity="0.1"/>
</linearGradient>
<linearGradient id="paint8_linear" x1="229.018" y1="101.579" x2="229.018" y2="97.4062" gradientUnits="userSpaceOnUse">
<stop stop-color="white"/>
<stop offset="1"/>
</linearGradient>
<linearGradient id="paint9_linear" x1="154832" y1="175946" x2="154832" y2="15239.7" gradientUnits="userSpaceOnUse">
<stop stop-color="#808080" stop-opacity="0.25"/>
<stop offset="0.54" stop-color="#808080" stop-opacity="0.12"/>
<stop offset="1" stop-color="#808080" stop-opacity="0.1"/>
</linearGradient>
<linearGradient id="paint10_linear" x1="40171.8" y1="-26271.5" x2="38984" y2="-29813.4" gradientUnits="userSpaceOnUse">
<stop stop-color="#808080" stop-opacity="0.25"/>
<stop offset="0.54" stop-color="#808080" stop-opacity="0.12"/>
<stop offset="1" stop-color="#808080" stop-opacity="0.1"/>
</linearGradient>
<linearGradient id="paint11_linear" x1="64223" y1="-46287.3" x2="60323.9" y2="-57913.6" gradientUnits="userSpaceOnUse">
<stop stop-color="#808080" stop-opacity="0.25"/>
<stop offset="0.54" stop-color="#808080" stop-opacity="0.12"/>
<stop offset="1" stop-color="#808080" stop-opacity="0.1"/>
</linearGradient>
<clipPath id="clip0">
<rect width="400" height="322.313" fill="white"/>
</clipPath>
</defs>
</svg>
