<svg width="20" height="20" viewBox="0 0 20 20" fill="none" xmlns="http://www.w3.org/2000/svg">
<path d="M7.5 9.16667H5.83333V10.8333H7.5V9.16667ZM10.8333 9.16667H9.16667V10.8333H10.8333V9.16667ZM14.1667 9.16667H12.5V10.8333H14.1667V9.16667ZM15.8333 3.33334H15V1.66667H13.3333V3.33334H6.66667V1.66667H5V3.33334H4.16667C3.24167 3.33334 2.50833 4.08334 2.50833 5.00001L2.5 16.6667C2.5 17.1087 2.67559 17.5326 2.98816 17.8452C3.30072 18.1577 3.72464 18.3333 4.16667 18.3333H15.8333C16.75 18.3333 17.5 17.5833 17.5 16.6667V5.00001C17.5 4.08334 16.75 3.33334 15.8333 3.33334ZM15.8333 16.6667H4.16667V7.5H15.8333V16.6667Z" fill="#222222"/>
</svg>
