<svg width="25" height="25" viewBox="0 0 25 25" fill="none" xmlns="http://www.w3.org/2000/svg">
<path d="M12.5 9.375C11.6729 9.38046 10.8812 9.71145 10.2963 10.2963C9.71145 10.8812 9.38046 11.6729 9.375 12.5C9.375 14.2104 10.7896 15.625 12.5 15.625C14.2094 15.625 15.625 14.2104 15.625 12.5C15.625 10.7906 14.2094 9.375 12.5 9.375Z" fill="#222222"/>
<path d="M12.5 5.20833C4.54896 5.20833 2.15938 12.101 2.1375 12.1708L2.02708 12.5L2.13646 12.8292C2.15938 12.899 4.54896 19.7917 12.5 19.7917C20.451 19.7917 22.8406 12.899 22.8625 12.8292L22.9729 12.5L22.8635 12.1708C22.8406 12.101 20.451 5.20833 12.5 5.20833ZM12.5 17.7083C6.92604 17.7083 4.76667 13.7021 4.24375 12.5C4.76875 11.2937 6.92917 7.29167 12.5 7.29167C18.074 7.29167 20.2333 11.2979 20.7563 12.5C20.2313 13.7062 18.0708 17.7083 12.5 17.7083Z" fill="#222222"/>
</svg>
