<svg width="22" height="21" viewBox="0 0 22 21" fill="none" xmlns="http://www.w3.org/2000/svg">
<path d="M10.918 12.7969C11.5271 12.7969 12.1114 12.5549 12.5421 12.1241C12.9728 11.6934 13.2148 11.1092 13.2148 10.5C13.2148 10.4327 13.2118 10.3661 13.206 10.3003L10.7182 12.7881C10.784 12.7938 10.8505 12.7969 10.918 12.7969ZM18.5206 3.39527L17.6445 2.52C17.6138 2.48926 17.572 2.47198 17.5286 2.47198C17.4851 2.47198 17.4433 2.48926 17.4126 2.52L15.1707 4.76253C13.9339 4.13048 12.5437 3.81445 11 3.81445C7.05839 3.81445 4.11757 5.86728 2.17754 9.97295C2.09956 10.1381 2.05911 10.3184 2.05911 10.501C2.05911 10.6836 2.09956 10.864 2.17754 11.0291C2.95273 12.6619 3.88618 13.9707 4.97788 14.9553L2.80836 17.124C2.77761 17.1548 2.76034 17.1965 2.76034 17.24C2.76034 17.2835 2.77761 17.3252 2.80836 17.356L3.68383 18.2314C3.7146 18.2622 3.75631 18.2795 3.79981 18.2795C3.8433 18.2795 3.88501 18.2622 3.91578 18.2314L18.5206 3.62742C18.5359 3.61218 18.548 3.59409 18.5562 3.57417C18.5645 3.55426 18.5687 3.53291 18.5687 3.51135C18.5687 3.48979 18.5645 3.46844 18.5562 3.44852C18.548 3.4286 18.5359 3.41051 18.5206 3.39527ZM7.30859 10.5C7.30853 9.87657 7.46995 9.26376 7.77713 8.72127C8.0843 8.17877 8.52675 7.72508 9.06138 7.4044C9.59601 7.08373 10.2046 6.90699 10.8278 6.89142C11.451 6.87585 12.0677 7.02197 12.6177 7.31555L11.6206 8.31264C11.2184 8.18388 10.7886 8.16837 10.3783 8.26782C9.96793 8.36726 9.5929 8.57782 9.29434 8.87638C8.99578 9.17494 8.78523 9.54997 8.68578 9.96032C8.58634 10.3707 8.60184 10.8005 8.7306 11.2026L7.73351 12.1997C7.4537 11.6769 7.30772 11.093 7.30859 10.5V10.5Z" fill="#222222"/>
<path d="M19.8225 9.9709C19.1006 8.45059 18.2414 7.21089 17.2448 6.25181L14.2888 9.20801C14.538 9.85937 14.5933 10.5689 14.4479 11.251C14.3025 11.9331 13.9627 12.5585 13.4696 13.0516C12.9764 13.5447 12.3511 13.8845 11.669 14.0299C10.9869 14.1753 10.2773 14.12 9.62598 13.8709L7.1187 16.3782C8.2819 16.9164 9.57567 17.1855 11 17.1855C14.9416 17.1855 17.8824 15.1327 19.8225 11.0271C19.9005 10.8619 19.9409 10.6816 19.9409 10.499C19.9409 10.3164 19.9005 10.136 19.8225 9.9709V9.9709Z" fill="#222222"/>
</svg>
