<svg width="21" height="21" viewBox="0 0 21 21" fill="none" xmlns="http://www.w3.org/2000/svg">
<path d="M18.6712 8.86792H18V8.83334H10.5V12.1667H15.2096C14.5225 14.1071 12.6762 15.5 10.5 15.5C7.73875 15.5 5.5 13.2613 5.5 10.5C5.5 7.73876 7.73875 5.50001 10.5 5.50001C11.7746 5.50001 12.9342 5.98084 13.8171 6.76625L16.1742 4.40917C14.6858 3.02209 12.695 2.16667 10.5 2.16667C5.89791 2.16667 2.16666 5.89792 2.16666 10.5C2.16666 15.1021 5.89791 18.8333 10.5 18.8333C15.1021 18.8333 18.8333 15.1021 18.8333 10.5C18.8333 9.94126 18.7758 9.39584 18.6712 8.86792Z" fill="#FFC107"/>
<path d="M3.1275 6.62125L5.86542 8.62917C6.60625 6.79501 8.40042 5.50001 10.5 5.50001C11.7746 5.50001 12.9342 5.98084 13.8171 6.76625L16.1742 4.40917C14.6858 3.02209 12.695 2.16667 10.5 2.16667C7.29917 2.16667 4.52334 3.97376 3.1275 6.62125Z" fill="#FF3D00"/>
<path d="M10.5 18.8333C12.6525 18.8333 14.6083 18.0096 16.0871 16.67L13.5079 14.4875C12.6431 15.1452 11.5864 15.5009 10.5 15.5C8.3325 15.5 6.49209 14.1179 5.79875 12.1892L3.08125 14.2829C4.46042 16.9817 7.26125 18.8333 10.5 18.8333Z" fill="#4CAF50"/>
<path d="M18.6712 8.86791H18V8.83333H10.5V12.1667H15.2096C14.8809 13.0902 14.2889 13.8972 13.5067 14.4879L13.5079 14.4871L16.0871 16.6696C15.9046 16.8354 18.8333 14.6667 18.8333 10.5C18.8333 9.94124 18.7758 9.39583 18.6712 8.86791Z" fill="#1976D2"/>
</svg>
