<svg width="350" height="284" viewBox="0 0 350 284" fill="none" xmlns="http://www.w3.org/2000/svg">
<g clip-path="url(#clip0)">
<path d="M137.953 271.913H0V272.671H137.953V271.913Z" fill="#3F3D56"/>
<path d="M324.438 145.092L323.958 144.912C323.853 144.872 313.349 140.848 308.429 131.723C303.508 122.598 305.918 111.611 305.943 111.502L306.056 111.001L306.536 111.181C306.642 111.221 317.145 115.245 322.065 124.37C326.986 133.495 324.576 144.482 324.551 144.592L324.438 145.092ZM309.217 131.298C313.377 139.013 321.677 142.968 323.78 143.871C324.18 141.617 325.434 132.502 321.277 124.795C317.122 117.088 308.818 113.127 306.714 112.222C306.314 114.477 305.061 123.591 309.217 131.298Z" fill="#3F3D56"/>
<path d="M312.568 129.28C321.41 134.6 324.816 145.167 324.816 145.167C324.816 145.167 313.885 147.108 305.043 141.789C296.2 136.469 292.795 125.902 292.795 125.902C292.795 125.902 303.726 123.96 312.568 129.28Z" fill="#D0CDE1"/>
<path d="M323.091 174.716C315.957 174.708 309.118 171.87 304.073 166.825C299.029 161.781 296.191 154.941 296.183 147.807V147.428H350V147.807C349.992 154.941 347.154 161.781 342.11 166.825C337.065 171.87 330.226 174.708 323.091 174.716ZM296.944 148.186C297.043 155.055 299.842 161.61 304.735 166.432C309.628 171.254 316.222 173.958 323.091 173.958C329.961 173.958 336.555 171.254 341.448 166.432C346.341 161.61 349.14 155.055 349.239 148.186H296.944Z" fill="#3F3D56"/>
<path d="M323.092 169.978C327.816 169.978 332.346 168.102 335.687 164.761C339.027 161.421 340.904 156.89 340.904 152.166H305.279C305.279 156.89 307.156 161.421 310.496 164.761C313.837 168.102 318.367 169.978 323.092 169.978Z" fill="#6C63FF"/>
<path d="M85.4629 42.8262C96.1378 42.8262 104.792 34.1725 104.792 23.4976C104.792 12.8227 96.1378 4.16893 85.4629 4.16893C74.788 4.16893 66.1343 12.8227 66.1343 23.4976C66.1343 34.1725 74.788 42.8262 85.4629 42.8262Z" fill="#2F2E41"/>
<path d="M79.2095 36.5728C79.2095 36.5728 81.8625 54.3855 76.9356 58.5544C72.0087 62.7233 84.8944 80.157 84.8944 80.157L102.328 52.1115C102.328 52.1115 89.0633 48.7006 95.8852 38.4678L79.2095 36.5728Z" fill="#A0616A"/>
<path d="M72.7666 88.8739L70.1175 99.2734L67.4607 109.718L58.3649 108.96L62.5338 91.5268C62.5338 91.5268 61.7758 75.2301 61.3969 71.4402C61.3062 70.7445 61.359 70.0377 61.5522 69.3633C61.6821 68.8922 61.9563 68.4736 62.3363 68.1663C62.7163 67.8591 63.183 67.6786 63.6708 67.6502L72.7666 88.8739Z" fill="#575A89"/>
<path d="M82.9995 234.028L71.6297 236.302L70.523 226.634L66.5398 191.763L65.5658 183.243L78.8305 179.453L78.7434 182.485L78.4515 192.718C79.0234 194.716 79.4477 196.752 79.7212 198.812C80.281 202.692 80.4903 206.614 80.3465 210.531C79.9675 221.142 82.9995 234.028 82.9995 234.028Z" fill="#A0616A"/>
<path d="M70.8717 235.544L82.6205 232.133L89.0633 248.051L98.1592 269.275C98.1592 269.275 109.908 284.813 97.4012 282.918C84.8944 281.023 82.9995 277.991 82.9995 276.475V273.822L81.4835 274.201L80.3465 273.064L78.8305 261.695C78.8305 261.695 75.4196 258.663 76.9356 254.494L70.8717 235.544Z" fill="#2F2E41"/>
<path opacity="0.2" d="M79.7212 198.812L79.5885 199.161C79.5885 199.161 77.614 217.58 71.209 225.425L70.523 226.634L66.5398 191.763L69.0411 182.485H78.7434L78.4515 192.718C79.0234 194.715 79.4477 196.752 79.7212 198.812Z" fill="black"/>
<path d="M84.8944 182.485L78.4515 199.161C78.4515 199.161 76.4769 217.581 70.0739 225.426L61.7759 240.092C61.7759 240.092 51.922 236.681 52.68 236.681C53.438 236.681 59.1229 217.353 59.1229 217.353L64.4288 195.371L67.9039 182.485H84.8944Z" fill="#A0616A"/>
<path d="M65.1868 235.544L53.438 232.133L46.9951 248.051L37.8993 269.275C37.8993 269.275 26.1505 284.813 38.6573 282.918C51.1641 281.023 53.059 277.991 53.059 276.475V273.822L54.575 274.201L55.712 273.064L57.2279 261.695C57.2279 261.695 60.6389 258.663 59.1229 254.494L65.1868 235.544Z" fill="#2F2E41"/>
<path d="M88.4949 41.6892C95.8208 41.6892 101.76 35.7504 101.76 28.4245C101.76 21.0986 95.8208 15.1597 88.4949 15.1597C81.1689 15.1597 75.2301 21.0986 75.2301 28.4245C75.2301 35.7504 81.1689 41.6892 88.4949 41.6892Z" fill="#A0616A"/>
<path opacity="0.2" d="M72.7667 88.8739L70.1175 99.2734L67.8397 99.1067C67.7784 98.1785 67.52 97.2741 67.0818 96.4537C66.3238 94.9377 67.0818 96.0747 68.5977 94.5587C70.1137 93.0428 68.9767 93.8008 67.8397 91.9058C66.7028 90.0108 68.5977 85.8419 68.5977 85.8419C66.4754 84.3259 63.6708 67.6502 63.6708 67.6502L72.7667 88.8739Z" fill="black"/>
<path d="M85.2734 74.4721L77.3146 57.0385L62.1548 67.6503C62.1548 67.6503 67.0818 83.9469 69.7347 85.8419C69.7347 85.8419 67.8397 90.0108 68.9767 91.9058C70.1137 93.8008 71.2507 93.0428 69.7347 94.5588C68.2187 96.0747 67.4607 94.9377 68.2187 96.4537C68.657 97.2741 68.9154 98.1785 68.9767 99.1067L104.981 101.76L107.255 95.3167C107.255 95.3167 111.803 86.5999 110.287 74.4721L115.972 53.6275L100.054 50.9746L85.2734 74.4721Z" fill="#575A89"/>
<path d="M106.191 99.5648C106.191 99.5648 112.561 113.508 106.118 136.248C99.6751 158.988 93.9902 182.864 93.9902 182.864L64.8078 186.275L64.0498 173.01L53.817 171.494C53.817 171.494 55.333 128.668 59.8809 118.056C64.4288 107.445 68.7633 97.855 68.7633 97.855L106.191 99.5648Z" fill="#2F2E41"/>
<path opacity="0.2" d="M71.0583 126.146L63.8721 172.764L64.6212 172.88L71.8074 126.261L71.0583 126.146Z" fill="black"/>
<path d="M98.4785 17.8607C97.6637 15.6345 96.0135 13.8133 93.8781 12.7837C91.2342 11.5246 88.1524 11.6256 85.2542 12.0452C81.9111 12.5291 78.3974 13.5406 76.2389 16.139C74.8542 17.8058 74.1888 19.9379 73.555 22.0101C72.8223 24.4057 72.0835 26.8374 72.0187 29.3417C72.0283 31.076 72.2003 32.8056 72.5325 34.5079C72.6273 35.4435 72.8931 36.3539 73.3167 37.1935C73.7906 38.0033 74.6564 38.6538 75.5928 38.5951C74.6692 36.9365 74.2382 35.0488 74.3501 33.1537C74.4621 31.2586 75.1124 29.4347 76.2248 27.8964C76.7693 27.2012 77.3605 26.5439 77.9941 25.9289L82.8119 21.0368C84.2898 19.5361 85.834 17.9914 87.8071 17.2543C88.9416 16.8432 90.1595 16.7162 91.3544 16.8845C92.5493 17.0527 93.6848 17.511 94.6617 18.2194C95.4767 18.8292 96.1538 19.6042 96.6487 20.4937C97.0016 21.1226 97.8209 23.1483 97.8209 23.1483C97.8209 23.1483 98.7699 18.6689 98.4785 17.8607Z" fill="#2F2E41"/>
<path d="M75.4196 31.0774C76.1522 31.0774 76.7461 29.8897 76.7461 28.4245C76.7461 26.9593 76.1522 25.7715 75.4196 25.7715C74.687 25.7715 74.0931 26.9593 74.0931 28.4245C74.0931 29.8897 74.687 31.0774 75.4196 31.0774Z" fill="#A0616A"/>
<path d="M76.7461 12.1278C80.0951 12.1278 82.81 9.41288 82.81 6.06389C82.81 2.7149 80.0951 0 76.7461 0C73.3971 0 70.6822 2.7149 70.6822 6.06389C70.6822 9.41288 73.3971 12.1278 76.7461 12.1278Z" fill="#2F2E41"/>
<path d="M91.1962 123.594H68.6204C68.0522 123.594 67.5072 123.368 67.1054 122.966C66.7037 122.564 66.4779 122.019 66.4779 121.451L65.4831 91.9115C65.4831 91.6302 65.5385 91.3516 65.6462 91.0916C65.7538 90.8317 65.9116 90.5955 66.1106 90.3966C66.3095 90.1976 66.5457 90.0398 66.8056 89.9322C67.0656 89.8245 67.3442 89.7691 67.6255 89.7691H92.191C92.7592 89.7691 93.3042 89.9948 93.706 90.3966C94.1078 90.7984 94.3335 91.3433 94.3335 91.9115L93.3386 121.451C93.3386 122.019 93.1129 122.564 92.7111 122.966C92.3093 123.368 91.7644 123.594 91.1962 123.594Z" fill="#3F3D56"/>
<path d="M79.9083 100.712C81.0072 100.712 81.898 99.8216 81.898 98.7227C81.898 97.6238 81.0072 96.733 79.9083 96.733C78.8094 96.733 77.9186 97.6238 77.9186 98.7227C77.9186 99.8216 78.8094 100.712 79.9083 100.712Z" fill="#D0CDE1"/>
<path d="M106.876 99.4856L94.1146 100.959C94.1146 100.959 72.3877 99.8646 77.6936 106.308C82.9995 112.75 95.1272 107.445 95.1272 107.445L111.045 106.687L106.876 99.4856Z" fill="#A0616A"/>
<path d="M60.5974 103.075C60.5974 103.075 56.3827 104.944 58.4465 108.374C60.5102 111.803 70.2724 115.273 71.5409 110.172C72.8095 105.07 65.5013 103.461 63.6867 103.218C62.6638 103.072 61.6294 103.024 60.5974 103.075Z" fill="#A0616A"/>
<path d="M111.424 55.1435L115.972 53.6275C117.497 55.0482 118.554 56.8985 119.004 58.9334C119.762 62.3443 131.89 101.002 125.826 104.034C119.762 107.066 109.15 111.992 109.15 111.992L104.223 99.1067L112.182 94.9377L109.15 78.262C109.15 78.262 106.118 55.1435 111.424 55.1435Z" fill="#575A89"/>
<path d="M267.948 174.526H170.926V77.5041H267.948V174.526ZM171.684 173.768H267.19V78.2621H171.684V173.768Z" fill="#3F3D56"/>
<path d="M256.199 89.2528H182.675V162.777H256.199V89.2528Z" fill="#6C63FF"/>
<path d="M210.094 140.867C207.894 134.042 205.12 129.206 201.364 125.649L201.124 125.422L201.316 125.153C208.504 115.119 214.434 105.303 218.944 95.9777L219.277 95.2877L219.623 95.9718C225.382 107.37 231.246 116.912 237.551 125.143L237.746 125.399L237.526 125.634C232.96 130.483 230.001 135.462 228.48 140.853L227.75 140.648C229.281 135.223 232.227 130.216 236.754 125.349C230.621 117.304 224.902 108.019 219.292 96.9946C214.847 106.07 209.074 115.597 202.124 125.327C205.855 128.952 208.621 133.827 210.815 140.634L210.094 140.867Z" fill="#3F3D56"/>
<path d="M219.664 96.1428H218.906V125.374H219.664V96.1428Z" fill="#3F3D56"/>
<path d="M219.285 127.505C220.462 127.505 221.416 126.551 221.416 125.374C221.416 124.197 220.462 123.242 219.285 123.242C218.108 123.242 217.153 124.197 217.153 125.374C217.153 126.551 218.108 127.505 219.285 127.505Z" fill="#3F3D56"/>
<path d="M233.873 139.343L204.396 158.946L204.816 159.578L234.293 139.974L233.873 139.343Z" fill="#CFCCE0"/>
<path d="M202.81 149.081C201.504 148.19 201.135 147.317 201.098 147.225L201.804 146.949L201.451 147.087L201.803 146.946C201.825 147 204.22 152.348 219.638 149.429C235.786 146.37 237.668 151.138 237.74 151.342L237.025 151.595C237.01 151.557 235.129 147.267 219.779 150.173C209.715 152.079 204.975 150.556 202.81 149.081Z" fill="#3F3D56"/>
<path d="M203.182 145.023L199.458 145.728L200.163 149.452L203.887 148.747L203.182 145.023Z" fill="#3F3D56"/>
<path d="M238.449 148.952L234.725 149.657L235.43 153.381L239.154 152.676L238.449 148.952Z" fill="#3F3D56"/>
<path d="M219.514 151.442C220.56 151.442 221.409 150.593 221.409 149.547C221.409 148.5 220.56 147.652 219.514 147.652C218.467 147.652 217.619 148.5 217.619 149.547C217.619 150.593 218.467 151.442 219.514 151.442Z" fill="#CFCCE0"/>
<path d="M204.606 161.157C205.652 161.157 206.501 160.308 206.501 159.262C206.501 158.215 205.652 157.367 204.606 157.367C203.559 157.367 202.711 158.215 202.711 159.262C202.711 160.308 203.559 161.157 204.606 161.157Z" fill="#CFCCE0"/>
<path d="M234.083 141.553C235.129 141.553 235.978 140.704 235.978 139.658C235.978 138.611 235.129 137.763 234.083 137.763C233.036 137.763 232.188 138.611 232.188 139.658C232.188 140.704 233.036 141.553 234.083 141.553Z" fill="#CFCCE0"/>
<path d="M219.816 126.001H219.058V132.822H219.816V126.001Z" fill="#3F3D56"/>
<path d="M346.4 174.133H162.967V174.891H346.4V174.133Z" fill="#3F3D56"/>
</g>
<defs>
<clipPath id="clip0">
<rect width="350" height="283.078" fill="white"/>
</clipPath>
</defs>
</svg>
