<svg width="228" height="57" viewBox="0 0 228 57" fill="none" xmlns="http://www.w3.org/2000/svg">
<ellipse cx="79.501" cy="29.12" rx="6.21027" ry="6.38104" fill="#5392A0"/>
<ellipse cx="44.6607" cy="29.12" rx="6.21027" ry="6.38104" fill="#5392A0"/>
<path d="M67.6467 49.5579C59.8116 52.4972 52.1765 51.5043 46.6174 50.2802C44.8425 49.8893 43.4422 51.2075 44.643 52.2302C55.0882 61.127 66.42 55.6161 69.9013 50.7645C70.6517 49.7187 69.0937 49.0151 67.6467 49.5579Z" fill="#2B5373"/>
<path d="M0.101318 43.9931V1.16252H9.06736V36.1881H19.9685V43.9931H0.101318Z" fill="#2B5373"/>
<path d="M38.8742 37.8007C43.9915 37.8007 46.5502 34.5755 46.5502 28.1251C46.5502 21.7178 43.9915 18.5141 38.8742 18.5141C33.7569 18.5141 31.1982 21.7178 31.1982 28.1251C31.1982 34.5755 33.7569 37.8007 38.8742 37.8007ZM38.8742 44.8316C36.294 44.8316 33.9934 44.4231 31.9723 43.6061C29.9512 42.789 28.2311 41.6494 26.812 40.1874C25.4359 38.7253 24.3823 36.9622 23.6513 34.898C22.9202 32.8339 22.5547 30.5763 22.5547 28.1251C22.5547 25.631 22.9202 23.3518 23.6513 21.2877C24.4253 19.2236 25.5219 17.4605 26.941 15.9984C28.3601 14.5363 30.0587 13.4183 32.0368 12.6442C34.0579 11.8272 36.337 11.4186 38.8742 11.4186C41.3683 11.4186 43.6045 11.8272 45.5826 12.6442C47.5607 13.4183 49.2378 14.5363 50.6139 15.9984C52.033 17.4175 53.108 19.1591 53.8391 21.2232C54.6131 23.2873 55.0002 25.588 55.0002 28.1251C55.0002 30.6623 54.6131 32.9629 53.8391 35.027C53.108 37.0482 52.033 38.7898 50.6139 40.2519C49.2378 41.7139 47.5392 42.8535 45.5181 43.6706C43.54 44.4446 41.3253 44.8316 38.8742 44.8316Z" fill="#2B5373"/>
<path d="M73.3308 37.8007C78.4482 37.8007 81.0068 34.5755 81.0068 28.1251C81.0068 21.7178 78.4482 18.5141 73.3308 18.5141C68.2135 18.5141 65.6549 21.7178 65.6549 28.1251C65.6549 34.5755 68.2135 37.8007 73.3308 37.8007ZM73.3308 44.8316C70.7507 44.8316 68.45 44.4231 66.4289 43.6061C64.4078 42.789 62.6877 41.6494 61.2686 40.1874C59.8925 38.7253 58.839 36.9622 58.1079 34.898C57.3769 32.8339 57.0114 30.5763 57.0114 28.1251C57.0114 25.631 57.3769 23.3518 58.1079 21.2877C58.882 19.2236 59.9785 17.4605 61.3976 15.9984C62.8167 14.5363 64.5153 13.4183 66.4934 12.6442C68.5146 11.8272 70.7937 11.4186 73.3308 11.4186C75.825 11.4186 78.0611 11.8272 80.0392 12.6442C82.0174 13.4183 83.6945 14.5363 85.0705 15.9984C86.4896 17.4175 87.5647 19.1591 88.2957 21.2232C89.0698 23.2873 89.4568 25.588 89.4568 28.1251C89.4568 30.6623 89.0698 32.9629 88.2957 35.027C87.5647 37.0482 86.4896 38.7898 85.0705 40.2519C83.6945 41.7139 81.9959 42.8535 79.9747 43.6706C77.9966 44.4446 75.782 44.8316 73.3308 44.8316Z" fill="#2B5373"/>
<path d="M111.658 43.9931L104.691 29.7377L100.628 33.9305V43.9931H92.1776V0.646484H100.628V24.3194L111.077 12.2572H121.333L110.69 23.9324L121.075 43.9931H111.658Z" fill="#2B5373"/>
<path d="M139.748 28.4477C139.318 28.8777 138.694 29.2217 137.877 29.4797C137.06 29.7377 135.877 30.0172 134.329 30.3183C131.921 30.7913 130.266 31.3933 129.363 32.1244C128.459 32.8554 128.008 33.909 128.008 35.2851C128.008 37.6502 129.363 38.8328 132.072 38.8328C133.147 38.8328 134.136 38.6608 135.039 38.3167C135.985 37.9297 136.78 37.4352 137.426 36.8332C138.114 36.1881 138.651 35.4571 139.038 34.64C139.468 33.78 139.683 32.8769 139.683 31.9309L139.748 28.4477ZM140.328 43.9931C140.07 43.176 139.898 42.23 139.812 41.1549C138.823 42.273 137.512 43.176 135.877 43.8641C134.243 44.5091 132.351 44.8316 130.201 44.8316C126.546 44.8316 123.858 44.0361 122.138 42.445C120.461 40.8109 119.622 38.7038 119.622 36.1236C119.622 33.8445 119.988 32.0384 120.719 30.7053C121.45 29.3292 122.461 28.2541 123.751 27.4801C125.041 26.7061 126.567 26.147 128.33 25.803C130.137 25.416 132.093 25.0719 134.2 24.7709C136.307 24.4699 137.727 24.0829 138.458 23.6099C139.189 23.0938 139.554 22.2768 139.554 21.1587C139.554 20.1267 139.06 19.3311 138.071 18.7721C137.124 18.17 135.834 17.869 134.2 17.869C132.265 17.869 130.868 18.299 130.008 19.1591C129.191 20.0191 128.674 21.1587 128.459 22.5778H120.655C120.698 20.9437 120.956 19.4386 121.429 18.0625C121.945 16.6864 122.74 15.5039 123.815 14.5148C124.933 13.5258 126.374 12.7732 128.137 12.2572C129.9 11.6982 132.05 11.4186 134.587 11.4186C137.081 11.4186 139.189 11.6982 140.909 12.2572C142.672 12.8162 144.069 13.6333 145.101 14.7083C146.177 15.7404 146.951 17.052 147.424 18.6431C147.897 20.1912 148.133 21.9543 148.133 23.9324V43.9931H140.328Z" fill="#2B5373"/>
<path d="M170.803 28.4477C170.373 28.8777 169.749 29.2217 168.932 29.4797C168.115 29.7377 166.933 30.0172 165.384 30.3183C162.976 30.7913 161.321 31.3933 160.418 32.1244C159.515 32.8554 159.063 33.909 159.063 35.2851C159.063 37.6502 160.418 38.8328 163.127 38.8328C164.202 38.8328 165.191 38.6608 166.094 38.3167C167.04 37.9297 167.836 37.4352 168.481 36.8332C169.169 36.1881 169.706 35.4571 170.093 34.64C170.523 33.78 170.738 32.8769 170.738 31.9309L170.803 28.4477ZM171.383 43.9931C171.125 43.176 170.953 42.23 170.867 41.1549C169.878 42.273 168.567 43.176 166.933 43.8641C165.298 44.5091 163.406 44.8316 161.256 44.8316C157.601 44.8316 154.913 44.0361 153.193 42.445C151.516 40.8109 150.678 38.7038 150.678 36.1236C150.678 33.8445 151.043 32.0384 151.774 30.7053C152.505 29.3292 153.516 28.2541 154.806 27.4801C156.096 26.7061 157.622 26.147 159.386 25.803C161.192 25.416 163.148 25.0719 165.255 24.7709C167.363 24.4699 168.782 24.0829 169.513 23.6099C170.244 23.0938 170.609 22.2768 170.609 21.1587C170.609 20.1267 170.115 19.3311 169.126 18.7721C168.18 18.17 166.89 17.869 165.255 17.869C163.32 17.869 161.923 18.299 161.063 19.1591C160.246 20.0191 159.73 21.1587 159.515 22.5778H151.71C151.753 20.9437 152.011 19.4386 152.484 18.0625C153 16.6864 153.795 15.5039 154.87 14.5148C155.988 13.5258 157.429 12.7732 159.192 12.2572C160.955 11.6982 163.105 11.4186 165.642 11.4186C168.137 11.4186 170.244 11.6982 171.964 12.2572C173.727 12.8162 175.124 13.6333 176.157 14.7083C177.232 15.7404 178.006 17.052 178.479 18.6431C178.952 20.1912 179.188 21.9543 179.188 23.9324V43.9931H171.383Z" fill="#2B5373"/>
<path d="M219.79 43.9931V24.7709C219.79 22.8358 219.338 21.2662 218.435 20.0621C217.532 18.8581 216.328 18.256 214.823 18.256C213.275 18.256 211.985 18.9011 210.953 20.1912C209.964 21.4812 209.469 23.0938 209.469 25.0289V43.9931H201.084V24.8999C201.084 23.6099 200.998 22.5563 200.826 21.7392C200.654 20.9222 200.353 20.2772 199.923 19.8041C199.536 19.3311 199.02 19.0086 198.375 18.8366C197.73 18.6216 196.956 18.5141 196.052 18.5141C192.655 18.5141 190.957 20.5782 190.957 24.7064V43.9931H182.571V12.2572H190.441V16.9015C191.516 14.7943 192.806 13.3537 194.311 12.5797C195.816 11.8057 197.622 11.4186 199.729 11.4186C200.804 11.4186 201.75 11.5046 202.567 11.6766C203.427 11.8487 204.18 12.1497 204.825 12.5797C205.513 12.9667 206.158 13.4828 206.76 14.1278C207.362 14.7728 207.964 15.5469 208.566 16.4499C209.426 14.6868 210.566 13.4183 211.985 12.6442C213.404 11.8272 215.124 11.4186 217.145 11.4186C218.736 11.4186 220.198 11.6982 221.532 12.2572C222.865 12.7732 224.004 13.5258 224.95 14.5148C225.896 15.4609 226.627 16.5789 227.143 17.869C227.702 19.1591 227.982 20.5352 227.982 21.9973V43.9931H219.79Z" fill="#2B5373"/>
</svg>
