<svg width="68" height="47" viewBox="0 0 68 47" fill="none" xmlns="http://www.w3.org/2000/svg">
<ellipse cx="57.3997" cy="18.4736" rx="6.21027" ry="6.38104" fill="#5392A0"/>
<ellipse cx="22.5594" cy="18.4736" rx="6.21027" ry="6.38104" fill="#5392A0"/>
<path d="M45.5454 38.9114C37.7103 41.8507 30.0752 40.8578 24.5161 39.6337C22.7412 39.2429 21.3409 40.561 22.5416 41.5837C32.9869 50.4805 44.3187 44.9697 47.8 40.118C48.5504 39.0722 46.9923 38.3686 45.5454 38.9114Z" fill="#2B5373"/>
<path d="M16.7728 27.1542C21.8902 27.1542 24.4488 23.929 24.4488 17.4786C24.4488 11.0712 21.8902 7.86752 16.7728 7.86752C11.6555 7.86752 9.09689 11.0712 9.09689 17.4786C9.09689 23.929 11.6555 27.1542 16.7728 27.1542ZM16.7728 34.1851C14.1927 34.1851 11.8921 33.7766 9.87093 32.9595C7.84981 32.1425 6.12971 31.0029 4.71062 29.5408C3.33454 28.0787 2.28098 26.3156 1.54993 24.2515C0.818891 22.1874 0.453369 19.9297 0.453369 17.4786C0.453369 14.9844 0.818891 12.7053 1.54993 10.6412C2.32398 8.57706 3.42054 6.81396 4.83963 5.35187C6.25872 3.88978 7.95732 2.77171 9.93543 1.99767C11.9566 1.18062 14.2357 0.772095 16.7728 0.772095C19.267 0.772095 21.5031 1.18062 23.4812 1.99767C25.4594 2.77171 27.1365 3.88978 28.5125 5.35187C29.9316 6.77095 31.0067 8.51256 31.7377 10.5767C32.5118 12.6408 32.8988 14.9414 32.8988 17.4786C32.8988 20.0157 32.5118 22.3164 31.7377 24.3805C31.0067 26.4016 29.9316 28.1432 28.5125 29.6053C27.1365 31.0674 25.4379 32.207 23.4167 33.024C21.4386 33.7981 19.224 34.1851 16.7728 34.1851Z" fill="#2B5373"/>
<path d="M51.2295 27.1542C56.3468 27.1542 58.9055 23.929 58.9055 17.4786C58.9055 11.0712 56.3468 7.86752 51.2295 7.86752C46.1122 7.86752 43.5535 11.0712 43.5535 17.4786C43.5535 23.929 46.1122 27.1542 51.2295 27.1542ZM51.2295 34.1851C48.6493 34.1851 46.3487 33.7766 44.3276 32.9595C42.3065 32.1425 40.5864 31.0029 39.1673 29.5408C37.7912 28.0787 36.7376 26.3156 36.0066 24.2515C35.2755 22.1874 34.91 19.9297 34.91 17.4786C34.91 14.9844 35.2755 12.7053 36.0066 10.6412C36.7806 8.57706 37.8772 6.81396 39.2963 5.35187C40.7154 3.88978 42.414 2.77171 44.3921 1.99767C46.4132 1.18062 48.6923 0.772095 51.2295 0.772095C53.7236 0.772095 55.9598 1.18062 57.9379 1.99767C59.916 2.77171 61.5931 3.88978 62.9692 5.35187C64.3883 6.77095 65.4634 8.51256 66.1944 10.5767C66.9684 12.6408 67.3555 14.9414 67.3555 17.4786C67.3555 20.0157 66.9684 22.3164 66.1944 24.3805C65.4634 26.4016 64.3883 28.1432 62.9692 29.6053C61.5931 31.0674 59.8945 32.207 57.8734 33.024C55.8953 33.7981 53.6806 34.1851 51.2295 34.1851Z" fill="#2B5373"/>
</svg>
