<svg width="17" height="18" viewBox="0 0 17 18" fill="none" xmlns="http://www.w3.org/2000/svg">
<path fill-rule="evenodd" clip-rule="evenodd" d="M8.08745 17.4H8.97495L11.125 15.25H14.125L14.75 14.625V11.6L16.925 9.45V8.5625L14.7875 6.4125V3.3625L14.1625 2.75H11.125L8.97495 0.612503H8.08745L5.99995 2.75H2.91245L2.24995 3.375V6.4125L0.137451 8.5625V9.45L2.24995 11.6V14.625L2.91245 15.25H5.99995L8.08745 17.4ZM6.19995 14H3.49995V11.3375L3.34995 10.9L1.46245 9L3.31245 7.1125L3.49995 6.675V4H6.19995L6.64995 3.825L8.49995 1.9375L10.425 3.825L10.8625 4H13.5V6.675L13.7125 7.1125L15.6124 9L13.675 10.9L13.5 11.3375V14H10.8625L10.3875 14.1875L8.49995 16.075L6.64995 14.175L6.19995 14ZM8.0037 6.67625C7.93056 6.78779 7.87649 6.91072 7.8437 7.04C7.8062 7.17625 7.7812 7.30875 7.7662 7.43625L7.75995 7.49H6.6412L6.64495 7.42625C6.66745 7.01875 6.7562 6.6575 6.90995 6.34625C6.97495 6.21125 7.0562 6.07875 7.1512 5.94875C7.25245 5.81625 7.3762 5.69875 7.5187 5.59875C7.66745 5.49375 7.83745 5.41125 8.02995 5.34875C8.24861 5.27978 8.47695 5.24644 8.7062 5.25C9.0562 5.25 9.35995 5.3075 9.6137 5.425C9.8637 5.53625 10.0712 5.6875 10.2312 5.87875C10.39 6.06875 10.5062 6.28625 10.58 6.52875C10.6525 6.77125 10.6887 7.02125 10.6887 7.2775C10.6887 7.51625 10.6487 7.74125 10.5662 7.9525C10.4862 8.1575 10.3875 8.3525 10.2687 8.535C10.1512 8.71375 10.0225 8.885 9.8812 9.0475C9.7437 9.20875 9.61745 9.3625 9.5012 9.5125C9.39374 9.64595 9.29758 9.78811 9.2137 9.9375C9.14361 10.0584 9.10574 10.1953 9.1037 10.335V10.935H7.9937V10.2613C7.9937 10.0513 8.03245 9.8575 8.1112 9.68125C8.19269 9.50377 8.29329 9.33569 8.4112 9.18C8.5312 9.02125 8.6612 8.8675 8.7962 8.72C8.92799 8.57787 9.05272 8.42936 9.16995 8.275C9.2862 8.125 9.38245 7.9675 9.45495 7.80375C9.53084 7.63879 9.56925 7.45907 9.56745 7.2775C9.56859 7.14276 9.54877 7.00866 9.5087 6.88V6.87875C9.47731 6.76687 9.42185 6.66321 9.3462 6.575C9.27355 6.48824 9.18089 6.42046 9.0762 6.3775H9.07495C8.95935 6.32624 8.83388 6.30106 8.70745 6.30375C8.55934 6.29861 8.41268 6.33451 8.2837 6.4075C8.17291 6.47648 8.07793 6.56806 8.00495 6.67625H8.0037ZM9.12495 12.75H8.01495V11.64H9.12495V12.75Z" fill="#F25858"/>
</svg>
