<svg width="20" height="20" viewBox="0 0 20 20" fill="none" xmlns="http://www.w3.org/2000/svg">
<path d="M16.3833 3.325C14.1833 1.825 11.4667 2.525 10 4.24166C8.53334 2.525 5.81667 1.81666 3.61667 3.325C2.45 4.125 1.71667 5.475 1.66667 6.9C1.55 10.1333 4.41667 12.725 8.79167 16.7L8.875 16.775C9.50834 17.35 10.4833 17.35 11.1167 16.7667L11.2083 16.6833C15.5833 12.7167 18.4417 10.125 18.3333 6.89166C18.2833 5.475 17.55 4.125 16.3833 3.325ZM10.0833 15.4583L10 15.5417L9.91667 15.4583C5.95 11.8667 3.33334 9.49166 3.33334 7.08333C3.33334 5.41666 4.58334 4.16666 6.25 4.16666C7.53334 4.16666 8.78334 4.99166 9.225 6.13333H10.7833C11.2167 4.99166 12.4667 4.16666 13.75 4.16666C15.4167 4.16666 16.6667 5.41666 16.6667 7.08333C16.6667 9.49166 14.05 11.8667 10.0833 15.4583Z" fill="#222222"/>
</svg>
