<svg width="25" height="25" viewBox="0 0 25 25" fill="none" xmlns="http://www.w3.org/2000/svg">
<path opacity="0.3" d="M17.1875 5.20833C15.5833 5.20833 14.0208 6.23958 13.4792 7.66666H11.5312C10.9792 6.23958 9.41666 5.20833 7.8125 5.20833C5.72916 5.20833 4.16666 6.77083 4.16666 8.85416C4.16666 11.8646 7.4375 14.8333 12.3958 19.3229L12.5 19.4271L12.6042 19.3229C17.5625 14.8333 20.8333 11.8646 20.8333 8.85416C20.8333 6.77083 19.2708 5.20833 17.1875 5.20833Z" fill="white"/>
<path d="M17.1875 3.125C15.375 3.125 13.6354 3.96875 12.5 5.30208C11.3646 3.96875 9.625 3.125 7.8125 3.125C4.60417 3.125 2.08334 5.64583 2.08334 8.85417C2.08334 12.7917 5.625 16 10.9896 20.875L12.5 22.2396L14.0104 20.8646C19.375 16 22.9167 12.7917 22.9167 8.85417C22.9167 5.64583 20.3958 3.125 17.1875 3.125ZM12.6042 19.3229L12.5 19.4271L12.3958 19.3229C7.4375 14.8333 4.16667 11.8646 4.16667 8.85417C4.16667 6.77083 5.72917 5.20833 7.8125 5.20833C9.41667 5.20833 10.9792 6.23958 11.5313 7.66667H13.4792C14.0208 6.23958 15.5833 5.20833 17.1875 5.20833C19.2708 5.20833 20.8333 6.77083 20.8333 8.85417C20.8333 11.8646 17.5625 14.8333 12.6042 19.3229Z" fill="white"/>
</svg>
