<svg width="20" height="21" viewBox="0 0 20 21" fill="none" xmlns="http://www.w3.org/2000/svg">
<path d="M13.3335 15.5V17.1667C13.3335 17.6087 13.1579 18.0326 12.8453 18.3452C12.5328 18.6577 12.1089 18.8333 11.6668 18.8333H5.00016C4.55814 18.8333 4.13421 18.6577 3.82165 18.3452C3.50909 18.0326 3.3335 17.6087 3.3335 17.1667V8C3.3335 7.55797 3.50909 7.13405 3.82165 6.82149C4.13421 6.50893 4.55814 6.33333 5.00016 6.33333H6.66683L13.3335 15.5ZM12.2377 2.16666H8.3335C7.89147 2.16666 7.46755 2.34226 7.15499 2.65482C6.84242 2.96738 6.66683 3.3913 6.66683 3.83333V13.8333C6.66683 14.2754 6.84242 14.6993 7.15499 15.0118C7.46755 15.3244 7.89147 15.5 8.3335 15.5H15.0002C15.4422 15.5 15.8661 15.3244 16.1787 15.0118C16.4912 14.6993 16.6668 14.2754 16.6668 13.8333V6.535C16.6668 6.31296 16.6224 6.09317 16.5363 5.88853C16.4501 5.6839 16.3239 5.49853 16.1652 5.34333L13.4027 2.64166C13.0913 2.33721 12.6731 2.16672 12.2377 2.16666V2.16666Z" stroke="#222222" stroke-width="1.66667" stroke-linecap="round" stroke-linejoin="round"/>
</svg>
