<svg width="350" height="259" viewBox="0 0 350 259" fill="none" xmlns="http://www.w3.org/2000/svg">
<g clip-path="url(#clip0)">
<path opacity="0.1" d="M232.077 249.148C286.381 249.148 330.403 244.709 330.403 239.233C330.403 233.758 286.381 229.319 232.077 229.319C177.773 229.319 133.751 233.758 133.751 239.233C133.751 244.709 177.773 249.148 232.077 249.148Z" fill="#4D69B4"/>
<path opacity="0.1" d="M203.351 36.3827C180.915 35.7316 159.543 29.7022 139.138 23.1031C118.734 16.504 98.517 9.20056 76.616 5.70378C62.5287 3.45608 46.4223 3.13677 35.0711 9.42596C24.1519 15.4741 20.6206 25.9206 18.7236 35.6095C17.2961 42.9005 16.4571 50.5765 20.3671 57.401C23.0844 62.1405 27.9053 66.1225 31.2393 70.6618C42.8441 86.4583 34.6422 105.933 22.0669 121.354C16.1691 128.589 9.32891 135.491 4.77716 143.192C0.2254 150.894 -1.87517 159.725 2.1037 167.573C6.05127 175.358 15.4553 181.206 25.6451 185.32C46.3378 193.675 70.7244 196.067 94.5162 197.419C147.137 200.421 200.042 199.119 252.832 197.82C272.363 197.341 291.964 196.852 311.194 194.339C321.863 192.942 332.879 190.726 340.621 185.376C350.457 178.583 352.893 167.084 346.303 158.566C335.252 144.282 304.692 140.723 296.966 125.405C292.715 116.968 297.082 107.561 303.261 99.7348C316.516 82.949 338.736 68.22 339.907 49.0206C340.712 35.8412 330.03 22.643 313.514 16.407C296.202 9.87049 272.191 10.6938 259.422 21.5128C246.274 32.67 223.164 36.9556 203.351 36.3827Z" fill="#4D69B4"/>
<path opacity="0.5" d="M53.9418 196.039C51.4624 194.933 53.5599 182.928 58.9506 164.42C62.3941 152.546 67.2089 137.996 73.0379 121.936C73.4573 120.784 73.8831 119.629 74.3088 118.461C74.7889 117.153 75.2751 115.834 75.7677 114.505L75.8115 114.395C75.8804 114.204 75.9524 114.016 76.0212 113.828C77.887 108.82 79.8373 103.695 81.8721 98.4544C81.9097 98.348 81.9504 98.2447 81.9911 98.1414L82.0944 97.8753C82.5828 96.6231 83.0774 95.3709 83.5751 94.0968C83.6284 93.9653 83.6784 93.8275 83.7317 93.6961C83.8037 93.5114 83.8757 93.3329 83.9445 93.1513C83.9696 93.095 83.9884 93.0355 84.0134 92.9854C84.0541 92.8759 84.0979 92.7694 84.1386 92.6724C84.6395 91.4202 85.1373 90.1523 85.635 88.9158C86.449 86.8914 87.2566 84.8868 88.058 82.9021C88.1979 82.5535 88.3387 82.2092 88.4806 81.869C88.8834 80.8693 89.2873 79.877 89.6922 78.8919C89.8487 78.5162 90.0052 78.1374 90.1555 77.7649C90.2744 77.48 90.3903 77.192 90.5061 76.9103C91.7771 73.8361 93.0397 70.8215 94.294 67.8663C94.2971 67.8561 94.2971 67.8451 94.294 67.8349C99.068 56.587 103.686 46.2595 107.974 37.2311C107.999 37.1842 108.018 37.1341 108.043 37.0871L108.497 36.1292C119.504 13.0542 128.163 -1.18645 131.09 0.128359C134.102 1.46822 130.351 18.9552 122.134 44.6629C122.027 45.0042 121.918 45.3391 121.805 45.6804C121.788 45.7472 121.767 45.8131 121.742 45.8776C121.325 47.2091 120.886 48.5656 120.424 49.9472C120.399 50.0286 120.371 50.11 120.343 50.1914C119.299 53.3845 118.189 56.682 117.012 60.0838C116.852 60.5409 116.699 61.0073 116.53 61.4706C114.714 66.7268 112.773 72.1989 110.692 77.84C110.566 78.1875 110.438 78.5319 110.31 78.8825C108.228 84.5331 106.033 90.3495 103.736 96.285C103.588 96.6606 103.441 97.0394 103.297 97.4182C103.266 97.4996 103.235 97.5779 103.2 97.6593C102.626 99.1306 102.049 100.608 101.469 102.092C101.303 102.505 101.156 102.919 100.981 103.329C100.568 104.377 100.154 105.426 99.7286 106.459C99.6941 106.553 99.6565 106.647 99.619 106.738C99.5814 106.829 99.5595 106.885 99.5282 106.957C99.4593 107.138 99.3873 107.317 99.3153 107.495C99.1212 107.981 98.9303 108.466 98.7362 108.945C98.4012 109.784 98.0663 110.613 97.7313 111.449L97.628 111.7C97.6288 111.711 97.6288 111.723 97.628 111.734C96.2673 115.096 94.9107 118.401 93.5583 121.648C93.1034 122.744 92.6494 123.832 92.1966 124.913C91.8616 125.712 91.5298 126.507 91.1948 127.293C88.7092 133.169 86.2674 138.794 83.8882 144.125C69.5004 176.316 57.4918 197.623 53.9418 196.039Z" fill="#4D69B4"/>
<path opacity="0.5" d="M59.8177 173.69C58.29 173.032 60.1871 164.492 64.4884 151.225C67.2433 142.717 70.9905 132.261 75.4452 120.697L76.4188 118.192C76.784 117.251 77.1555 116.301 77.5332 115.344C77.545 115.317 77.5555 115.29 77.5645 115.262L77.7273 114.855C79.1486 111.238 80.6314 107.544 82.1758 103.773C82.204 103.695 82.2353 103.623 82.2666 103.548C82.2979 103.473 82.3167 103.419 82.3448 103.357C82.7142 102.449 83.0868 101.544 83.4624 100.63L83.5845 100.339L83.7442 99.9477C83.7629 99.907 83.7786 99.8632 83.7943 99.8256C83.8099 99.788 83.86 99.6722 83.8913 99.5971C84.2711 98.683 84.6478 97.7761 85.0214 96.8766C85.635 95.4157 86.2434 93.9684 86.8465 92.5346L87.1595 91.7896C87.4726 91.0664 87.7669 90.3527 88.0705 89.6389L88.418 88.825C88.5088 88.6184 88.5933 88.4118 88.681 88.1989C89.6347 85.9804 90.5812 83.8016 91.5203 81.6624C91.5222 81.6552 91.5222 81.6477 91.5203 81.6405C95.0891 73.5012 98.5202 66.0318 101.669 59.4859C101.688 59.4515 101.704 59.4139 101.723 59.3795L102.054 58.6845C110.15 41.9457 116.336 31.5305 118.139 32.31C119.995 33.1114 116.784 45.5802 110.344 64.0376L110.087 64.7702C110.072 64.8171 110.056 64.8641 110.037 64.9111C109.703 65.8669 109.36 66.8384 109.007 67.8256L108.945 68.0009C108.125 70.2966 107.262 72.6664 106.356 75.1102C106.234 75.4421 106.112 75.777 105.983 76.1089C104.581 79.8874 103.081 83.8287 101.497 87.8921L101.206 88.6403C99.6158 92.7099 97.9462 96.8902 96.1973 101.181C96.0877 101.453 95.9782 101.726 95.8655 101.998C95.8404 102.058 95.8154 102.114 95.7935 102.173L94.4818 105.37L94.1124 106.262C93.7993 107.019 93.4863 107.777 93.1732 108.525C93.1482 108.594 93.12 108.66 93.0918 108.726C93.0637 108.791 93.048 108.832 93.023 108.885L92.8633 109.27C92.7162 109.621 92.5722 109.972 92.4251 110.319L91.6894 112.141L91.6111 112.323V112.348C90.5843 114.777 89.5659 117.163 88.5557 119.507C88.2156 120.3 87.8743 121.087 87.5321 121.867C87.2816 122.448 87.0312 123.022 86.7808 123.589C84.9212 127.834 83.1024 131.907 81.3368 135.764C70.6461 159.099 62.0059 174.635 59.8177 173.69Z" fill="#4D69B4"/>
<path d="M160.532 110.344C160.532 109.471 159.678 109.921 159.559 109.959C159.215 109.677 158.842 109.435 158.444 109.236C156.538 108.244 153.658 107.639 151.363 107.286C151.355 107.283 151.346 107.283 151.338 107.286C149.316 106.973 147.757 106.866 147.757 106.866L146.564 106.882H146.12C146.276 106.65 146.505 106.477 146.771 106.39C147.102 106.35 145.368 106.221 144.545 106.165H144.51L144.129 106.14C142.319 106.566 138.929 104.24 138.929 104.24L138.534 102.255C139.874 100.805 139.68 97.1834 139.68 97.1834C139.68 97.1834 139.793 95.9688 140.932 94.2971C142.072 92.6254 140.741 91.5673 140.741 91.5673L142.71 89.4667C142.626 89.1044 142.614 88.729 142.675 88.362C142.736 87.995 142.87 87.6438 143.067 87.3286C143.187 87.1505 143.337 86.9939 143.509 86.8653V86.8496L143.54 86.8215C144.827 85.8353 145.913 82.4106 145.913 82.4106C145.913 82.4106 145.662 81.8001 147.071 80.1441V80.1253C147.259 79.9062 147.478 79.6714 147.732 79.4084C147.732 79.3865 147.769 79.3677 147.788 79.3458C150.048 77.0793 149.159 75.8271 149.159 75.8271L146.414 72.49C147.062 71.4068 141.859 63.6338 141.859 63.6338C141.859 63.6338 141.195 62.0341 141.571 60.5033C141.676 60.1427 141.687 59.7611 141.602 59.3951C141.553 59.1884 141.451 58.9977 141.308 58.841C141.22 58.7466 141.113 58.671 140.995 58.6187L140.807 58.6031L141.029 58.4403C141.12 58.3808 141.208 58.3151 141.299 58.2525C141.493 58.3276 141.687 58.3933 141.884 58.4528C143.795 59.0701 145.83 59.1969 147.803 58.8217C149.775 58.4464 151.622 57.5811 153.173 56.3053C153.251 56.2458 153.326 56.1801 153.398 56.1143C153.47 56.0486 153.595 55.9453 153.692 55.8545C153.736 55.8138 153.78 55.7762 153.817 55.7355C153.855 55.6948 153.965 55.5915 154.037 55.5164C154.058 55.5853 154.08 55.651 154.105 55.7199C154.204 55.9973 154.322 56.2673 154.459 56.5276C154.471 56.5516 154.484 56.5746 154.5 56.5964C154.499 56.6058 154.499 56.6152 154.5 56.6246C154.522 56.6716 154.55 56.7154 154.575 56.7592C154.753 57.0576 154.97 57.3312 155.22 57.5731C155.281 57.6335 155.346 57.69 155.414 57.7422C155.511 57.8255 155.616 57.8999 155.727 57.9645C155.743 57.9788 155.761 57.9914 155.78 58.002C155.799 58.0163 155.819 58.0289 155.84 58.0396V58.0396C155.921 57.8956 155.999 57.7484 156.075 57.6013C156.739 56.3045 157.126 54.8832 157.211 53.4283C157.215 53.2513 157.229 53.0746 157.255 52.8993C157.272 52.7654 157.311 52.6353 157.371 52.5142C157.486 52.2763 157.673 52.0804 157.906 51.9539C158.281 51.7628 158.676 51.6117 159.083 51.5031L159.18 51.4687L159.299 51.428L159.531 51.3372L159.568 51.3184C159.637 51.2902 159.7 51.2558 159.765 51.2245C159.785 51.2101 159.806 51.1976 159.828 51.1869C159.903 51.1451 159.974 51.0969 160.041 51.0429L160.072 51.0179C160.133 50.9717 160.189 50.9204 160.241 50.8645C160.266 50.8394 160.282 50.8081 160.307 50.7831C160.342 50.7451 160.373 50.7043 160.401 50.661L160.476 50.5514C160.492 50.5166 160.511 50.4832 160.532 50.4512C160.772 49.9659 160.88 49.4261 160.845 48.886C160.802 48.1096 160.573 47.3583 160.582 46.5788C160.611 44.7162 161.954 42.938 161.835 41.0879C161.728 39.4851 160.548 38.2391 159.33 37.2436C158.112 36.2481 156.76 35.3184 156.093 33.894C155.596 32.8265 155.527 31.5837 155.079 30.4943C154.14 28.2121 151.385 26.9255 148.896 27.6048C147.406 28.0149 146.11 29.001 144.661 29.5488C143.703 29.9089 142.698 30.0716 141.743 30.4379C140.615 30.8737 139.605 31.5661 138.791 32.4602C138.647 32.6167 138.512 32.7733 138.381 32.9486L138.259 33.1145C138.168 33.2397 138.077 33.3649 137.996 33.4964C137.958 33.5528 137.924 33.606 137.889 33.6655C137.775 33.8466 137.671 34.0337 137.576 34.2258C137.486 34.4043 137.407 34.5858 137.329 34.7705C136.894 35.8224 136.625 36.9431 136.102 37.9449C135.986 38.173 135.854 38.3927 135.707 38.6023C135.504 38.8934 135.269 39.1658 135.038 39.4413C134.975 39.5164 134.912 39.5915 134.85 39.6604C134.824 39.6969 134.796 39.7315 134.765 39.7637C134.721 39.8232 134.671 39.8795 134.624 39.939C134.577 39.9985 134.568 40.011 134.543 40.0454C134.518 40.0799 134.449 40.1738 134.408 40.2395C134.368 40.3053 134.361 40.299 134.339 40.3334C134.277 40.4305 134.22 40.5307 134.164 40.6308V40.6528C133.989 40.9898 133.892 41.3624 133.882 41.7422C133.879 41.9301 133.906 42.1174 133.964 42.2963C133.979 42.3422 133.997 42.3871 134.017 42.4309C134.064 42.5316 134.126 42.6245 134.202 42.7064C134.164 42.8097 134.12 42.9161 134.086 43.0194C134.004 43.2573 133.929 43.5015 133.86 43.7426C133.817 43.9085 133.782 44.0556 133.745 44.2278C133.599 44.8618 133.505 45.5068 133.466 46.1562V46.1562L133.266 46.2595C132.913 46.4345 132.55 46.5882 132.179 46.7197V46.7197H132.142C131.829 46.7885 129.669 47.2393 128.911 47.1079L126.209 46.6352C126.209 46.6352 125.583 46.3753 124.898 46.0466C124.38 45.8205 123.898 45.5222 123.464 45.1607C122.948 44.6035 119.376 42.3057 118.624 42.3088C118.318 42.2609 118.038 42.1055 117.835 41.8705C117.608 41.5929 117.399 41.3012 117.209 40.9971C117.209 40.9971 117.137 40.9595 117.025 40.8907C116.884 40.6934 116.796 40.5463 116.796 40.5463C116.796 40.5463 115.735 39.964 114.655 39.2941L114.195 40.2333C114.17 40.2802 114.148 40.3303 114.123 40.3804C109.765 49.365 105 59.6236 100.035 70.7651C100.037 70.7754 100.037 70.786 100.035 70.7964C98.7268 73.7182 97.4067 76.7037 96.0752 79.7528L95.709 80.598L95.2206 81.7125L93.9465 84.6552L93.502 85.6788C92.6567 87.6385 91.8052 89.6212 90.9475 91.6268C90.4215 92.856 89.8935 94.0967 89.3634 95.349C89.3227 95.4523 89.2758 95.5587 89.2319 95.662C89.2069 95.7152 89.185 95.7716 89.1599 95.8279C89.0879 96.0064 89.0097 96.1848 88.9345 96.3664C88.8782 96.4947 88.8218 96.6325 88.7655 96.7608C88.2396 98.013 87.7168 99.2652 87.2002 100.492L86.9623 100.614L87.0907 100.755C87.0468 100.859 87.003 100.959 86.9623 101.068C84.8023 106.227 82.7153 111.283 80.7013 116.236L80.4759 116.793L80.429 116.902C79.8989 118.211 79.3771 119.51 78.8637 120.8C78.4046 121.952 77.9486 123.094 77.4957 124.225C71.2002 140.04 65.8752 154.318 61.9151 165.926C61.7273 166.055 61.527 166.202 61.3235 166.368C61.527 166.214 61.7242 166.055 61.9057 165.945C62.0624 165.838 62.2255 165.741 62.3941 165.654C62.7626 165.458 63.101 165.21 63.399 164.918C63.5336 164.793 63.6651 164.665 63.7934 164.53C64.5278 163.707 65.1937 162.826 65.7844 161.894C65.8797 161.781 65.9844 161.676 66.0975 161.581L66.2634 161.431L66.2885 161.409C66.3792 161.331 66.4763 161.243 66.5859 161.152L66.6046 161.137L66.7674 161.002L66.7862 160.986L66.9615 160.839C67.4968 160.401 68.1511 159.884 68.7741 159.396L68.9995 159.224L69.7602 158.635L70.1358 158.35L70.9654 157.724C70.973 157.711 70.9814 157.699 70.9905 157.687C71.0656 157.59 71.2378 157.374 71.4788 157.076C71.4833 157.069 71.4899 157.064 71.4976 157.061C71.526 157.022 71.5563 156.984 71.5884 156.948C71.9202 156.56 72.3523 156.075 72.8406 155.592C72.9001 155.536 72.9596 155.473 73.0253 155.417L73.2037 155.245L73.4949 154.985C73.7812 154.731 74.0822 154.493 74.3965 154.274C74.7986 153.984 75.1833 153.671 75.5485 153.335L75.6268 153.266C75.68 153.213 75.7395 153.157 75.8021 153.104C75.8471 153.065 75.89 153.025 75.9304 152.982L76.065 152.856L76.2873 152.647L76.4282 152.512L76.76 152.199L77.1325 151.83L77.1889 151.773C77.3798 151.579 77.5739 151.382 77.7712 151.188L77.9997 150.956C78.0936 150.859 78.1875 150.759 78.2814 150.665C78.4411 150.505 78.5945 150.352 78.7573 150.18L79.1047 149.817C79.2174 149.695 79.3301 149.582 79.4366 149.469C79.6088 149.291 79.7715 149.122 79.9249 148.956L79.9594 148.918L80.357 148.499C80.357 148.499 80.357 148.499 80.3757 148.477C80.4728 148.38 80.5573 148.289 80.6387 148.198L80.717 148.114C80.7952 148.039 80.8641 147.96 80.9236 147.898C81.1584 147.65 81.293 147.503 81.293 147.503L84.1104 144.294L86.9811 140.942L87.1095 140.798C87.1095 140.798 87.842 139.696 88.5902 138.785L88.6904 138.663C88.9458 138.342 89.232 138.048 89.545 137.783C89.7971 137.572 90.0288 137.337 90.2368 137.082C90.2525 137.082 90.265 137.047 90.2838 137.029C91.129 136.039 92.2216 134.502 92.5722 133.998L92.688 133.835C92.9792 133.593 93.2475 133.325 93.4894 133.034C93.7834 132.693 94.0202 132.308 94.1907 131.891C94.3558 131.518 94.5661 131.165 94.8168 130.843C94.8181 130.837 94.8181 130.832 94.8168 130.827L94.8669 130.758L95.0453 130.526C95.2664 130.569 95.4903 130.596 95.7152 130.608C96.744 130.647 97.7721 130.516 98.7581 130.22C98.7868 130.212 98.8151 130.203 98.8426 130.191V130.191C99.0993 130.132 99.2934 130.076 99.3967 130.044L99.4875 130.016L101.432 127.167L101.478 127.102C101.478 127.102 102.505 126.128 103.488 125.086C103.595 124.973 103.698 124.86 103.801 124.751C104.503 123.993 105.122 123.248 105.244 122.854C105.558 121.867 107.282 119.864 107.282 119.864C107.282 119.864 110.241 116.082 111.396 114.655C111.443 114.595 111.49 114.536 111.531 114.489L111.687 114.298C111.722 114.323 111.756 114.35 111.787 114.379C111.874 114.465 111.953 114.56 112.022 114.661C112.028 114.674 112.036 114.687 112.044 114.699L112.141 114.561C112.207 114.473 112.298 114.339 112.42 114.173C112.514 114.261 112.597 114.361 112.667 114.47L112.695 114.511C112.695 114.511 119.238 105.476 120.258 102.928C120.494 102.396 120.789 101.893 121.138 101.428C122.475 99.5783 124.729 97.4433 125.787 96.4759L126.1 96.1973C126.263 96.0471 126.36 95.9657 126.36 95.9657L126.472 96.2098C126.472 96.2286 126.472 96.2474 126.494 96.2693C126.764 96.8798 127.308 98.2322 127.017 98.6047C126.645 99.093 125.646 104.024 125.646 104.024C125.646 104.024 124.284 106.19 125.167 109.518C126.05 112.845 129.738 114.007 130.561 113.938C131.09 113.891 135.717 115.816 138.994 117.228L139.802 117.576L140.616 117.923L141.884 118.477L141.956 118.508C142.059 118.559 142.166 118.605 142.269 118.646L142.335 118.559L142.366 118.512L142.679 118.659L142.366 118.48C142.494 118.299 142.717 117.97 142.992 117.522C143.006 117.491 143.023 117.462 143.042 117.435L143.13 117.288L143.277 117.037C143.293 117.003 143.311 116.974 143.327 116.946L143.477 116.677C143.487 116.664 143.495 116.651 143.502 116.636C143.709 116.261 143.925 115.841 144.129 115.384C144.16 115.325 144.191 115.259 144.219 115.196L145.027 115.127L145.584 115.081L145.897 115.055L146.304 115.015L146.495 115.052L154.209 115.61L154.772 115.653C155.507 115.718 156.247 115.628 156.945 115.39C157.643 115.152 158.283 114.771 158.826 114.272C159.368 113.772 159.8 113.164 160.094 112.488C160.387 111.812 160.537 111.081 160.532 110.344V110.344Z" fill="url(#paint0_linear)"/>
<path d="M141.646 118.834C141.646 118.834 147.513 110.883 143.502 106.481L133.989 109.37L134.49 112.861C134.49 112.861 138.613 117.623 141.646 118.834Z" fill="#65617D"/>
<path opacity="0.1" d="M133.989 109.37L134.49 112.861C134.49 112.861 137.401 116.211 140.125 118.008C140.607 118.332 141.119 118.609 141.655 118.834C141.655 118.834 141.69 118.793 141.749 118.706C141.756 118.696 141.763 118.685 141.768 118.674C142.477 117.646 143.097 116.559 143.621 115.425C143.815 114.996 144.006 114.536 144.182 114.069C144.808 112.288 145.196 110.272 144.651 108.488C144.455 107.827 144.127 107.212 143.687 106.681C143.65 106.638 143.612 106.591 143.568 106.547C143.551 106.523 143.532 106.501 143.512 106.481L143.302 106.544L140.084 107.52L133.989 109.37Z" fill="black"/>
<path d="M94.2721 84.9713L93.4738 85.682L93.9183 84.6583L94.2721 84.9713Z" fill="#65617D"/>
<path opacity="0.1" d="M94.2721 84.9713L93.4738 85.682L93.9183 84.6583L94.2721 84.9713Z" fill="black"/>
<path d="M144.535 107.229C144.535 107.229 140.397 111.74 142.908 114.598C142.908 114.598 144.116 114.949 145.897 115.278C150.001 116.029 157.129 116.655 159.415 112.542C162.683 106.65 147.087 107.182 147.087 107.182L145.907 107.204L144.535 107.229Z" fill="#FBBEBE"/>
<path opacity="0.1" d="M144.535 107.229C144.535 107.229 140.397 111.74 142.908 114.598C142.908 114.598 144.116 114.949 145.897 115.278L146.423 115.231C145.737 114.987 145.113 114.596 144.595 114.085C143.931 113.399 143.462 112.37 144.006 110.923C144.31 110.097 144.664 109.289 145.068 108.506C145.3 108.044 145.581 107.607 145.907 107.204L144.535 107.229Z" fill="black"/>
<path d="M137.545 115.951L138.935 115.832L143.612 115.425L145.997 115.215C145.312 114.972 144.689 114.58 144.172 114.069C143.509 113.381 143.036 112.354 143.581 110.908C143.886 110.08 144.24 109.272 144.642 108.488C145.312 107.235 145.828 106.76 146.113 106.722C146.398 106.685 144.726 106.559 143.922 106.506H143.891C143.662 106.487 143.512 106.481 143.512 106.481L143.293 106.544L140.175 107.445L140.075 107.517C139.311 108.071 134.709 111.668 137.545 115.951Z" fill="#E7EFFD"/>
<path d="M101.51 117.679L96.6951 128.683C96.6951 128.683 95.8592 129.559 95.1079 130.483C95.0961 130.501 95.0825 130.517 95.0672 130.533L94.8856 130.768C94.866 130.788 94.8482 130.81 94.8324 130.833C94.8338 130.838 94.8338 130.844 94.8324 130.849C94.5097 131.236 94.2401 131.664 94.031 132.123C93.897 132.451 93.7191 132.76 93.502 133.04C93.2304 133.393 92.923 133.716 92.5847 134.004C92.5703 134.019 92.5546 134.033 92.5378 134.045C92.5378 134.045 91.2856 135.839 90.2963 137.035C90.2775 137.054 90.265 137.076 90.2494 137.088C89.9972 137.403 89.7174 137.696 89.4135 137.961C89.155 138.174 88.9171 138.411 88.7029 138.669L88.6027 138.791C87.817 139.73 86.9936 140.948 86.9936 140.948L84.1261 144.213L81.2053 147.516L80.9267 147.829L80.7201 148.045L80.6418 148.129L80.3789 148.408C80.3789 148.408 80.3632 148.408 80.3601 148.43L79.9625 148.849L79.9281 148.887C79.7716 149.047 79.615 149.219 79.4397 149.4C79.3333 149.513 79.2206 149.626 79.1079 149.748L78.7604 150.111C78.6039 150.271 78.4474 150.424 78.2846 150.596C78.1907 150.69 78.0967 150.79 78.0028 150.887L77.7743 151.119C77.5771 151.313 77.383 151.51 77.192 151.704L77.1357 151.761L76.7632 152.13L76.4313 152.443L76.2904 152.578L76.0682 152.788L75.9336 152.913C75.8931 152.956 75.8503 152.997 75.8052 153.035C75.7457 153.094 75.6862 153.148 75.6299 153.198L75.5516 153.266C75.1774 153.622 74.78 153.953 74.362 154.256C73.9565 154.543 73.5706 154.857 73.2069 155.195V155.195L73.0285 155.367C72.9627 155.423 72.9032 155.486 72.8438 155.542C72.3585 156.024 71.9265 156.51 71.5915 156.898C71.5594 156.934 71.5291 156.972 71.5008 157.011C71.4931 157.014 71.4865 157.019 71.482 157.026C71.2409 157.317 71.0688 157.54 70.9936 157.637L70.9529 157.687L70.1233 158.313L69.7477 158.598L68.987 159.186L68.7616 159.358C68.1355 159.847 67.4843 160.363 66.949 160.802L66.7737 160.949L66.7549 160.964L66.5921 161.099L66.5733 161.115C66.4638 161.205 66.3667 161.293 66.276 161.371L66.2509 161.393L66.085 161.544C65.9858 161.63 65.8947 161.725 65.8126 161.828C65.2146 162.77 64.5381 163.659 63.7903 164.486C63.662 164.621 63.5305 164.749 63.3959 164.874C63.1154 165.144 62.7994 165.375 62.4567 165.56C62.2714 165.652 62.0926 165.757 61.9214 165.873C65.8815 154.265 71.2065 139.987 77.5019 124.172C77.9527 123.038 78.4087 121.897 78.87 120.747C79.3896 119.457 79.9114 118.158 80.4352 116.849L80.4822 116.74L80.7076 116.182C82.7111 111.236 84.7981 106.181 86.9686 101.015C87.0093 100.912 87.0531 100.812 87.0969 100.702L86.9686 100.561L87.2065 100.439C87.7262 99.187 88.249 97.9598 88.7718 96.7076C88.8281 96.5793 88.8845 96.4415 88.9408 96.3132C89.0159 96.1316 89.0942 95.9532 89.1662 95.7747C89.1913 95.7184 89.2132 95.662 89.2382 95.6088C89.282 95.5024 89.329 95.3959 89.3697 95.2957C89.9019 94.0435 90.4299 92.8028 90.9537 91.5736L96.4697 97.7407L96.7013 97.9942L100.552 102.236L100.787 102.49L101.986 103.811L102.634 104.524L102.947 104.866L106.803 109.114L106.854 109.17L107.035 109.367L101.51 117.679Z" fill="#3F3D56"/>
<path d="M129.099 48.4321L128.329 59.2354C128.329 59.2354 137.576 63.6182 137.849 62.0091C137.958 61.383 139.164 60.3499 140.604 59.3231C142.873 57.6984 145.725 56.0799 145.725 56.0799C145.725 56.0799 136.424 42.0584 135.319 44.9885C134.915 46.0591 133.979 46.8073 132.953 47.3239C131.736 47.8973 130.435 48.2715 129.099 48.4321V48.4321Z" fill="#FBBEBE"/>
<path opacity="0.1" d="M135.319 44.9885C134.915 46.0591 135.006 46.3065 133.983 46.823C133.748 49.9973 133.754 53.7571 136.089 56.2771C137.336 57.63 138.882 58.673 140.604 59.3231C142.873 57.6984 145.725 56.0799 145.725 56.0799C145.725 56.0799 136.424 42.0584 135.319 44.9885Z" fill="black"/>
<path d="M136.957 39.244C135.808 40.3065 134.881 41.5848 134.226 43.0058C133.572 44.4268 133.204 45.9628 133.144 47.526C133.083 49.0892 133.331 50.649 133.873 52.1164C134.415 53.5839 135.241 54.9301 136.304 56.0783C137.366 57.2265 138.645 58.1542 140.066 58.8084C141.487 59.4626 143.023 59.8306 144.586 59.8912C146.149 59.9518 147.709 59.7039 149.176 59.1617C150.644 58.6195 151.99 57.7935 153.138 56.731L153.26 56.6121C155.562 54.4501 156.911 51.4622 157.01 48.3057C157.109 45.1493 155.95 42.0828 153.788 39.7809C151.626 37.479 148.638 36.1302 145.481 36.0313C142.325 35.9324 139.258 37.0914 136.957 39.2534V39.244Z" fill="#FBBEBE"/>
<path opacity="0.1" d="M102.13 114.767C101.735 115.284 101.081 115.171 100.029 113.797C99.5403 113.198 99.0077 112.636 98.4356 112.116C98.3292 112.016 98.2165 111.912 98.1069 111.803C96.9392 110.729 95.4429 109.449 93.8307 107.996L93.7274 107.905C93.0105 107.257 92.2623 106.572 91.5172 105.861L91.0727 105.435C90.0521 104.449 89.0285 103.404 88.0517 102.305L88.0079 102.261C87.6479 101.86 87.291 101.453 86.9373 101.059C86.978 100.956 87.0218 100.856 87.0656 100.746L86.9373 100.605L87.1752 100.483C87.6949 99.2308 88.2177 98.0036 88.7405 96.7514C88.7968 96.6231 88.8532 96.4853 88.9095 96.357C88.9846 96.1754 89.0629 95.997 89.1349 95.8185C89.1599 95.7622 89.1819 95.7058 89.2069 95.6526L89.5732 96.1097C90.168 96.8547 90.7753 97.6029 91.3889 98.3449L91.4421 98.4106C91.7896 98.827 92.1339 99.2433 92.4814 99.6628C92.4971 99.6628 92.5096 99.6972 92.5252 99.7098C92.9103 100.17 93.3047 100.621 93.7023 101.053L93.934 101.3C94.3597 101.76 94.7855 102.192 95.2112 102.612C96.213 103.595 97.2022 104.49 98.1132 105.241C98.2008 105.316 98.2854 105.388 98.3761 105.46C99.1807 106.13 99.9226 106.713 100.567 107.17L100.859 107.389L101.222 107.649C102.067 108.256 102.584 108.588 102.584 108.588C102.584 108.588 102.631 109.017 102.668 109.649C102.69 110.015 102.712 110.451 102.721 110.901C102.734 112.366 102.643 114.094 102.13 114.767Z" fill="black"/>
<path d="M102.13 114.768C101.726 115.009 101.122 114.739 100.251 113.597C99.7427 112.974 99.1869 112.391 98.589 111.853L98.5577 111.825L98.2603 111.543C97.1333 110.51 95.7152 109.289 94.1907 107.912C94.1551 107.884 94.1216 107.854 94.0905 107.821C93.2484 107.07 92.3781 106.256 91.5016 105.423C91.3544 105.285 91.2073 105.141 91.057 104.994C90.1179 104.08 89.1787 103.116 88.2771 102.111L88.2364 102.064L87.0719 100.762L86.9435 100.621L87.1815 100.499C87.7011 99.2464 88.2239 98.0193 88.7467 96.7671C88.8031 96.6387 88.8594 96.501 88.9158 96.3726C88.9909 96.1911 89.0692 96.0126 89.1412 95.8342C89.1662 95.7778 89.1881 95.7215 89.2132 95.6683C89.257 95.5618 89.3039 95.4554 89.3446 95.3552C89.9927 96.166 90.6594 96.9956 91.3325 97.8158C91.3402 97.8217 91.3466 97.8292 91.3513 97.8377L91.6643 98.2259C92.0243 98.661 92.3844 99.0899 92.7444 99.5219C93.0574 99.907 93.3955 100.28 93.7242 100.643C93.7806 100.708 93.84 100.771 93.8995 100.834C93.959 100.896 94.0529 101.003 94.1281 101.084C95.4388 102.477 96.8323 103.79 98.301 105.016C98.3855 105.091 98.4732 105.163 98.5608 105.235C99.3372 105.88 100.054 106.44 100.668 106.901C100.784 106.982 100.893 107.066 101 107.145L101.363 107.405C102.249 108.031 102.79 108.384 102.79 108.384C102.79 108.384 102.865 109.104 102.906 110.065C102.922 110.463 102.931 110.898 102.928 111.343C102.919 112.833 102.749 114.398 102.13 114.768Z" fill="#5F5D7E"/>
<path opacity="0.1" d="M139.088 70.4113L106.803 109.108L104.014 112.454L103.604 112.946C103.411 112.398 103.185 111.863 102.928 111.343C102.859 111.205 102.787 111.058 102.706 110.908C102.224 109.942 101.573 109.07 100.784 108.334C100.668 108.234 100.549 108.14 100.43 108.056L100.233 107.924C100.043 107.805 99.8413 107.706 99.6315 107.627C98.9157 107.299 98.2647 106.845 97.7094 106.287V106.287L97.4589 106.055C96.0931 104.671 94.8371 103.183 93.7023 101.604C93.6303 101.507 93.5614 101.413 93.4988 101.322C93.1294 100.818 92.9103 100.499 92.9103 100.499C92.9103 100.499 92.6724 100.211 92.2842 99.7818C91.9711 99.4186 91.5673 98.9553 91.1322 98.4857C90.4591 97.7113 89.7138 97.0027 88.9064 96.3695C88.9815 96.1879 89.0598 96.0095 89.1318 95.8311C89.1568 95.7747 89.1787 95.7184 89.2038 95.6651C89.2476 95.5587 89.2946 95.4523 89.3352 95.3521C89.8674 94.0999 90.3955 92.8592 90.9193 91.6299C91.7771 89.6264 92.6285 87.6437 93.4738 85.682L93.9183 84.6583L95.1924 81.7156L95.6808 80.6011L96.0471 79.7559C97.3807 76.713 98.7007 73.7276 100.007 70.7995L120.44 52.6426L122.901 51.4718L125.27 50.3511L126.967 50.8394L127.221 50.9083L128.867 51.3841H128.889L129.287 51.5L130.104 51.7347L130.508 57.1474V57.1943V57.3446L131.253 58.4152L131.716 59.0883L131.916 59.1666L132.765 59.4953L133.021 59.5923L133.115 59.6299L133.857 59.9179L135.964 60.7349L136.468 62.3002L136.781 63.3082L136.953 63.8498L137.119 64.2442L139.088 70.4113Z" fill="black"/>
<path d="M139.527 70.0044L106.854 109.164L104.036 112.535L104.008 112.454C103.708 111.627 103.338 110.828 102.9 110.065C102.821 109.928 102.734 109.787 102.646 109.649C102.23 108.962 101.707 108.346 101.097 107.824C100.978 107.73 100.859 107.642 100.737 107.564C100.646 107.503 100.552 107.446 100.455 107.395C100.33 107.329 100.202 107.272 100.07 107.223C99.3275 106.881 98.6538 106.407 98.0819 105.824L97.8283 105.589C96.8935 104.655 96.0174 103.664 95.2049 102.621C94.7698 102.067 94.3848 101.557 94.0748 101.137L93.8714 100.856C93.815 100.78 93.7649 100.708 93.718 100.64C93.4738 100.301 93.3329 100.095 93.3329 100.095C93.3329 100.095 92.3938 98.949 91.3388 97.8346C91.3341 97.826 91.3277 97.8186 91.32 97.8127C90.7759 97.2098 90.1901 96.646 89.5669 96.1253C89.4288 96.0167 89.2823 95.9194 89.1286 95.8342C89.1537 95.7778 89.1756 95.7215 89.2006 95.6683C89.2445 95.5618 89.2914 95.4554 89.3321 95.3552C89.8643 94.103 90.3923 92.8623 90.9162 91.6331C91.7739 89.6295 92.6254 87.6469 93.4707 85.6851L93.9152 84.6614L95.1893 81.7187L95.6777 80.6043L96.0439 79.759C97.3775 76.7162 98.6976 73.7307 100.004 70.8027C100.006 70.7923 100.006 70.7817 100.004 70.7714L120.869 52.2262L122.976 51.2245L125.699 49.9316L127.33 50.4012L127.584 50.4732L128.914 50.8582L129.227 50.9459L129.597 51.0523L130.536 51.3247L130.955 56.9345L131.168 57.2476L131.203 57.2977L131.246 57.3634L131.894 58.3026L132.157 58.6845L133.203 59.0914L134.505 59.5955L136.409 60.3343L137.06 62.3722L137.176 62.7353L137.345 63.2613L137.426 63.518L137.479 63.6776L139.527 70.0044Z" fill="#E7EFFD"/>
<path opacity="0.1" d="M134.659 62.1687C134.659 62.1687 130.545 62.3659 130.101 62.8449C129.656 63.3239 128.589 64.4509 128.589 64.4509L126.973 68.6708C126.973 68.6708 124.012 72.9126 123.242 73.6264C122.472 74.3401 116.981 81.8095 116.981 81.8095L108.128 92.8696L96.4572 107.289L91.2073 108.469L91.0132 104.283L112.135 78.9263L116.258 73.8831C116.258 73.8831 124.128 65.2992 125.023 64.4916C125.918 63.6839 128.592 61.9402 128.592 61.9402C128.592 61.9402 130.351 59.4358 129.03 56.9627C127.709 54.4896 129.274 57.0096 129.274 57.0096L131.246 57.2977L131.76 58.6626C131.76 58.6626 135.141 60.6316 134.659 62.1687Z" fill="black"/>
<path d="M135.081 62.1844C135.081 62.1844 130.968 62.3816 130.523 62.8606C130.079 63.3395 129.011 64.4665 129.011 64.4665L127.415 68.6864C127.415 68.6864 124.438 72.9283 123.658 73.6358C122.879 74.3433 117.397 81.822 117.397 81.822L108.547 92.879L96.8767 107.301L91.6268 108.478L91.439 104.315L112.557 78.9576L116.683 73.9113C116.683 73.9113 124.553 65.3274 125.433 64.5197C126.313 63.7121 129.002 61.9684 129.002 61.9684C129.002 61.9684 130.761 59.464 129.44 56.994C128.119 54.524 129.687 57.0378 129.687 57.0378L131.66 57.3258L132.173 58.6907C132.173 58.6907 135.554 60.6473 135.081 62.1844Z" fill="#4D69B4"/>
<path opacity="0.1" d="M140.128 59.9022C140.128 59.9022 140.178 60.4 138.778 61.8338C137.379 63.2675 135.022 67.3528 135.022 67.3528C135.022 67.3528 134.13 61.0918 132.07 59.4514L140.128 59.9022Z" fill="black"/>
<path d="M140.563 59.4953C140.563 59.4953 140.616 59.993 139.217 61.4237C137.817 62.8543 135.46 66.9459 135.46 66.9459C135.46 66.9459 134.568 60.6849 132.505 59.0414L140.563 59.4953Z" fill="#E7EFFD"/>
<path opacity="0.1" d="M131.647 48.3882L131.935 59.3043C131.935 59.3043 124.234 57.0253 122.888 57.0441C121.542 57.0629 128.861 49.0613 128.861 49.0613L131.647 48.3882Z" fill="black"/>
<path d="M131.885 47.759L132.173 58.6751C132.173 58.6751 124.472 56.3961 123.126 56.4149C121.78 56.4336 129.096 48.4321 129.096 48.4321L131.885 47.759Z" fill="#E7EFFD"/>
<path opacity="0.1" d="M139.937 59.68C139.937 59.68 140.876 60.0369 140.503 61.5583C140.131 63.0797 140.776 64.6481 140.776 64.6481C140.776 64.6481 145.897 72.3147 145.252 73.3885L147.957 76.6786C147.957 76.6786 148.831 77.9152 146.62 80.166C144.41 82.4168 144.742 83.2089 144.742 83.2089C144.742 83.2089 143.656 86.6023 142.379 87.5916C141.101 88.5808 141.536 90.2149 141.536 90.2149L125.355 96.6732C125.355 96.6732 120.274 101.056 119.275 103.563C118.277 106.071 111.762 115.03 111.762 115.03C111.762 115.03 111.296 114.232 110.889 114.677C110.482 115.121 106.387 120.346 106.387 120.346C106.387 120.346 104.684 122.334 104.362 123.311C104.039 124.287 100.624 127.524 100.624 127.524L98.6736 130.42C98.6736 130.42 94.2595 131.916 92.7256 129.378C91.1916 126.839 95.9375 115.272 95.9375 115.272L102.656 104.484L109.771 94.3503L115.281 88.2239L127.803 75.0038L135.426 65.5622C135.426 65.5622 138.822 59.7457 139.937 59.68Z" fill="black"/>
<path d="M140.563 59.4953C140.563 59.4953 141.502 59.849 141.129 61.3579C140.757 62.8668 141.399 64.4477 141.399 64.4477C141.399 64.4477 146.523 72.1143 145.878 73.1881L148.583 76.4783C148.583 76.4783 149.457 77.7148 147.247 79.9657C145.036 82.2165 145.368 83.0085 145.368 83.0085C145.368 83.0085 144.282 86.402 143.005 87.3912C141.727 88.3805 142.163 90.0146 142.163 90.0146L125.975 96.4603C125.975 96.4603 120.919 100.871 119.902 103.376C118.884 105.88 112.388 114.839 112.388 114.839C112.388 114.839 111.922 114.041 111.515 114.486C111.108 114.93 107.013 120.155 107.013 120.155C107.013 120.155 105.31 122.143 104.988 123.123C104.665 124.103 101.25 127.333 101.25 127.333L99.2965 130.232C99.2965 130.232 94.8857 131.725 93.3486 129.187C91.8115 126.648 96.5824 115.081 96.5824 115.081L103.31 104.296L110.425 94.1625L115.926 88.0361L128.448 74.816L136.071 65.3744C136.071 65.3744 139.467 59.5485 140.563 59.4953Z" fill="#65617D"/>
<path opacity="0.1" d="M133.989 109.371L134.49 112.861C134.49 112.861 137.401 116.211 140.125 118.008L141.749 118.706L142.062 118.847L141.749 118.674C140.25 117.782 139.367 116.818 138.932 115.832C137.157 111.881 142.438 107.605 143.675 106.681C143.797 106.587 143.875 106.528 143.909 106.506H143.925H143.878C143.775 106.528 143.67 106.541 143.565 106.547C143.476 106.551 143.388 106.551 143.299 106.547V106.547L140.175 107.445L140.075 107.517L133.989 109.371Z" fill="black"/>
<path d="M141.502 88.7029L142.163 90.0021L140.206 92.087C140.206 92.087 141.508 93.1263 140.384 94.7823C139.261 96.4384 139.132 97.6374 139.132 97.6374C139.132 97.6374 139.314 101.222 137.983 102.646L138.372 104.628C138.372 104.628 141.718 106.916 143.502 106.49C143.502 106.49 132.809 113.938 141.646 118.843C141.646 118.843 130.89 114.148 130.063 114.223C129.237 114.298 125.605 113.165 124.741 109.875C123.877 106.584 125.233 104.443 125.233 104.443C125.233 104.443 126.238 99.5595 126.61 99.0774C126.983 98.5953 125.965 96.4697 125.965 96.4697L130.68 86.2423L141.502 88.7029Z" fill="#65617D"/>
<path opacity="0.1" d="M131.882 47.7621V47.7809L131.425 48.4352L129.606 51.0492L129.293 51.4937L128.842 52.148L128.041 53.3125L124.663 56.6559L124.1 57.2131L118.718 62.535L106.841 74.2994L98.1883 79.3083C98.1883 79.3083 96.9518 79.9344 95.6839 80.5918L96.0502 79.7465C97.3838 76.7037 98.7038 73.7182 100.01 70.7901C100.012 70.7798 100.012 70.7692 100.01 70.7588C104.985 59.6174 109.749 49.3587 114.098 40.3741C114.171 40.4067 114.241 40.4454 114.307 40.49C115.287 41.1442 116.445 41.8016 116.887 42.0552L117.072 42.1585C117.261 42.4627 117.471 42.7544 117.698 43.0319C118.058 43.4671 118.505 43.8928 118.875 43.8928C119.62 43.8928 123.145 46.1437 123.655 46.7103C123.888 46.9254 124.151 47.1067 124.435 47.2487C125.258 47.7089 126.36 48.1628 126.36 48.1628L128.933 48.598L129.033 48.6168H129.065C129.756 48.7075 131.256 48.0533 131.716 47.8341L131.848 47.7747L131.882 47.7621Z" fill="black"/>
<path d="M131.888 47.7621L131.318 48.4446L129.252 50.9146L128.917 51.3184L128.892 51.3403L127.64 52.8398L123.959 56.4837L123.383 57.0535L119.25 61.1451L106.44 73.8299L97.7876 78.8387L96.069 79.7183C97.4026 76.6755 98.7226 73.69 100.029 70.762C100.031 70.7516 100.031 70.741 100.029 70.7307C105.003 59.5892 109.768 49.3305 114.116 40.346C114.141 40.2959 114.163 40.2458 114.188 40.1988C115.369 40.9658 116.693 41.6858 116.693 41.6858C116.693 41.6858 116.777 41.8267 116.915 42.0239C117.155 42.375 117.429 42.7021 117.732 43.0006C117.931 43.2268 118.204 43.3753 118.502 43.4201C119.247 43.4201 122.772 45.671 123.282 46.2376C123.658 46.5615 124.08 46.8264 124.535 47.0233C125.255 47.3865 125.987 47.687 125.987 47.687L128.658 48.1441C129.365 48.263 131.315 47.8623 131.788 47.759C131.814 47.7617 131.84 47.7617 131.866 47.759C131.866 47.759 131.866 47.759 131.866 47.759H131.885L131.888 47.7621Z" fill="#65617D"/>
<path opacity="0.1" d="M80.7107 117.237L80.3977 116.899L80.4446 116.79C80.5228 116.945 80.6117 117.095 80.7107 117.237Z" fill="black"/>
<path opacity="0.1" d="M80.0721 120.906L77.4675 124.237C77.9183 123.104 78.3743 121.962 78.8355 120.813L80.0721 120.906Z" fill="black"/>
<path d="M92.7381 99.5188L92.4783 99.6691L92.2842 99.7818L88.2646 102.123L88.2239 102.076L87.0594 100.774L86.931 100.633L87.169 100.511L91.1322 98.5014L91.3857 98.373L91.6612 98.2353C92.0212 98.6579 92.3781 99.0868 92.7381 99.5188Z" fill="#3F3D56"/>
<path opacity="0.1" d="M144.129 81.0144C144.129 81.0144 141.9 80.0752 140.532 80.6638C139.164 81.2523 144.129 81.0144 144.129 81.0144Z" fill="black"/>
<path opacity="0.1" d="M137.745 96.2036C137.745 96.2036 137.057 101.212 135.072 101.269C133.087 101.325 137.745 96.2036 137.745 96.2036Z" fill="black"/>
<path opacity="0.1" d="M97.0488 93.79C97.0645 93.3642 99.8663 81.365 98.1132 80.8015L97.0488 93.79Z" fill="black"/>
<path opacity="0.1" d="M136.957 39.244C135.517 40.5756 134.428 42.2425 133.788 44.0963L133.86 44.1527C134.487 44.5972 135.404 44.2873 136.199 44.3374C136.687 44.3687 137.152 44.5519 137.531 44.8612C137.909 45.1706 138.181 45.5905 138.309 46.0623C138.415 46.5615 138.379 47.0803 138.206 47.5604C138.033 48.0404 137.729 48.4626 137.329 48.7795C138.763 47.9687 139.93 46.7259 141.361 45.9089C142.792 45.0918 144.745 44.8069 145.81 45.9089C146.267 46.3847 146.602 47.1235 147.29 47.1392C147.704 47.1392 148.092 46.8731 148.505 46.7823C150.549 46.3816 152.158 49.4401 152.415 51.0586C152.669 52.6238 152.684 54.8152 153.26 56.5964C154.4 55.5259 155.318 54.2414 155.961 52.8162C156.604 51.391 156.961 49.853 157.01 48.2901C157.059 46.7272 156.799 45.1699 156.247 43.7072C155.694 42.2445 154.858 40.905 153.788 39.7652C152.717 38.6255 151.433 37.7077 150.007 37.0643C148.582 36.421 147.044 36.0646 145.481 36.0157C143.918 35.9667 142.361 36.226 140.898 36.7789C139.436 37.3317 138.096 38.1672 136.957 39.2378V39.244Z" fill="black"/>
<path d="M148.724 46.5851C148.311 46.6727 147.926 46.9514 147.509 46.942C146.824 46.942 146.486 46.1875 146.029 45.7117C144.967 44.6035 143.014 44.8852 141.583 45.7117C140.153 46.5381 138.985 47.7747 137.548 48.5855C137.949 48.2695 138.254 47.8474 138.427 47.3671C138.6 46.8867 138.635 46.3674 138.528 45.8682C138.4 45.3965 138.128 44.9765 137.75 44.6672C137.371 44.3578 136.906 44.1747 136.418 44.1433C135.623 44.0932 134.712 44.4031 134.083 43.9555C133.453 43.5078 133.491 42.4841 133.889 41.7453C134.286 41.0065 134.94 40.4242 135.423 39.7324C136.337 38.4239 136.584 36.8085 137.301 35.3873C138.169 33.6695 139.641 32.3321 141.433 31.6307C142.372 31.2675 143.38 31.1016 144.326 30.7416C145.763 30.1969 147.046 29.2139 148.521 28.8069C150.987 28.1245 153.708 29.3892 154.628 31.6432C155.07 32.7169 155.129 33.9472 155.617 34.9991C156.275 36.4078 157.612 37.325 158.807 38.3018C160.003 39.2785 161.168 40.4931 161.265 42.0928C161.378 43.921 160.044 45.6835 160.013 47.5242C160.013 48.2975 160.222 49.0394 160.26 49.8064C160.298 50.5734 160.107 51.4468 159.471 51.9414C158.651 52.5831 157.28 52.4767 156.823 53.4033C156.71 53.6913 156.654 53.9987 156.66 54.308C156.561 55.9207 156.09 57.4885 155.282 58.888C152.85 57.4918 153.047 53.3564 152.647 50.8739C152.377 49.2429 150.771 46.1844 148.724 46.5851Z" fill="#7C5C5C"/>
<path opacity="0.1" d="M134.643 86.9686C134.643 86.9686 126.272 94.7197 126.109 96.2004C125.947 97.6812 134.643 86.9686 134.643 86.9686Z" fill="black"/>
<g opacity="0.1">
<path opacity="0.1" d="M157.427 52.6176C157.865 51.7128 159.193 51.7911 160.016 51.1963C159.896 51.4833 159.705 51.7352 159.462 51.9288C158.861 52.3984 157.962 52.4704 157.346 52.8367C157.365 52.7611 157.392 52.6877 157.427 52.6176V52.6176Z" fill="black"/>
<path opacity="0.1" d="M138.237 47.7559C139.636 46.9482 140.791 45.7336 142.197 44.9384C143.603 44.1433 145.581 43.8365 146.642 44.9384C147.099 45.4143 147.437 46.1531 148.123 46.1687C148.539 46.1687 148.924 45.8995 149.338 45.8118C151.385 45.4111 152.991 48.4696 153.251 50.0881C153.642 52.5143 153.464 56.5088 155.721 57.9958C155.583 58.3088 155.439 58.5874 155.273 58.8754C152.841 57.4792 153.038 53.3438 152.637 50.8613C152.377 49.2429 150.759 46.1844 148.724 46.5851C148.311 46.6727 147.926 46.9513 147.509 46.9419C146.824 46.9419 146.486 46.1875 146.029 45.7117C144.967 44.6035 143.014 44.8852 141.583 45.7117C140.153 46.5381 138.985 47.7747 137.548 48.5855C137.83 48.3571 138.064 48.0751 138.237 47.7559V47.7559Z" fill="black"/>
<path opacity="0.1" d="M134.502 40.9627C134.105 41.7015 134.055 42.7189 134.696 43.1728C135.338 43.6267 136.236 43.3106 137.032 43.3606C137.52 43.3923 137.986 43.5755 138.364 43.8848C138.743 44.194 139.016 44.6138 139.145 45.0856C139.245 45.5608 139.216 46.0541 139.062 46.5146C138.908 46.9751 138.634 47.3863 138.268 47.7058C138.579 47.1431 138.672 46.4855 138.528 45.8588C138.4 45.3871 138.128 44.9671 137.75 44.6578C137.371 44.3484 136.906 44.1653 136.418 44.1339C135.623 44.0838 134.712 44.3937 134.083 43.9461C133.453 43.4984 133.491 42.4747 133.889 41.7359C134.135 41.3128 134.426 40.9172 134.756 40.5557C134.664 40.6864 134.579 40.8223 134.502 40.9627V40.9627Z" fill="black"/>
<path opacity="0.1" d="M137.905 34.6046C137.198 36.0259 136.966 37.6412 136.027 38.9498C135.842 39.2159 135.632 39.4632 135.423 39.7105C136.33 38.4051 136.578 36.7928 137.282 35.3779C137.601 34.7407 138.008 34.1516 138.49 33.6279C138.27 33.9376 138.074 34.2642 137.905 34.6046V34.6046Z" fill="black"/>
</g>
<path d="M160.535 112.31C160.603 112.31 160.658 112.255 160.658 112.188C160.658 112.121 160.603 112.066 160.535 112.066C160.468 112.066 160.413 112.121 160.413 112.188C160.413 112.255 160.468 112.31 160.535 112.31Z" fill="#E6E8EC"/>
<path d="M256.479 237.909C256.554 241.666 225.44 237.195 226.605 234.153L226.442 234.199C222.523 235.089 201.814 227.854 203.477 224.557C186.491 209.368 178.818 195.726 194.029 165.087C194.097 164.885 194.137 164.674 194.148 164.461C194.148 164.386 194.176 164.311 194.188 164.239C194.242 163.97 194.292 163.7 194.345 163.431C194.345 163.387 194.361 163.347 194.37 163.306C194.379 163.265 194.398 163.175 194.411 163.109C194.849 160.849 195.336 158.579 195.873 156.3C198.523 144.759 202.271 133.497 207.064 122.669C207.164 122.453 207.258 122.237 207.358 122.024C207.415 121.896 207.474 121.767 207.534 121.642L207.919 120.803C207.935 120.766 207.953 120.731 207.969 120.694C208.032 120.568 208.088 120.443 208.147 120.321C212.098 111.869 216.518 104.449 221.167 98.3543C218.976 97.102 211.891 87.5415 213.654 80.0032C215.532 72.0016 225.803 68.9463 228.352 69.5379C230.9 70.1296 231.451 77.1012 229.585 85.1028C229.155 86.9718 228.602 88.8103 227.929 90.6062C236.068 82.5483 244.59 78.6915 252.378 80.5041C258.84 82.0099 264.021 87.2378 267.74 95.158C267.815 94.7917 267.899 94.4223 267.984 94.0498C269.862 86.0482 273.422 80.0408 275.973 80.6325C278.524 81.2241 287.111 90.0709 285.245 98.0725C284.009 103.394 273.976 105.943 272.029 108.15C275.86 125.317 276.912 150.631 279.607 175.928C283.182 209.553 276.993 227.519 256.479 237.909Z" fill="#4D69B4"/>
<path opacity="0.2" d="M252.234 126.472C250.819 132.539 242.661 135.911 233.429 134.562C232.628 134.445 231.821 134.292 231.009 134.105C230.342 133.948 229.689 133.772 229.053 133.576C219.94 130.78 213.911 124.037 215.348 117.876C216.424 113.243 221.446 110.178 227.87 109.593C229.266 109.472 230.67 109.462 232.068 109.565C233.584 109.678 235.089 109.912 236.569 110.263C246.756 112.62 253.768 119.883 252.234 126.472Z" fill="black"/>
<path d="M248.136 130.219C249.099 126.087 244.929 121.584 238.821 120.16C232.714 118.737 226.983 120.932 226.02 125.064C225.057 129.197 229.227 133.7 235.334 135.124C241.441 136.547 247.172 134.351 248.136 130.219Z" fill="#3F3D56"/>
<path d="M230.988 113.393C229.619 116.665 228.696 115.832 227.544 115.356C226.392 114.88 225.468 114.93 226.84 111.659C227.137 110.948 227.48 110.257 227.866 109.59C229.263 109.469 230.667 109.459 232.064 109.561C231.876 110.881 231.514 112.169 230.988 113.393V113.393Z" fill="white"/>
<path d="M233.429 134.562C232.628 134.445 231.821 134.292 231.009 134.105C230.342 133.948 229.689 133.772 229.053 133.576C229.789 130.21 230.959 129.941 232.146 130.185C233.332 130.429 234.109 131.14 233.429 134.562Z" fill="white"/>
<path opacity="0.2" d="M239.847 103.116C243.676 103.116 246.781 100.011 246.781 96.1817C246.781 92.3521 243.676 89.2476 239.847 89.2476C236.017 89.2476 232.913 92.3521 232.913 96.1817C232.913 100.011 236.017 103.116 239.847 103.116Z" fill="black"/>
<path opacity="0.1" d="M225.096 84.3341C225.763 81.47 225.05 78.8558 223.502 78.4951C221.955 78.1344 220.159 80.1639 219.492 83.0281C218.824 85.8922 219.538 88.5064 221.085 88.8671C222.632 89.2278 224.428 87.1983 225.096 84.3341Z" fill="black"/>
<path opacity="0.12" d="M277.769 96.2224C279.545 93.8784 279.958 91.2003 278.692 90.2407C277.425 89.2812 274.959 90.4036 273.183 92.7476C271.407 95.0917 270.994 97.7698 272.26 98.7294C273.527 99.6889 275.993 98.5665 277.769 96.2224Z" fill="black"/>
<path d="M240.113 92.7726C239.987 92.7431 239.86 92.7211 239.731 92.7068C239.9 93.0896 239.94 93.5172 239.844 93.9246C239.758 94.2952 239.564 94.6323 239.288 94.8942C239.012 95.1561 238.665 95.3313 238.291 95.3979C237.916 95.4646 237.53 95.4199 237.181 95.2693C236.831 95.1186 236.534 94.8688 236.325 94.5507C236.206 94.7887 236.114 95.0398 236.053 95.2989C235.902 95.9498 235.947 96.6308 236.183 97.256C236.418 97.8812 236.834 98.4225 237.377 98.8116C237.92 99.2008 238.567 99.4202 239.234 99.4423C239.902 99.4644 240.562 99.2881 241.129 98.9357C241.697 98.5833 242.147 98.0706 242.424 97.4623C242.7 96.854 242.791 96.1775 242.683 95.5181C242.575 94.8586 242.274 94.2459 241.819 93.7573C241.363 93.2686 240.773 92.926 240.122 92.7726H240.113Z" fill="#3F3D56"/>
<path opacity="0.2" d="M230.202 105.254C229.914 106.49 229.551 106.074 229.012 105.949C228.474 105.824 227.967 106.037 228.255 104.8C228.543 103.563 230.058 101.469 230.058 101.469C230.058 101.469 230.49 104.017 230.202 105.254Z" fill="black"/>
<path opacity="0.2" d="M243.459 86.0295C243.171 87.2817 242.808 86.8497 242.27 86.7244C241.731 86.5992 241.224 86.8121 241.512 85.5755C241.8 84.339 243.315 82.2447 243.315 82.2447C243.315 82.2447 243.747 84.7898 243.459 86.0295Z" fill="black"/>
<path opacity="0.2" d="M255.765 94.1406C255.477 95.3771 255.114 94.9608 254.576 94.8356C254.037 94.7104 253.53 94.9232 253.818 93.6867C254.106 92.4501 255.621 90.3558 255.621 90.3558C255.621 90.3558 256.05 92.904 255.765 94.1406Z" fill="black"/>
<path opacity="0.2" d="M259.165 105.526C258.877 106.763 258.517 106.346 257.979 106.221C257.44 106.096 256.933 106.309 257.221 105.072C257.509 103.836 259.021 101.741 259.021 101.741C259.021 101.741 259.456 104.287 259.165 105.526Z" fill="black"/>
<path opacity="0.2" d="M226.605 233.495L226.442 234.187C222.523 235.076 201.814 227.841 203.477 224.545L226.605 233.495Z" fill="black"/>
<path opacity="0.2" d="M226.605 234.14L226.442 234.187L226.605 233.495C232.553 231.758 256.479 237.909 256.479 237.909C256.554 241.653 225.44 237.195 226.605 234.14Z" fill="black"/>
<g opacity="0.1">
<path opacity="0.1" d="M229.782 128.98C228.198 136.102 221.615 145.45 211.845 153.486C206.489 157.869 200.553 161.488 194.204 164.242C194.264 163.929 194.326 163.616 194.386 163.303C194.836 160.98 195.337 158.645 195.888 156.297C198.539 144.756 202.287 133.494 207.08 122.666C207.18 122.45 207.274 122.234 207.374 122.021C207.43 121.893 207.49 121.764 207.549 121.639C214.073 118.571 220.04 117.338 224.219 118.296C225.638 118.581 226.951 119.251 228.014 120.233C228.198 120.409 228.372 120.597 228.533 120.794C229.461 121.975 230.007 123.411 230.098 124.91C230.202 126.275 230.095 127.648 229.782 128.98V128.98Z" fill="black"/>
</g>
<g opacity="0.1">
<path opacity="0.1" d="M229.263 128.166C227.679 135.288 221.095 144.636 211.322 152.672C206.175 156.886 200.49 160.397 194.417 163.112C194.855 160.852 195.343 158.582 195.879 156.303C198.53 144.762 202.277 133.5 207.07 122.672C207.171 122.456 207.265 122.24 207.365 122.027C207.421 121.899 207.481 121.77 207.54 121.645L207.925 120.806L208.154 120.324C214.239 117.632 219.768 116.586 223.703 117.488C225.122 117.773 226.435 118.445 227.497 119.429C227.681 119.604 227.855 119.79 228.017 119.986C228.951 121.166 229.504 122.603 229.601 124.106C229.696 125.469 229.582 126.838 229.263 128.166V128.166Z" fill="black"/>
</g>
<path d="M229.184 128.498C227.591 135.62 221.017 144.967 211.247 153.004C206.099 157.215 200.414 160.722 194.342 163.434C194.342 163.391 194.358 163.35 194.367 163.309C194.376 163.268 194.395 163.178 194.408 163.112C194.846 160.852 195.333 158.582 195.87 156.303C198.52 144.762 202.268 133.5 207.061 122.672C207.161 122.456 207.255 122.24 207.355 122.027C207.412 121.899 207.471 121.77 207.531 121.645L207.916 120.806C207.931 120.769 207.95 120.734 207.966 120.697C214.092 117.97 219.658 116.909 223.618 117.817C225.037 118.104 226.349 118.776 227.412 119.758C227.598 119.933 227.771 120.12 227.932 120.318C228.861 121.499 229.407 122.935 229.497 124.434C229.601 125.797 229.496 127.167 229.184 128.498V128.498Z" fill="#4D69B4"/>
<path opacity="0.1" d="M255.779 199.01C260.052 180.677 249.188 162.475 231.513 158.356C213.838 154.236 196.046 165.758 191.773 184.092C187.5 202.425 198.364 220.627 216.039 224.746C233.714 228.866 251.506 217.343 255.779 199.01Z" fill="black"/>
<path d="M255.627 199.669C259.9 181.336 249.035 163.135 231.36 159.015C213.686 154.895 195.893 166.418 191.62 184.751C187.347 203.084 198.212 221.286 215.886 225.405C233.561 229.525 251.354 218.003 255.627 199.669Z" fill="#4D69B4"/>
<path d="M226.339 183.1C226.275 183.374 226.158 183.632 225.995 183.86C225.831 184.089 225.624 184.283 225.385 184.431C224.904 184.731 224.323 184.827 223.77 184.698C223.218 184.57 222.739 184.227 222.439 183.745C222.139 183.263 222.043 182.682 222.172 182.13C222.441 180.978 223.236 181.782 224.385 182.048C225.534 182.314 226.599 181.951 226.339 183.1Z" fill="#65617D"/>
<g opacity="0.1">
<path opacity="0.1" d="M249.191 80.8078C255.65 82.3136 260.834 87.5415 264.553 95.4585C264.628 95.0954 264.709 94.726 264.797 94.3535C265.022 93.383 265.276 92.4439 265.545 91.536C262.03 85.6037 257.497 81.6968 252.056 80.429C249.523 79.8559 246.896 79.8431 244.358 80.3914C245.981 80.3005 247.608 80.4407 249.191 80.8078V80.8078Z" fill="black"/>
<path opacity="0.1" d="M279.279 175.856C276.583 150.559 275.522 125.245 271.7 108.078C273.647 105.886 283.68 103.313 284.917 98.0005C286.795 89.9989 278.189 81.1552 275.644 80.5604C275.018 80.4133 274.304 80.6763 273.584 81.2805C276.759 83.0836 283.752 91.0758 282.062 98.3668C280.81 103.689 270.792 106.237 268.845 108.444C272.67 125.621 273.719 150.934 276.427 176.232C280.008 209.853 273.819 227.816 253.305 238.216C253.305 238.673 252.854 239.008 252.053 239.24C254.557 239.127 256.198 238.701 256.179 237.84C276.671 227.444 282.86 209.478 279.279 175.856Z" fill="black"/>
<path opacity="0.1" d="M225.155 69.8416C227.704 70.4333 228.255 77.4018 226.392 85.4065C225.96 87.2754 225.406 89.1139 224.733 90.9099C226.027 89.6327 227.327 88.4629 228.633 87.4006C228.856 86.6336 229.065 85.8354 229.259 85.0339C231.138 77.0292 230.571 70.0607 228.026 69.4659C227.356 69.3094 226.148 69.4096 224.705 69.779C224.856 69.7865 225.007 69.8075 225.155 69.8416V69.8416Z" fill="black"/>
</g>
<g opacity="0.1">
<path opacity="0.1" d="M274.132 183.548C266.76 186.882 251.953 172.391 244.289 155.458C239.077 143.931 237.302 132.636 239.03 125.549C239.332 124.216 239.836 122.938 240.526 121.758C241.276 120.453 242.407 119.408 243.766 118.762C243.998 118.656 244.237 118.565 244.48 118.49C245.868 118.079 247.342 118.057 248.741 118.427C255.872 120.118 264.872 129.866 270.983 143.38C278.643 160.31 281.505 180.211 274.132 183.548Z" fill="black"/>
<g opacity="0.1">
<path opacity="0.1" d="M247 131.334C246.174 132.092 243.243 130.242 240.426 127.196C239.919 126.645 239.452 126.091 239.03 125.549C239.332 124.216 239.836 122.938 240.526 121.758C241.56 122.575 242.526 123.475 243.412 124.45C246.211 127.48 247.811 130.573 247 131.334Z" fill="black"/>
<path opacity="0.1" d="M248.741 118.427C249.465 119.062 250.155 119.735 250.807 120.443C253.605 123.486 255.189 126.566 254.376 127.33C253.562 128.094 250.619 126.241 247.82 123.195C246.255 121.507 245.081 119.808 244.48 118.499L248.741 118.427Z" fill="black"/>
</g>
</g>
<g opacity="0.1">
<path opacity="0.1" d="M275.099 182.383C267.727 185.72 252.92 171.226 245.256 154.296C240.041 142.767 238.266 131.472 239.994 124.384C240.297 123.051 240.803 121.773 241.493 120.593C242.243 119.288 243.373 118.242 244.734 117.597C244.965 117.494 245.202 117.404 245.444 117.328C246.832 116.914 248.308 116.893 249.708 117.266C256.836 118.953 265.836 128.705 271.95 142.216C279.611 159.146 282.469 179.046 275.099 182.383Z" fill="black"/>
</g>
<path d="M274.614 182.966C267.245 186.303 252.435 171.808 244.774 154.876C239.559 143.349 237.784 132.054 239.512 124.967C239.815 123.634 240.32 122.355 241.011 121.176C241.76 119.87 242.889 118.825 244.248 118.18C244.481 118.075 244.719 117.984 244.962 117.907C246.35 117.497 247.824 117.475 249.223 117.845C256.354 119.535 265.354 129.287 271.468 142.798C279.125 159.725 281.987 179.628 274.614 182.966Z" fill="#4D69B4"/>
<path d="M325.989 192.191C325.989 192.191 327.755 194.498 325.175 197.986C322.596 201.473 320.479 204.416 321.325 206.592C321.325 206.592 325.219 200.114 328.39 200.017C331.561 199.92 329.476 196.086 325.989 192.191Z" fill="#4D69B4"/>
<path opacity="0.1" d="M325.989 192.191C326.144 192.413 326.266 192.657 326.349 192.914C329.442 196.549 331.092 199.939 328.118 200.024C325.347 200.102 322.026 205.054 321.231 206.307C321.259 206.401 321.29 206.498 321.325 206.592C321.325 206.592 325.219 200.114 328.39 200.017C331.561 199.92 329.476 196.086 325.989 192.191Z" fill="black"/>
<path d="M329.273 195.134C329.273 195.948 329.182 196.605 329.069 196.605C328.957 196.605 328.866 195.948 328.866 195.134C328.866 194.32 328.979 194.705 329.091 194.705C329.204 194.705 329.273 194.32 329.273 195.134Z" fill="#FFD037"/>
<path d="M330.4 196.104C329.686 196.493 329.063 196.73 329.01 196.63C328.957 196.53 329.489 196.136 330.203 195.747C330.916 195.359 330.638 195.641 330.691 195.747C330.744 195.854 331.114 195.726 330.4 196.104Z" fill="#FFD037"/>
<path d="M316.66 192.191C316.66 192.191 314.895 194.498 317.477 197.986C320.06 201.473 322.173 204.416 321.325 206.592C321.325 206.592 317.43 200.114 314.262 200.017C311.094 199.92 313.176 196.086 316.66 192.191Z" fill="#4D69B4"/>
<path opacity="0.1" d="M316.66 192.191C316.506 192.414 316.385 192.657 316.3 192.914C313.207 196.549 311.561 199.939 314.534 200.024C317.302 200.102 320.623 205.054 321.422 206.307C321.396 206.403 321.365 206.498 321.328 206.592C321.328 206.592 317.433 200.114 314.265 200.017C311.097 199.92 313.176 196.086 316.66 192.191Z" fill="black"/>
<path d="M313.367 195.134C313.367 195.948 313.458 196.605 313.57 196.605C313.683 196.605 313.774 195.948 313.774 195.134C313.774 194.32 313.661 194.705 313.548 194.705C313.436 194.705 313.367 194.32 313.367 195.134Z" fill="#FFD037"/>
<path d="M312.252 196.104C312.966 196.493 313.589 196.73 313.642 196.63C313.696 196.53 313.16 196.136 312.446 195.747C311.733 195.359 312.014 195.641 311.961 195.747C311.908 195.854 311.539 195.726 312.252 196.104Z" fill="#FFD037"/>
<path opacity="0.1" d="M321.328 224.257C331.525 224.257 339.791 222.989 339.791 221.424C339.791 219.859 331.525 218.591 321.328 218.591C311.13 218.591 302.864 219.859 302.864 221.424C302.864 222.989 311.13 224.257 321.328 224.257Z" fill="#4D69B4"/>
<path d="M330.829 203.477L330.741 204.2L330.616 205.217L330.566 205.643L330.441 206.66L330.387 207.086L330.265 208.104L328.85 219.686C328.725 220.723 327.035 221.527 324.997 221.527H317.656C315.614 221.527 313.927 220.723 313.802 219.686L312.387 208.104L312.262 207.086L312.212 206.66L312.086 205.643L312.033 205.217L311.911 204.2L311.82 203.477C311.751 202.891 312.666 202.4 313.818 202.4H328.844C329.987 202.4 330.898 202.891 330.829 203.477Z" fill="#65617D"/>
<path d="M330.741 204.2L330.619 205.217H312.036L311.911 204.2H330.741Z" fill="#9D9CB5"/>
<path d="M330.566 205.643L330.444 206.66H312.212L312.086 205.643H330.566Z" fill="#9D9CB5"/>
<path d="M330.387 207.086L330.265 208.104H312.387L312.265 207.086H330.387Z" fill="#9D9CB5"/>
<path d="M109.258 213.804C109.258 213.804 111.731 217.038 108.115 221.922C104.499 226.805 101.519 230.928 102.724 233.974C102.724 233.974 108.181 224.896 112.62 224.777C117.059 224.658 114.126 219.258 109.258 213.804Z" fill="#4D69B4"/>
<path opacity="0.1" d="M109.258 213.804C109.473 214.117 109.644 214.458 109.765 214.818C114.094 219.909 116.405 224.658 112.238 224.777C108.359 224.889 103.707 231.823 102.593 233.576C102.631 233.711 102.674 233.843 102.724 233.974C102.724 233.974 108.181 224.896 112.62 224.777C117.059 224.658 114.126 219.258 109.258 213.804Z" fill="black"/>
<path d="M113.841 217.927C113.841 219.067 113.713 219.987 113.556 219.987C113.399 219.987 113.271 219.067 113.271 217.927C113.271 216.788 113.431 217.326 113.584 217.326C113.738 217.326 113.841 216.788 113.841 217.927Z" fill="#FFD037"/>
<path d="M115.419 219.286C114.42 219.83 113.54 220.159 113.471 220.021C113.403 219.884 114.148 219.33 115.146 218.769C116.145 218.209 115.75 218.622 115.826 218.769C115.901 218.916 116.417 218.741 115.419 219.286Z" fill="#FFD037"/>
<path d="M96.1786 213.804C96.1786 213.804 93.7023 217.038 97.3181 221.922C100.934 226.805 103.914 230.928 102.709 233.974C102.709 233.974 97.2555 224.896 92.8164 224.777C88.3773 224.658 91.295 219.258 96.1786 213.804Z" fill="#4D69B4"/>
<path opacity="0.1" d="M96.1786 213.804C95.9611 214.117 95.7903 214.46 95.6714 214.822C91.3388 219.912 89.0316 224.661 93.1952 224.78C97.0739 224.892 101.729 231.826 102.843 233.58C102.806 233.715 102.761 233.847 102.709 233.977C102.709 233.977 97.2555 224.899 92.8164 224.78C88.3773 224.661 91.295 219.258 96.1786 213.804Z" fill="black"/>
<path d="M91.5798 217.927C91.5798 219.067 91.7051 219.987 91.8647 219.987C92.0244 219.987 92.1496 219.067 92.1496 217.927C92.1496 216.788 91.9899 217.326 91.8365 217.326C91.6831 217.326 91.5798 216.788 91.5798 217.927Z" fill="#FFD037"/>
<path d="M90.0021 219.286C91.0007 219.83 91.8804 220.159 91.9461 220.021C92.0119 219.884 91.2731 219.33 90.2744 218.769C89.2758 218.209 89.6702 218.622 89.592 218.769C89.5137 218.916 89.0003 218.741 90.0021 219.286Z" fill="#FFD037"/>
<path opacity="0.1" d="M102.712 258.721C116.995 258.721 128.573 256.944 128.573 254.751C128.573 252.559 116.995 250.782 102.712 250.782C88.4292 250.782 76.8508 252.559 76.8508 254.751C76.8508 256.944 88.4292 258.721 102.712 258.721Z" fill="#4D69B4"/>
<path d="M116.023 229.613L115.898 230.624L115.722 232.052L115.65 232.647L115.478 234.074L115.403 234.669L115.231 236.093L113.249 252.319C113.074 253.765 110.707 254.895 107.852 254.895H97.5685C94.7103 254.895 92.3499 253.765 92.1715 252.319L90.1899 236.109L90.0177 234.685L89.9457 234.09L89.7673 232.662L89.6953 232.068L89.5231 230.64L89.3979 229.629C89.3008 228.809 90.5781 228.12 92.1965 228.12H113.227C114.839 228.104 116.123 228.793 116.023 229.613Z" fill="#65617D"/>
<path d="M115.898 230.624L115.725 232.052H89.6984L89.5231 230.624H115.898Z" fill="#9D9CB5"/>
<path d="M115.653 232.647L115.478 234.074H89.9457L89.7704 232.647H115.653Z" fill="#9D9CB5"/>
<path d="M115.403 234.669L115.231 236.093H90.1899L90.0177 234.669H115.403Z" fill="#9D9CB5"/>
</g>
<defs>
<linearGradient id="paint0_linear" x1="84.1993" y1="178.26" x2="160.238" y2="31.8792" gradientUnits="userSpaceOnUse">
<stop stop-color="#808080" stop-opacity="0.25"/>
<stop offset="0.54" stop-color="#808080" stop-opacity="0.12"/>
<stop offset="1" stop-color="#808080" stop-opacity="0.1"/>
</linearGradient>
<clipPath id="clip0">
<rect width="350" height="258.721" fill="white"/>
</clipPath>
</defs>
</svg>
