<svg width="20" height="21" viewBox="0 0 20 21" fill="none" xmlns="http://www.w3.org/2000/svg">
<g clip-path="url(#clip0)">
<path fill-rule="evenodd" clip-rule="evenodd" d="M20 10.5C20 16.0225 15.5225 20.5 10 20.5C4.4775 20.5 0 16.0225 0 10.5C0 4.9775 4.4775 0.5 10 0.5C15.5225 0.5 20 4.9775 20 10.5ZM10.3583 7.8825C9.38583 8.28667 7.44167 9.12417 4.52667 10.3942C4.05333 10.5825 3.805 10.7667 3.7825 10.9467C3.74417 11.2517 4.12583 11.3717 4.64417 11.5342C4.715 11.5567 4.78833 11.5792 4.86333 11.6042C5.37417 11.77 6.06083 11.9642 6.4175 11.9717C6.74167 11.9783 7.10333 11.845 7.5025 11.5717C10.2258 9.7325 11.6317 8.80333 11.72 8.78333C11.7825 8.76917 11.8692 8.75083 11.9275 8.80333C11.9858 8.855 11.98 8.95333 11.9742 8.98C11.9358 9.14083 10.4408 10.5317 9.66583 11.2517C9.42417 11.4758 9.25333 11.635 9.21833 11.6717C9.14 11.7525 9.06 11.83 8.98333 11.9042C8.50833 12.3608 8.15333 12.7042 9.00333 13.2642C9.41167 13.5333 9.73833 13.7558 10.0642 13.9775C10.42 14.22 10.775 14.4617 11.235 14.7633C11.3517 14.84 11.4633 14.9192 11.5725 14.9967C11.9867 15.2925 12.3592 15.5575 12.8192 15.5158C13.0858 15.4908 13.3625 15.24 13.5025 14.4908C13.8333 12.7192 14.485 8.8825 14.6358 7.30083C14.645 7.16951 14.6394 7.03757 14.6192 6.9075C14.607 6.80244 14.5559 6.70578 14.4758 6.63667C14.3567 6.53917 14.1717 6.51833 14.0883 6.52C13.7125 6.52667 13.1358 6.7275 10.3583 7.8825V7.8825Z" fill="#222222"/>
</g>
<defs>
<clipPath id="clip0">
<rect width="20" height="20" fill="white" transform="translate(0 0.5)"/>
</clipPath>
</defs>
</svg>
