<svg width="20" height="21" viewBox="0 0 20 21" fill="none" xmlns="http://www.w3.org/2000/svg">
<path d="M19.7024 4.61417C19.0066 4.9225 18.2591 5.13083 17.4733 5.225C18.2841 4.73983 18.8907 3.97622 19.1799 3.07667C18.4181 3.52916 17.5844 3.84766 16.7149 4.01833C16.1302 3.39405 15.3558 2.98027 14.5119 2.84123C13.6679 2.70219 12.8017 2.84566 12.0476 3.24938C11.2936 3.6531 10.6939 4.29447 10.3417 5.07392C9.98954 5.85337 9.90454 6.72729 10.0999 7.56C8.55633 7.4825 7.04628 7.08129 5.66778 6.38242C4.28928 5.68355 3.07313 4.70263 2.09826 3.50333C1.76493 4.07833 1.57326 4.745 1.57326 5.455C1.57289 6.09416 1.73029 6.72354 2.03149 7.28728C2.3327 7.85102 2.7684 8.3317 3.29993 8.68667C2.68349 8.66705 2.08066 8.50049 1.5416 8.20083V8.25083C1.54153 9.14728 1.85162 10.0161 2.41925 10.71C2.98687 11.4038 3.77707 11.8799 4.65576 12.0575C4.08391 12.2123 3.48438 12.2351 2.90243 12.1242C3.15034 12.8955 3.63326 13.57 4.28357 14.0533C4.93388 14.5365 5.71903 14.8043 6.5291 14.8192C5.15396 15.8987 3.45567 16.4842 1.70743 16.4817C1.39775 16.4817 1.08833 16.4637 0.780762 16.4275C2.55533 17.5685 4.62105 18.174 6.73076 18.1717C13.8724 18.1717 17.7766 12.2567 17.7766 7.12667C17.7766 6.96 17.7724 6.79167 17.7649 6.625C18.5243 6.07581 19.1799 5.39575 19.7008 4.61667L19.7024 4.61417Z" fill="#222222"/>
</svg>
