<svg width="20" height="20" viewBox="0 0 20 20" fill="none" xmlns="http://www.w3.org/2000/svg">
<path d="M16.3609 6.66415C16.3717 6.80999 16.3717 6.95499 16.3717 7.09999C16.3717 11.5375 12.9942 16.6508 6.82169 16.6508C4.92002 16.6508 3.15335 16.1 1.66669 15.1433C1.93669 15.1742 2.19669 15.185 2.47752 15.185C3.98835 15.1886 5.45639 14.6834 6.64502 13.7508C5.94454 13.7381 5.2655 13.507 4.70272 13.0898C4.13994 12.6725 3.72151 12.0899 3.50585 11.4233C3.71335 11.4542 3.92169 11.475 4.14002 11.475C4.44085 11.475 4.74335 11.4333 5.02419 11.3608C4.26399 11.2073 3.58042 10.7953 3.0897 10.1947C2.59899 9.59417 2.33143 8.84219 2.33252 8.06665V8.02499C2.78002 8.27415 3.29919 8.42999 3.84919 8.45082C3.38843 8.14464 3.01062 7.72917 2.74947 7.24148C2.48832 6.75378 2.35195 6.20903 2.35252 5.65582C2.35252 5.03249 2.51835 4.46082 2.80919 3.96249C3.65264 5 4.70461 5.84879 5.89697 6.45387C7.08933 7.05895 8.39549 7.40683 9.73085 7.47499C9.67919 7.22499 9.64752 6.96582 9.64752 6.70582C9.6473 6.26495 9.73397 5.82837 9.90259 5.42102C10.0712 5.01367 10.3184 4.64355 10.6302 4.33181C10.9419 4.02007 11.312 3.77283 11.7194 3.60422C12.1267 3.43561 12.5633 3.34893 13.0042 3.34915C13.9709 3.34915 14.8434 3.75415 15.4567 4.40915C16.2082 4.26383 16.9288 3.9895 17.5867 3.59832C17.3362 4.374 16.8115 5.03174 16.1109 5.44832C16.7773 5.3723 17.4287 5.19703 18.0434 4.92832C17.5843 5.59757 17.0155 6.18444 16.3609 6.66415Z" fill="#222222"/>
</svg>
