<svg width="17" height="18" viewBox="0 0 17 18" fill="none" xmlns="http://www.w3.org/2000/svg">
<path fill-rule="evenodd" clip-rule="evenodd" d="M2.04329 10.6667H1.83329C1.39127 10.6667 0.967342 10.4911 0.654781 10.1785C0.342221 9.86595 0.166626 9.44203 0.166626 9C0.166626 8.55797 0.342221 8.13405 0.654781 7.82149C0.967342 7.50893 1.39127 7.33333 1.83329 7.33333H2.04329C2.20079 6.72166 2.44329 6.14416 2.75663 5.61333L2.60663 5.46416C2.29411 5.15143 2.11863 4.72736 2.11879 4.28524C2.11894 3.84312 2.29472 3.41918 2.60746 3.10666C2.92019 2.79415 3.34426 2.61867 3.78638 2.61883C4.2285 2.61898 4.65245 2.79476 4.96496 3.1075L5.11329 3.25666C5.65019 2.93912 6.22924 2.69897 6.83329 2.54333V2.33333C6.83329 1.8913 7.00889 1.46738 7.32145 1.15482C7.63401 0.842259 8.05793 0.666664 8.49996 0.666664C8.94199 0.666664 9.36591 0.842259 9.67847 1.15482C9.99103 1.46738 10.1666 1.8913 10.1666 2.33333V2.54333C10.7783 2.70083 11.3558 2.94333 11.8866 3.25666L12.0358 3.10666C12.3485 2.79415 12.7726 2.61867 13.2147 2.61883C13.4336 2.6189 13.6504 2.6621 13.8526 2.74594C14.0548 2.82979 14.2386 2.95265 14.3933 3.1075C14.548 3.26235 14.6708 3.44616 14.7545 3.64844C14.8382 3.85072 14.8812 4.06751 14.8811 4.28642C14.8811 4.50533 14.8379 4.72209 14.754 4.92431C14.6702 5.12653 14.5473 5.31026 14.3925 5.465L14.2433 5.61333C14.5575 6.14416 14.7991 6.72166 14.9566 7.33333H15.1666C15.6087 7.33333 16.0326 7.50893 16.3451 7.82149C16.6577 8.13405 16.8333 8.55797 16.8333 9C16.8333 9.44203 16.6577 9.86595 16.3451 10.1785C16.0326 10.4911 15.6087 10.6667 15.1666 10.6667H14.9566C14.801 11.2707 14.5608 11.8498 14.2433 12.3867L14.3933 12.5358C14.548 12.6907 14.6708 12.8745 14.7545 13.0768C14.8382 13.2791 14.8812 13.4958 14.8811 13.7148C14.8811 13.9337 14.8379 14.1504 14.754 14.3526C14.6702 14.5549 14.5473 14.7386 14.3925 14.8933C14.2376 15.0481 14.0538 15.1708 13.8515 15.2545C13.6492 15.3382 13.4324 15.3812 13.2135 15.3812C12.9946 15.3811 12.7779 15.3379 12.5756 15.254C12.3734 15.1702 12.1897 15.0473 12.035 14.8925L11.8866 14.7433C11.3497 15.0609 10.7707 15.301 10.1666 15.4567V15.6667C10.1666 16.1087 9.99103 16.5326 9.67847 16.8452C9.36591 17.1577 8.94199 17.3333 8.49996 17.3333C8.05793 17.3333 7.63401 17.1577 7.32145 16.8452C7.00889 16.5326 6.83329 16.1087 6.83329 15.6667V15.4567C6.22924 15.301 5.65019 15.0609 5.11329 14.7433L4.96413 14.8933C4.80928 15.0481 4.62546 15.1708 4.42318 15.2545C4.2209 15.3382 4.00412 15.3812 3.7852 15.3812C3.56629 15.3811 3.34953 15.3379 3.14731 15.254C2.94509 15.1702 2.76137 15.0473 2.60663 14.8925C2.45188 14.7376 2.32916 14.5538 2.24546 14.3516C2.16175 14.1493 2.11871 13.9325 2.11879 13.7136C2.11887 13.4947 2.16206 13.2779 2.24591 13.0757C2.32975 12.8735 2.45261 12.6897 2.60746 12.535L2.75663 12.3867C2.43908 11.8498 2.19893 11.2707 2.04329 10.6667ZM5.99996 7.33333L4.33329 9L7.66663 12.3333L12.6666 7.33333L11 5.66666L7.66663 9L5.99996 7.33333Z" fill="#4D69B4"/>
</svg>
