<svg width="400" height="361" viewBox="0 0 400 361" fill="none" xmlns="http://www.w3.org/2000/svg">
<g clip-path="url(#clip0)">
<path d="M99.1061 91.4128C92.2281 70.8529 70.9882 59.426 57.0154 64.1004C43.0426 68.7748 32.9541 90.682 39.832 111.242C46.1984 130.273 65.4896 141.259 78.7605 139.299C78.6647 139.465 78.6017 139.648 78.5749 139.838L78.1691 143.223C78.1381 143.481 78.1737 143.742 78.2723 143.983C78.3709 144.223 78.5293 144.434 78.7325 144.596C78.9357 144.758 79.177 144.866 79.4333 144.908C79.6897 144.951 79.9526 144.927 80.1972 144.839L87.0333 142.388C87.2779 142.3 87.496 142.152 87.667 141.956C87.8379 141.76 87.956 141.524 88.01 141.27C88.064 141.016 88.0521 140.752 87.9755 140.504C87.8989 140.255 87.7601 140.031 87.5723 139.851L85.1081 137.496C85.0205 137.415 84.9237 137.346 84.8198 137.288C96.6562 130.91 105.486 110.485 99.1061 91.4128Z" fill="#F2F2F2"/>
<path d="M74.2068 76.2866C79.9187 79.2344 84.2807 84.2627 86.3926 90.3336C88.5045 96.4044 88.2051 103.054 85.556 108.911C84.9645 110.257 87.1397 110.966 87.7274 109.628C90.5088 103.291 90.7917 96.1371 88.5194 89.6006C86.2471 83.0641 81.5876 77.6283 75.4754 74.3833C74.1853 73.6997 72.9071 75.5979 74.2068 76.2866Z" fill="white"/>
<path d="M377.57 61.4436C370.692 40.8837 349.452 29.4568 335.479 34.1312C321.507 38.8055 311.418 60.7128 318.296 81.2727C324.662 100.304 343.954 111.29 357.225 109.329C357.129 109.496 357.066 109.679 357.039 109.869L356.633 113.254C356.602 113.512 356.638 113.773 356.736 114.014C356.835 114.254 356.993 114.465 357.197 114.627C357.4 114.789 357.641 114.896 357.897 114.939C358.154 114.982 358.417 114.958 358.661 114.87L365.497 112.419C365.742 112.331 365.96 112.182 366.131 111.987C366.302 111.791 366.42 111.555 366.474 111.301C366.528 111.046 366.516 110.783 366.44 110.534C366.363 110.286 366.224 110.061 366.036 109.882L363.572 107.526C363.485 107.446 363.388 107.377 363.284 107.319C375.12 100.941 383.95 80.5158 377.57 61.4436Z" fill="#F2F2F2"/>
<path d="M352.671 46.3173C358.383 49.2652 362.745 54.2935 364.857 60.3643C366.969 66.4351 366.669 73.0851 364.02 78.9415C363.429 80.2881 365.604 80.9963 366.191 79.6585C368.973 73.3218 369.256 66.1679 366.983 59.6314C364.711 53.0949 360.052 47.6591 353.939 44.4141C352.649 43.7305 351.371 45.6286 352.671 46.3173Z" fill="white"/>
<path d="M215.861 28.3526C208.983 7.79268 187.743 -3.63422 173.771 1.04015C159.798 5.71453 149.709 27.6218 156.587 48.1817C162.954 67.2125 182.245 78.1989 195.516 76.2384C195.42 76.4048 195.357 76.588 195.33 76.7781L194.924 80.1626C194.893 80.4206 194.929 80.6822 195.027 80.9226C195.126 81.163 195.284 81.3743 195.488 81.5362C195.691 81.6982 195.932 81.8055 196.188 81.848C196.445 81.8905 196.708 81.8668 196.952 81.7791L203.788 79.3279C204.033 79.2402 204.251 79.0914 204.422 78.8957C204.593 78.7 204.711 78.4638 204.765 78.2096C204.819 77.9555 204.807 77.6917 204.731 77.4434C204.654 77.1951 204.515 76.9705 204.327 76.7909L201.863 74.4354C201.776 74.3553 201.679 74.2857 201.575 74.2282C213.411 67.8495 222.242 47.4247 215.861 28.3526Z" fill="#F2F2F2"/>
<path d="M190.962 13.2263C196.674 16.1742 201.036 21.2025 203.148 27.2733C205.26 33.3441 204.96 39.9941 202.311 45.8505C201.72 47.1971 203.895 47.9052 204.482 46.5675C207.264 40.2308 207.547 33.0769 205.274 26.5404C203.002 20.0039 198.343 14.5681 192.23 11.3231C190.94 10.6394 189.662 12.5376 190.962 13.2263Z" fill="white"/>
<path d="M181.365 127.283C182.27 127.283 183.004 126.55 183.004 125.645C183.004 124.74 182.27 124.006 181.365 124.006C180.46 124.006 179.727 124.74 179.727 125.645C179.727 126.55 180.46 127.283 181.365 127.283Z" fill="#CCCCCC"/>
<path d="M177.873 193.015C179.661 193.015 181.11 191.566 181.11 189.778C181.11 187.99 179.661 186.541 177.873 186.541C176.085 186.541 174.636 187.99 174.636 189.778C174.636 191.566 176.085 193.015 177.873 193.015Z" fill="#CCCCCC"/>
<path d="M123.681 180.551C124.714 180.551 125.552 179.713 125.552 178.68C125.552 177.647 124.714 176.81 123.681 176.81C122.648 176.81 121.811 177.647 121.811 178.68C121.811 179.713 122.648 180.551 123.681 180.551Z" fill="#CCCCCC"/>
<path d="M152.097 149.924C153.216 149.924 154.123 149.017 154.123 147.898C154.123 146.779 153.216 145.872 152.097 145.872C150.979 145.872 150.072 146.779 150.072 147.898C150.072 149.017 150.979 149.924 152.097 149.924Z" fill="#CCCCCC"/>
<path d="M251.773 268.519C252.678 268.519 253.412 267.785 253.412 266.88C253.412 265.975 252.678 265.242 251.773 265.242C250.868 265.242 250.134 265.975 250.134 266.88C250.134 267.785 250.868 268.519 251.773 268.519Z" fill="#CCCCCC"/>
<path d="M198.109 234.825C199.897 234.825 201.346 233.376 201.346 231.588C201.346 229.8 199.897 228.351 198.109 228.351C196.322 228.351 194.872 229.8 194.872 231.588C194.872 233.376 196.322 234.825 198.109 234.825Z" fill="#CCCCCC"/>
<path d="M234.971 192.214C236.004 192.214 236.841 191.376 236.841 190.343C236.841 189.31 236.004 188.473 234.971 188.473C233.938 188.473 233.1 189.31 233.1 190.343C233.1 191.376 233.938 192.214 234.971 192.214Z" fill="#CCCCCC"/>
<path d="M247.271 232.415C248.39 232.415 249.297 231.508 249.297 230.39C249.297 229.271 248.39 228.364 247.271 228.364C246.152 228.364 245.246 229.271 245.246 230.39C245.246 231.508 246.152 232.415 247.271 232.415Z" fill="#CCCCCC"/>
<path d="M356.376 336.743C358.163 335.246 355.748 329.418 350.981 323.725C346.214 318.031 340.901 314.629 339.114 316.126C337.327 317.622 339.742 323.45 344.509 329.144C349.276 334.837 354.589 338.239 356.376 336.743Z" fill="#2F2E41"/>
<path d="M319.145 348.655C333.996 348.655 346.034 336.616 346.034 321.765C346.034 306.915 333.996 294.876 319.145 294.876C304.294 294.876 292.256 306.915 292.256 321.765C292.256 336.616 304.294 348.655 319.145 348.655Z" fill="#2F2E41"/>
<path d="M330.526 342.868H322.357V357.504H330.526V342.868Z" fill="#2F2E41"/>
<path d="M314.188 342.868H306.019V357.504H314.188V342.868Z" fill="#2F2E41"/>
<path d="M323.719 360.227C327.479 360.227 330.526 359.084 330.526 357.675C330.526 356.265 327.479 355.122 323.719 355.122C319.959 355.122 316.911 356.265 316.911 357.675C316.911 359.084 319.959 360.227 323.719 360.227Z" fill="#2F2E41"/>
<path d="M307.381 359.887C311.141 359.887 314.188 358.744 314.188 357.334C314.188 355.924 311.141 354.781 307.381 354.781C303.621 354.781 300.573 355.924 300.573 357.334C300.573 358.744 303.621 359.887 307.381 359.887Z" fill="#2F2E41"/>
<path d="M310.702 287.964C313.103 278.295 323.701 272.605 334.374 275.255C345.047 277.905 351.753 287.892 349.352 297.561C346.951 307.231 338.985 307.262 328.312 304.612C317.639 301.962 308.301 297.634 310.702 287.964Z" fill="#E6E6E6"/>
<path d="M301.006 315.05C302.005 312.944 297.376 308.657 290.667 305.475C283.958 302.293 277.71 301.421 276.711 303.527C275.712 305.633 280.341 309.92 287.05 313.102C293.759 316.284 300.007 317.156 301.006 315.05Z" fill="#2F2E41"/>
<path d="M315.125 325.056C320.076 325.056 324.09 321.043 324.09 316.091C324.09 311.14 320.076 307.126 315.125 307.126C310.174 307.126 306.16 311.14 306.16 316.091C306.16 321.043 310.174 325.056 315.125 325.056Z" fill="white"/>
<path d="M311.44 315.866C313.091 315.866 314.429 314.528 314.429 312.878C314.429 311.228 313.091 309.89 311.44 309.89C309.79 309.89 308.452 311.228 308.452 312.878C308.452 314.528 309.79 315.866 311.44 315.866Z" fill="#3F3D56"/>
<path d="M320.749 334.769C320.889 335.541 320.877 336.334 320.711 337.101C320.545 337.868 320.23 338.595 319.784 339.241C319.337 339.886 318.768 340.437 318.108 340.862C317.448 341.288 316.711 341.579 315.939 341.72C315.167 341.86 314.375 341.847 313.608 341.682C312.84 341.516 312.113 341.201 311.468 340.754C310.823 340.308 310.271 339.738 309.846 339.079C309.421 338.419 309.129 337.682 308.989 336.91L308.987 336.899C308.399 333.651 310.91 332.501 314.158 331.913C317.406 331.325 320.161 331.521 320.749 334.769Z" fill="white"/>
<path d="M98.0748 302.967C100.726 296.031 101.11 289.733 98.9324 288.901C96.755 288.069 92.8408 293.017 90.1897 299.953C87.5387 306.889 87.1547 313.186 89.3321 314.018C91.5095 314.851 95.4237 309.903 98.0748 302.967Z" fill="#2F2E41"/>
<path d="M69.2783 348.655C84.129 348.655 96.1678 336.616 96.1678 321.765C96.1678 306.915 84.129 294.876 69.2783 294.876C54.4277 294.876 42.3888 306.915 42.3888 321.765C42.3888 336.616 54.4277 348.655 69.2783 348.655Z" fill="#2F2E41"/>
<path d="M65.1938 342.868H57.0249V357.504H65.1938V342.868Z" fill="#2F2E41"/>
<path d="M81.5317 342.868H73.3628V357.504H81.5317V342.868Z" fill="#2F2E41"/>
<path d="M63.8324 360.227C67.592 360.227 70.6398 359.084 70.6398 357.675C70.6398 356.265 67.592 355.122 63.8324 355.122C60.0727 355.122 57.0249 356.265 57.0249 357.675C57.0249 359.084 60.0727 360.227 63.8324 360.227Z" fill="#2F2E41"/>
<path d="M80.1703 359.887C83.9299 359.887 86.9777 358.744 86.9777 357.334C86.9777 355.924 83.9299 354.781 80.1703 354.781C76.4106 354.781 73.3628 355.924 73.3628 357.334C73.3628 358.744 76.4106 359.887 80.1703 359.887Z" fill="#2F2E41"/>
<path d="M69.9591 324.148C75.0346 324.148 79.1491 320.033 79.1491 314.958C79.1491 309.882 75.0346 305.768 69.9591 305.768C64.8835 305.768 60.769 309.882 60.769 314.958C60.769 320.033 64.8835 324.148 69.9591 324.148Z" fill="white"/>
<path d="M69.9591 318.021C71.6509 318.021 73.0224 316.65 73.0224 314.958C73.0224 313.266 71.6509 311.894 69.9591 311.894C68.2672 311.894 66.8957 313.266 66.8957 314.958C66.8957 316.65 68.2672 318.021 69.9591 318.021Z" fill="#3F3D56"/>
<path d="M43.1946 296.759C41.0234 287.035 47.9639 277.21 58.6966 274.813C69.4293 272.417 79.89 278.357 82.0612 288.08C84.2323 297.804 77.1194 301.39 66.3867 303.786C55.654 306.183 45.3658 306.482 43.1946 296.759Z" fill="#E6E6E6"/>
<path d="M51.1395 315.05C52.1384 312.944 47.5095 308.657 40.8005 305.475C34.0915 302.293 27.843 301.421 26.8441 303.527C25.8452 305.633 30.4741 309.92 37.1831 313.102C43.8921 316.284 50.1406 317.156 51.1395 315.05Z" fill="#2F2E41"/>
<path d="M56.0703 331.466C56.0703 334.098 62.8467 339.294 70.366 339.294C77.8853 339.294 84.9355 331.885 84.9355 329.253C84.9355 326.622 77.8853 329.764 70.366 329.764C62.8467 329.764 56.0703 328.834 56.0703 331.466Z" fill="white"/>
<path d="M197.721 323.056C212.572 323.056 224.61 311.017 224.61 296.166C224.61 281.316 212.572 269.277 197.721 269.277C182.87 269.277 170.831 281.316 170.831 296.166C170.831 311.017 182.87 323.056 197.721 323.056Z" fill="#2F2E41"/>
<path d="M193.636 317.27H185.467V331.906H193.636V317.27Z" fill="#2F2E41"/>
<path d="M209.974 317.27H201.805V331.906H209.974V317.27Z" fill="#2F2E41"/>
<path d="M192.275 334.629C196.035 334.629 199.082 333.486 199.082 332.076C199.082 330.666 196.035 329.523 192.275 329.523C188.515 329.523 185.467 330.666 185.467 332.076C185.467 333.486 188.515 334.629 192.275 334.629Z" fill="#2F2E41"/>
<path d="M208.613 334.288C212.373 334.288 215.42 333.145 215.42 331.735C215.42 330.326 212.373 329.183 208.613 329.183C204.853 329.183 201.805 330.326 201.805 331.735C201.805 333.145 204.853 334.288 208.613 334.288Z" fill="#2F2E41"/>
<path d="M171.637 271.16C169.466 261.436 176.407 251.611 187.139 249.215C197.872 246.818 208.333 252.758 210.504 262.482C212.675 272.205 205.562 275.791 194.829 278.188C184.097 280.584 173.808 280.884 171.637 271.16Z" fill="#4D69B4"/>
<path d="M226.697 284.416C232.52 278.588 235.758 272.382 233.929 270.554C232.099 268.726 225.895 271.968 220.072 277.796C214.248 283.624 211.011 289.83 212.84 291.658C214.67 293.487 220.874 290.244 226.697 284.416Z" fill="#2F2E41"/>
<path d="M176.047 293.532C177.877 291.703 174.639 285.497 168.816 279.669C162.992 273.841 156.788 270.599 154.959 272.427C153.129 274.255 156.367 280.462 162.19 286.289C168.014 292.117 174.218 295.36 176.047 293.532Z" fill="#2F2E41"/>
<path d="M361.196 125.509C360.303 97.9378 341.419 76.1747 319.017 76.9C269.161 78.3773 267.943 169.805 316.078 176.373L315.059 184.474L329.926 183.993L328.385 175.974C347.748 171.695 362.005 150.506 361.196 125.509Z" fill="#FF6584"/>
<path d="M294.225 140.796L288.608 140.978C286.407 130.511 286.058 119.739 287.578 109.152L293.194 108.97C291.12 120.053 291.463 130.661 294.225 140.796Z" fill="white"/>
<path d="M330.654 175.848L313.805 176.394L313.927 180.138L330.775 179.592L330.654 175.848Z" fill="#3F3D56"/>
<path d="M281.716 319.218L280.019 318.424L321.734 176.961L323.43 177.756L281.716 319.218Z" fill="#3F3D56"/>
<path d="M395.721 148.824C405.909 123.188 397.282 95.6963 376.452 87.4192C330.15 68.8723 292.538 152.215 334.051 177.45L329.883 184.471L343.706 189.964L345.494 181.997C364.956 185.803 386.486 172.066 395.721 148.824Z" fill="#4D69B4"/>
<path d="M328.215 136.107L322.993 134.032C325.152 123.557 329.132 113.541 334.752 104.441L339.974 106.516C333.648 115.849 329.729 125.713 328.215 136.107Z" fill="white"/>
<path d="M331.959 176.562L330.575 180.044L346.241 186.269L347.625 182.788L331.959 176.562Z" fill="#3F3D56"/>
<path d="M281.386 315.494L279.758 314.568L337.997 181.662L339.625 182.588L281.386 315.494Z" fill="#3F3D56"/>
<path d="M79.1638 127.291C68.142 102.002 42.5506 88.7617 22.0038 97.7169C-23.7753 117.52 8.89174 202.922 56.0451 191.23L58.093 199.134L71.7285 193.191L67.3324 186.31C83.7423 175.175 89.1564 150.218 79.1638 127.291Z" fill="#4D69B4"/>
<path d="M22.5877 166.252L17.4365 168.497C11.5216 159.586 7.21556 149.706 4.71411 139.307L9.86534 137.062C12.0348 148.126 16.2756 157.856 22.5877 166.252Z" fill="white"/>
<path d="M69.3946 185.354L53.9409 192.09L55.4377 195.524L70.8914 188.788L69.3946 185.354Z" fill="#3F3D56"/>
<path d="M105.149 319.58C104.908 319.639 104.653 319.601 104.44 319.473C104.228 319.345 104.075 319.137 104.015 318.896L63.302 189.894L65.1199 189.443L105.833 318.445C105.862 318.565 105.868 318.689 105.85 318.81C105.831 318.932 105.789 319.049 105.726 319.154C105.662 319.259 105.579 319.351 105.48 319.424C105.381 319.497 105.269 319.55 105.149 319.58Z" fill="#3F3D56"/>
<path d="M116.03 360.367H18.0058C17.8402 360.367 17.6814 360.301 17.5643 360.184C17.4472 360.067 17.3814 359.908 17.3814 359.742C17.3814 359.577 17.4472 359.418 17.5643 359.301C17.6814 359.184 17.8402 359.118 18.0058 359.118H116.03C116.196 359.118 116.354 359.184 116.472 359.301C116.589 359.418 116.654 359.577 116.654 359.742C116.654 359.908 116.589 360.067 116.472 360.184C116.354 360.301 116.196 360.367 116.03 360.367Z" fill="#CCCCCC"/>
<path d="M365.149 360.367H267.125C266.959 360.367 266.801 360.301 266.683 360.184C266.566 360.067 266.501 359.908 266.501 359.742C266.501 359.577 266.566 359.418 266.683 359.301C266.801 359.184 266.959 359.118 267.125 359.118H365.149C365.315 359.118 365.474 359.184 365.591 359.301C365.708 359.418 365.774 359.577 365.774 359.742C365.774 359.908 365.708 360.067 365.591 360.184C365.474 360.301 365.315 360.367 365.149 360.367Z" fill="#CCCCCC"/>
<path d="M248.394 334.768H150.37C150.204 334.768 150.045 334.702 149.928 334.585C149.811 334.468 149.745 334.309 149.745 334.144C149.745 333.978 149.811 333.819 149.928 333.702C150.045 333.585 150.204 333.519 150.37 333.519H248.394C248.56 333.519 248.719 333.585 248.836 333.702C248.953 333.819 249.019 333.978 249.019 334.144C249.019 334.309 248.953 334.468 248.836 334.585C248.719 334.702 248.56 334.768 248.394 334.768Z" fill="#CCCCCC"/>
<path d="M196.59 301.546C201.665 301.546 205.78 297.431 205.78 292.356C205.78 287.28 201.665 283.166 196.59 283.166C191.514 283.166 187.4 287.28 187.4 292.356C187.4 297.431 191.514 301.546 196.59 301.546Z" fill="white"/>
<path d="M196.59 295.419C198.281 295.419 199.653 294.048 199.653 292.356C199.653 290.664 198.281 289.293 196.59 289.293C194.898 289.293 193.526 290.664 193.526 292.356C193.526 294.048 194.898 295.419 196.59 295.419Z" fill="#3F3D56"/>
<path d="M203.885 309.352C204.169 310.912 203.822 312.52 202.92 313.824C202.018 315.127 200.635 316.019 199.075 316.303C197.516 316.587 195.907 316.24 194.604 315.338C193.301 314.436 192.409 313.053 192.125 311.493L192.123 311.482C191.535 308.234 194.046 307.084 197.294 306.496C200.542 305.908 203.297 306.104 203.885 309.352Z" fill="white"/>
</g>
<defs>
<clipPath id="clip0">
<rect width="400" height="360.367" fill="white"/>
</clipPath>
</defs>
</svg>
